<?xml version="1.0" encoding="utf-8"?>
<!-- Generator: Adobe Illustrator 18.0.0, SVG Export Plug-In . SVG Version: 6.00 Build 0)  -->
<!DOCTYPE svg PUBLIC "-//W3C//DTD SVG 1.1//EN" "http://www.w3.org/Graphics/SVG/1.1/DTD/svg11.dtd">
<svg version="1.1" id="Layer_1" xmlns="http://www.w3.org/2000/svg" xmlns:xlink="http://www.w3.org/1999/xlink" x="0px" y="0px"
	 viewBox="0 0 64 64" enable-background="new 0 0 64 64" xml:space="preserve">
<g>
	<path fill="#7a029f" d="M58.6,1.5H5.3C2.4,1.5,0,3.9,0,6.9v40.4c0,3,2.4,5.4,5.3,5.4h19.8v4.1h-3.5c-3.2,0-5.8,2.6-5.8,5.8h32.2
		c0-3.2-2.6-5.8-5.8-5.8h-3.5v-4.1h19.8c3,0,5.4-2.4,5.4-5.4V6.9C64,3.9,61.6,1.5,58.6,1.5z M32,48.5c-1.3,0-2.3-1-2.3-2.3
		c0-1.3,1-2.3,2.3-2.3c1.3,0,2.3,1,2.3,2.3C34.3,47.5,33.3,48.5,32,48.5z M61.8,39.8H2.2V6.9c0-1.7,1.4-3.2,3.1-3.2h53.3
		c1.7,0,3.2,1.4,3.2,3.2V39.8z"/>
	<g>
		<path fill="#7a029f" d="M28.4,9.2l3.4,3.4c0.2,0.2,0.2,0.6,0,0.8l-3.1,3.1l5.9,5.9l0.2-0.2c0.2-0.2,0.4-0.2,0.6,0l8.2,8.2
			c1.1,1.1,0.9,2.9-0.4,3.7c-1,0.6-2.3,0.4-3.1-0.4l-8.2-8.2c-0.2-0.2-0.2-0.4,0-0.6l0.2-0.2L26.2,19l-4.4,4.4
			c-0.2,0.2-0.6,0.2-0.8,0l-1.1-1.1c-0.1-0.1-0.2-0.3-0.2-0.4l0-4.7c0-0.1,0.1-0.3,0.2-0.4l2.1-2.1l-0.5-0.5c-0.7-0.7-0.7-1.8,0-2.5
			c0.3-0.3,0.8-0.5,1.2-0.5c0.5,0,0.9,0.2,1.2,0.5l0.5,0.5l3.1-3.1C27.8,8.9,28.2,8.9,28.4,9.2z"/>
		<path fill="#7a029f" d="M30.4,25.9l-1.6,1.6c0.9,1.9,0.6,4.2-1,5.8c-1.4,1.4-3.4,1.8-5.2,1.3l2.7-2.7l-0.3-3l-3-0.3l-2.7,2.7
			c-0.6-1.8-0.2-3.8,1.3-5.2c0.4-0.4,0.9-0.8,1.4-1c0,0,0,0,0.1,0c0.1-0.1,0.2-0.1,0.3-0.1c1.3-0.5,2.7-0.4,4,0.1l1.9-1.9l2.1,2.1
			C30.3,25.4,30.3,25.7,30.4,25.9z"/>
		<path fill="#7a029f" d="M43.5,17.6c-1.6,1.6-3.9,1.9-5.8,1l-2.1,2.1c-0.2-0.1-0.4-0.1-0.6-0.1h-0.1l-2.1-2.1l2.4-2.4
			c-0.9-1.9-0.5-4.2,1-5.8c1.4-1.4,3.4-1.8,5.2-1.3l-2.7,2.7l0.3,3l3,0.3l2.7-2.7C45.3,14.2,44.8,16.2,43.5,17.6z"/>
	</g>
</g>
</svg>
