<?xml version="1.0" encoding="utf-8"?>
<!-- Generator: Adobe Illustrator 18.0.0, SVG Export Plug-In . SVG Version: 6.00 Build 0)  -->
<!DOCTYPE svg PUBLIC "-//W3C//DTD SVG 1.1//EN" "http://www.w3.org/Graphics/SVG/1.1/DTD/svg11.dtd">
<svg version="1.1" id="Layer_1" xmlns="http://www.w3.org/2000/svg" xmlns:xlink="http://www.w3.org/1999/xlink" x="0px" y="0px"
	 viewBox="0 0 64 64" enable-background="new 0 0 64 64" xml:space="preserve">
<g>
	<g>
		<g>
			<path fill="#7a029f" d="M39.6,5.7h-5.1v3h5.1v28.9c0.9-0.6,1.9-1.2,3-1.6V8.7C42.6,7.1,41.3,5.7,39.6,5.7z M5.3,55.5V8.7h5.1v-3
				H5.3c-1.7,0-3,1.3-3,3v46.8c0,1.7,1.3,3,3,3H35c-0.6-0.9-1-1.9-1.4-3H5.3z"/>
			<path fill="#7a029f" d="M25.8,3.1C25.7,1.4,24.2,0,22.4,0c-1.8,0-3.2,1.4-3.3,3.1c-3.7,0.3-6.7,1.1-6.7,2.3V11
				c0,0.3,0.2,0.5,0.5,0.5H32c0.3,0,0.5-0.2,0.5-0.5V5.4C32.5,4.2,29.5,3.4,25.8,3.1z M22.4,5c-0.9,0-1.7-0.8-1.7-1.7
				c0-0.9,0.8-1.7,1.7-1.7c0.9,0,1.7,0.8,1.7,1.7C24.1,4.3,23.4,5,22.4,5z"/>
		</g>
		<g>
			<path fill="#7a029f" d="M16.2,13.9H8.4c-0.3,0-0.6,0.3-0.6,0.6v7.7c0,0.3,0.3,0.6,0.6,0.6h7.8c0.3,0,0.6-0.3,0.6-0.6v-7.7
				C16.7,14.2,16.5,13.9,16.2,13.9z M15,21.1H9.5v-5.5H15V21.1z"/>
			<path fill="#7a029f" d="M37.1,15.5c0,0.4-0.3,0.7-0.7,0.7H20.2c-0.4,0-0.7-0.3-0.7-0.7c0-0.4,0.3-0.7,0.7-0.7h16.2
				C36.8,14.9,37.1,15.2,37.1,15.5z"/>
			<path fill="#7a029f" d="M37.1,18.3c0,0.4-0.3,0.7-0.7,0.7H20.2c-0.4,0-0.7-0.3-0.7-0.7c0-0.4,0.3-0.7,0.7-0.7h16.2
				C36.8,17.6,37.1,17.9,37.1,18.3z"/>
			<path fill="#7a029f" d="M29,21c0,0.4-0.3,0.7-0.7,0.7h-8.2c-0.4,0-0.7-0.3-0.7-0.7c0-0.4,0.3-0.7,0.7-0.7h8.2
				C28.7,20.3,29,20.6,29,21z"/>
		</g>
		<g>
			<path fill="#7a029f" d="M16.2,25.3H8.4c-0.3,0-0.6,0.3-0.6,0.6v7.8c0,0.3,0.3,0.6,0.6,0.6h7.8c0.3,0,0.6-0.3,0.6-0.6v-7.8
				C16.7,25.6,16.5,25.3,16.2,25.3z M15,32.5H9.5V27H15V32.5z"/>
			<path fill="#7a029f" d="M37.1,26.9c0,0.4-0.3,0.7-0.7,0.7H20.2c-0.4,0-0.7-0.3-0.7-0.7c0-0.4,0.3-0.7,0.7-0.7h16.2
				C36.8,26.2,37.1,26.5,37.1,26.9z"/>
			<path fill="#7a029f" d="M37.1,29.6c0,0.4-0.3,0.7-0.7,0.7H20.2c-0.4,0-0.7-0.3-0.7-0.7s0.3-0.7,0.7-0.7h16.2
				C36.8,29,37.1,29.3,37.1,29.6z"/>
			<path fill="#7a029f" d="M29,32.4c0,0.4-0.3,0.7-0.7,0.7h-8.2c-0.4,0-0.7-0.3-0.7-0.7c0-0.4,0.3-0.7,0.7-0.7h8.2
				C28.7,31.7,29,32,29,32.4z"/>
		</g>
		<g>
			<path fill="#7a029f" d="M16.2,36.7H8.4c-0.3,0-0.6,0.3-0.6,0.6V45c0,0.3,0.3,0.6,0.6,0.6h7.8c0.3,0,0.6-0.3,0.6-0.6v-7.8
				C16.7,36.9,16.5,36.7,16.2,36.7z M15,43.9H9.5v-5.5H15V43.9z"/>
			<path fill="#7a029f" d="M37.1,38.3c0,0.4-0.3,0.7-0.7,0.7H20.2c-0.4,0-0.7-0.3-0.7-0.7c0-0.4,0.3-0.7,0.7-0.7h16.2
				C36.8,37.6,37.1,37.9,37.1,38.3z"/>
			<path fill="#7a029f" d="M36.5,40.3c-0.4,0.4-0.7,0.9-1,1.3H20.2c-0.4,0-0.7-0.3-0.7-0.7c0-0.4,0.3-0.7,0.7-0.7h16.2
				C36.4,40.3,36.5,40.3,36.5,40.3z"/>
			<path fill="#7a029f" d="M29,43.7c0,0.4-0.3,0.7-0.7,0.7h-8.2c-0.4,0-0.7-0.3-0.7-0.7c0-0.4,0.3-0.7,0.7-0.7h8.2
				C28.7,43.1,29,43.4,29,43.7z"/>
		</g>
	</g>
	<path fill="#7a029f" d="M48.3,37c-7.5,0-13.5,6-13.5,13.5c0,7.5,6,13.5,13.5,13.5c7.5,0,13.5-6,13.5-13.5C61.8,43,55.7,37,48.3,37z
		 M48.3,60.5c-5.5,0-10-4.5-10-10c0-5.5,4.5-10,10-10c5.5,0,10,4.5,10,10C58.2,56,53.8,60.5,48.3,60.5z"/>
	<g>
		<path fill="#7a029f" d="M54.3,47.6l-7.6,7.6c-0.2,0.2-0.6,0.4-0.9,0.4c-0.3,0-0.6-0.1-0.9-0.4l-2.8-2.8c-0.5-0.5-0.5-1.3,0-1.8
			c0.5-0.5,1.3-0.5,1.8,0l1.9,1.9l6.7-6.8c0.5-0.5,1.3-0.5,1.8,0C54.8,46.3,54.8,47.1,54.3,47.6z"/>
	</g>
</g>
</svg>
