<?xml version="1.0" encoding="utf-8"?>
<!-- Generator: Adobe Illustrator 18.0.0, SVG Export Plug-In . SVG Version: 6.00 Build 0)  -->
<!DOCTYPE svg PUBLIC "-//W3C//DTD SVG 1.1//EN" "http://www.w3.org/Graphics/SVG/1.1/DTD/svg11.dtd">
<svg version="1.1" id="Layer_1" xmlns="http://www.w3.org/2000/svg" xmlns:xlink="http://www.w3.org/1999/xlink" x="0px" y="0px"
	 viewBox="0 0 64 64" enable-background="new 0 0 64 64" xml:space="preserve">
<g>
	<path fill="#f6fafe" d="M54.8,9.1V16H0V9.1c0-1.1,0.9-2,2-2h2.3V8c-0.7,0.7-1.1,1.6-1.1,2.5c0,2,1.6,3.6,3.6,3.6s3.6-1.6,3.6-3.6
		c0-1-0.4-1.9-1.1-2.5V7.1H18V8C17.4,8.7,17,9.6,17,10.5c0,2,1.6,3.6,3.6,3.6c2,0,3.6-1.6,3.6-3.6c0-1-0.4-1.9-1.1-2.5V7.1h8.7V8
		c-0.7,0.7-1.1,1.6-1.1,2.5c0,2,1.6,3.6,3.6,3.6c2,0,3.6-1.6,3.6-3.6c0-1-0.4-1.9-1.1-2.5V7.1h8.7V8c-0.7,0.7-1.1,1.6-1.1,2.5
		c0,2,1.6,3.6,3.6,3.6s3.6-1.6,3.6-3.6c0-1-0.4-1.9-1.1-2.5V7.1h2.3C53.9,7.1,54.8,8,54.8,9.1z"/>
	<path fill="#f6fafe" d="M0,18v33c0,1.1,0.9,2,2,2h32.2c-0.4-1.4-0.6-2.9-0.6-4.4c0-0.3,0-0.5,0-0.8c-0.1-0.1-0.1-0.2-0.1-0.3v-5.8
		c0-0.3,0.2-0.5,0.5-0.5h1.4c0.4-0.8,0.9-1.6,1.5-2.3H34c-0.3,0-0.5-0.2-0.5-0.5v-5.8c0-0.3,0.2-0.5,0.5-0.5h5.8
		c0.3,0,0.5,0.2,0.5,0.5v2.9c0.9-0.6,1.8-1.2,2.7-1.6v-1.3c0-0.3,0.2-0.5,0.5-0.5h5.8c0.2,0,0.4,0.1,0.4,0.3h0.1
		c1.7,0,3.4,0.3,5,0.8V18H0z M11.8,47.5c0,0.3-0.2,0.5-0.5,0.5H5.5C5.2,48,5,47.7,5,47.5v-5.8c0-0.3,0.2-0.5,0.5-0.5h5.8
		c0.3,0,0.5,0.2,0.5,0.5V47.5z M11.8,38.4c0,0.3-0.2,0.5-0.5,0.5H5.5c-0.3,0-0.5-0.2-0.5-0.5v-5.8c0-0.3,0.2-0.5,0.5-0.5h5.8
		c0.3,0,0.5,0.2,0.5,0.5V38.4z M11.8,29.3c0,0.3-0.2,0.5-0.5,0.5H5.5c-0.3,0-0.5-0.2-0.5-0.5v-5.8C5,23.2,5.2,23,5.5,23h5.8
		c0.3,0,0.5,0.2,0.5,0.5V29.3z M21.3,47.5c0,0.3-0.2,0.5-0.5,0.5H15c-0.3,0-0.5-0.2-0.5-0.5v-5.8c0-0.3,0.2-0.5,0.5-0.5h5.8
		c0.3,0,0.5,0.2,0.5,0.5V47.5z M21.3,38.4c0,0.3-0.2,0.5-0.5,0.5H15c-0.3,0-0.5-0.2-0.5-0.5v-5.8c0-0.3,0.2-0.5,0.5-0.5h5.8
		c0.3,0,0.5,0.2,0.5,0.5V38.4z M21.3,29.3c0,0.3-0.2,0.5-0.5,0.5H15c-0.3,0-0.5-0.2-0.5-0.5v-5.8c0-0.3,0.2-0.5,0.5-0.5h5.8
		c0.3,0,0.5,0.2,0.5,0.5V29.3z M30.8,47.5c0,0.3-0.2,0.5-0.5,0.5h-5.8c-0.3,0-0.5-0.2-0.5-0.5v-5.8c0-0.3,0.2-0.5,0.5-0.5h5.8
		c0.3,0,0.5,0.2,0.5,0.5V47.5z M30.8,38.4c0,0.3-0.2,0.5-0.5,0.5h-5.8c-0.3,0-0.5-0.2-0.5-0.5v-5.8c0-0.3,0.2-0.5,0.5-0.5h5.8
		c0.3,0,0.5,0.2,0.5,0.5V38.4z M30.8,29.3c0,0.3-0.2,0.5-0.5,0.5h-5.8c-0.3,0-0.5-0.2-0.5-0.5v-5.8c0-0.3,0.2-0.5,0.5-0.5h5.8
		c0.3,0,0.5,0.2,0.5,0.5V29.3z M40.3,29.3c0,0.3-0.2,0.5-0.5,0.5H34c-0.3,0-0.5-0.2-0.5-0.5v-5.8c0-0.3,0.2-0.5,0.5-0.5h5.8
		c0.3,0,0.5,0.2,0.5,0.5V29.3z M49.8,29.3c0,0.3-0.2,0.5-0.5,0.5h-5.8c-0.3,0-0.5-0.2-0.5-0.5v-5.8c0-0.3,0.2-0.5,0.5-0.5h5.8
		c0.3,0,0.5,0.2,0.5,0.5V29.3z"/>
	<path fill="#f6fafe" d="M49.8,38.9c-5.4,0-9.7,4.3-9.7,9.7c0,5.4,4.3,9.7,9.7,9.7c5.3,0,9.7-4.3,9.7-9.7
		C59.5,43.2,55.1,38.9,49.8,38.9z M55,46.2l-6.2,6.2c-0.2,0.2-0.4,0.3-0.7,0.3c-0.3,0-0.5-0.1-0.7-0.3l-2.8-2.8
		c-0.4-0.4-0.4-1,0-1.4c0.4-0.4,1-0.4,1.4,0l2.1,2.1l5.5-5.5c0.4-0.4,1-0.4,1.4,0C55.4,45.1,55.4,45.8,55,46.2z"/>
	<path fill="#f6fafe" d="M49.8,34.4c-7.8,0-14.2,6.4-14.2,14.2c0,7.8,6.4,14.2,14.2,14.2c7.8,0,14.2-6.4,14.2-14.2
		C64,40.7,57.6,34.4,49.8,34.4z M49.8,60.2c-6.4,0-11.6-5.2-11.6-11.6c0-6.4,5.2-11.6,11.6-11.6c6.4,0,11.6,5.2,11.6,11.6
		C61.4,55,56.2,60.2,49.8,60.2z"/>
	<g>
		<g>
			<path fill="#f6fafe" d="M8.9,10.5c0,1.1-0.9,2.1-2.1,2.1s-2.1-0.9-2.1-2.1c0-0.8,0.4-1.5,1.1-1.8V2.2c0-0.6,0.4-1,1-1s1,0.4,1,1
				v6.5C8.5,9.1,8.9,9.8,8.9,10.5z"/>
		</g>
		<g>
			<path fill="#f6fafe" d="M22.6,10.5c0,1.1-0.9,2.1-2.1,2.1c-1.1,0-2.1-0.9-2.1-2.1c0-0.8,0.4-1.5,1.1-1.8V2.2c0-0.6,0.4-1,1-1
				c0.5,0,1,0.4,1,1v6.5C22.2,9.1,22.6,9.8,22.6,10.5z"/>
		</g>
		<g>
			<path fill="#f6fafe" d="M36.3,10.5c0,1.1-0.9,2.1-2.1,2.1s-2.1-0.9-2.1-2.1c0-0.8,0.4-1.5,1.1-1.8V2.2c0-0.6,0.5-1,1-1s1,0.4,1,1
				v6.5C35.9,9.1,36.3,9.8,36.3,10.5z"/>
		</g>
		<g>
			<path fill="#f6fafe" d="M50,10.5c0,1.1-0.9,2.1-2.1,2.1c-1.1,0-2.1-0.9-2.1-2.1c0-0.8,0.4-1.5,1.1-1.8V2.2c0-0.6,0.4-1,1-1
				c0.5,0,1,0.4,1,1v6.5C49.6,9.1,50,9.8,50,10.5z"/>
		</g>
	</g>
</g>
</svg>
