<?xml version="1.0" encoding="utf-8"?>
<!-- Generator: Adobe Illustrator 18.0.0, SVG Export Plug-In . SVG Version: 6.00 Build 0)  -->
<!DOCTYPE svg PUBLIC "-//W3C//DTD SVG 1.1//EN" "http://www.w3.org/Graphics/SVG/1.1/DTD/svg11.dtd">
<svg version="1.1" id="Layer_1" xmlns="http://www.w3.org/2000/svg" xmlns:xlink="http://www.w3.org/1999/xlink" x="0px" y="0px"
	 viewBox="0 0 64 64" enable-background="new 0 0 64 64" xml:space="preserve">
<g>
	<path fill="#7a029f" d="M49.4,13.1c-0.6,0-1.2,0.1-1.8,0.2c0,0,0,0-0.1,0C45.5,7.3,39.9,3,33.2,3c-2.4,0-4.6,0.5-6.6,1.5
		c0,0,0,0,0,0C24.9,1.8,21.9,0,18.5,0c-5.3,0-9.6,4.3-9.6,9.6c0,0.8,0.1,1.6,0.3,2.4c0,0,0,0,0,0.1c-3.1,2.3-5,6.1-4.7,10.3
		c0.2,3.7,2.2,6.8,5.1,8.7c0.1-2.7,2.4-4.9,5.1-4.9h34.6c2.8,0,5.1,2.3,5.1,5.1v0.5c3-1.7,5-4.8,5.1-8.4
		C59.7,17.7,55.1,13.1,49.4,13.1z"/>
	<path fill="#7a029f" d="M49.3,28.3H14.7c-1.7,0-3.1,1.4-3.1,3.1v23.1c0,1.7,1.4,3.1,3.1,3.1h13.2c0.2,1.1-0.1,2.6-1.1,3.9h-4.4
		c-0.7,0-1.3,0.6-1.3,1.3c0,0.7,0.6,1.3,1.3,1.3h19.2c0.7,0,1.3-0.6,1.3-1.3c0-0.7-0.6-1.3-1.3-1.3h-4.4c-1-1.3-1.3-2.8-1.1-3.9
		h13.2c1.7,0,3.1-1.4,3.1-3.1V31.3C52.4,29.7,51,28.3,49.3,28.3z M32,55.6c-0.7,0-1.3-0.6-1.3-1.3c0-0.7,0.6-1.3,1.3-1.3
		c0.7,0,1.3,0.6,1.3,1.3C33.3,55.1,32.7,55.6,32,55.6z M50.5,51.2h-10c-0.6-4.2-4.2-7.4-8.5-7.4c-4.3,0-7.9,3.2-8.5,7.4h-10V32
		c0-1,0.8-1.7,1.7-1.7h33.5c1,0,1.7,0.8,1.7,1.7V51.2z"/>
	<path fill="#7a029f" d="M32,34.4c-2.5,0-4.5,2-4.5,4.5c0,2.5,2,4.5,4.5,4.5c2.5,0,4.5-2,4.5-4.5C36.5,36.4,34.5,34.4,32,34.4z"/>
</g>
</svg>
