<?xml version="1.0" encoding="utf-8"?>
<!-- Generator: Adobe Illustrator 18.0.0, SVG Export Plug-In . SVG Version: 6.00 Build 0)  -->
<!DOCTYPE svg PUBLIC "-//W3C//DTD SVG 1.1//EN" "http://www.w3.org/Graphics/SVG/1.1/DTD/svg11.dtd">
<svg version="1.1" id="Layer_1" xmlns="http://www.w3.org/2000/svg" xmlns:xlink="http://www.w3.org/1999/xlink" x="0px" y="0px"
	 viewBox="0 0 64 64" enable-background="new 0 0 64 64" xml:space="preserve">
<g>
	<path fill="#f6fafe" d="M55.1,0h-52c-1.7,0-3,1.4-3,3v36.8c0,1.7,1.4,3,3,3h30.2c-0.2-0.9-0.3-1.7-0.4-2.3c0-0.3,0-0.5,0-0.8H3.1
		V6.2h11.3l2.2,3.4h38.5v26c0.9,0.6,1.9,1.1,3,1.5V3C58.1,1.4,56.8,0,55.1,0z M42.8,6.3c-0.8,0-1.5-0.7-1.5-1.5
		c0-0.8,0.7-1.5,1.5-1.5c0.8,0,1.5,0.7,1.5,1.5C44.3,5.6,43.7,6.3,42.8,6.3z M47.9,6.3c-0.8,0-1.5-0.7-1.5-1.5
		c0-0.8,0.7-1.5,1.5-1.5c0.8,0,1.5,0.7,1.5,1.5C49.4,5.6,48.7,6.3,47.9,6.3z M52.9,6.3c-0.8,0-1.5-0.7-1.5-1.5
		c0-0.8,0.7-1.5,1.5-1.5c0.8,0,1.5,0.7,1.5,1.5C54.4,5.6,53.7,6.3,52.9,6.3z"/>
	<g>
		<path fill="#f6fafe" d="M54.3,48.8c0,2.7-2.2,4.9-4.9,4.9c-2.7,0-4.9-2.2-4.9-4.9c0-2.7,2.2-4.9,4.9-4.9
			C52.1,43.9,54.3,46.1,54.3,48.8z"/>
		<path fill="#f6fafe" d="M63.4,39.8c-7.3,0.5-12.3-4.5-13.6-6c-0.2-0.2-0.5-0.2-0.7,0c-1.4,1.5-6.3,6.4-13.6,6
			c-0.3,0-0.6,0.3-0.5,0.6c0.5,3.3,3.5,19.4,14.3,23.7c0.1,0.1,0.3,0.1,0.4,0c10.9-4.3,13.8-20.3,14.3-23.7
			C64,40,63.7,39.7,63.4,39.8z M49.4,56.2c-4.1,0-7.4-3.3-7.4-7.4c0-4.1,3.3-7.4,7.4-7.4c4.1,0,7.4,3.3,7.4,7.4
			C56.8,52.9,53.5,56.2,49.4,56.2z"/>
	</g>
	<g>
		<rect x="6.1" y="13.5" fill="#f6fafe" width="13.9" height="6.1"/>
		<rect x="22.1" y="13.5" fill="#f6fafe" width="13.9" height="6.1"/>
		<rect x="38.1" y="13.5" fill="#f6fafe" width="13.9" height="6.1"/>
	</g>
	<g>
		<rect x="6.1" y="22.4" fill="#f6fafe" width="13.9" height="6.1"/>
		<rect x="22.1" y="22.4" fill="#f6fafe" width="13.9" height="6.1"/>
		<rect x="38.1" y="22.4" fill="#f6fafe" width="13.9" height="6.1"/>
	</g>
</g>
</svg>
