<?xml version="1.0" encoding="utf-8"?>
<!-- Generator: Adobe Illustrator 18.0.0, SVG Export Plug-In . SVG Version: 6.00 Build 0)  -->
<!DOCTYPE svg PUBLIC "-//W3C//DTD SVG 1.1//EN" "http://www.w3.org/Graphics/SVG/1.1/DTD/svg11.dtd">
<svg version="1.1" id="Layer_1" xmlns="http://www.w3.org/2000/svg" xmlns:xlink="http://www.w3.org/1999/xlink" x="0px" y="0px"
	 viewBox="0 0 64 64" enable-background="new 0 0 64 64" xml:space="preserve">
<g>
	<g>
		<path fill="#7a029f" d="M11,21.5c0.5,0,0.9,0.1,1.4,0.2V10.5h38.7v8.3c0.4-0.1,0.7-0.1,1.1-0.1c0.3,0,0.7,0,1,0.1l0.4-0.5V4.7
			c0-1.4-1.1-2.5-2.5-2.5H12.4c-1.4,0-2.5,1.1-2.5,2.5v16.4l0.4,0.4C10.6,21.5,10.8,21.5,11,21.5z M25.5,5c0.8,0,1.4,0.6,1.4,1.4
			c0,0.8-0.6,1.4-1.4,1.4c-0.8,0-1.4-0.6-1.4-1.4C24.1,5.6,24.7,5,25.5,5z M20.6,5C21.4,5,22,5.6,22,6.4c0,0.8-0.6,1.4-1.4,1.4
			c-0.8,0-1.4-0.6-1.4-1.4C19.2,5.6,19.8,5,20.6,5z M15.6,5c0.8,0,1.4,0.6,1.4,1.4c0,0.8-0.6,1.4-1.4,1.4s-1.4-0.6-1.4-1.4
			C14.2,5.6,14.9,5,15.6,5z"/>
		<path fill="#7a029f" d="M61,11.5c-1.7,0-3,1.4-3,3c0,0.6,0.2,1.2,0.5,1.6l-4.7,4.9c-0.4-0.3-1-0.4-1.5-0.4c-1,0-1.9,0.5-2.5,1.3
			l-14.8-6.4c0,0,0-0.1,0-0.2c-0.2-1.2-1.2-2.1-2.4-2.4c-1.9-0.3-3.5,1-3.6,2.8l-15.8,8.5c-0.5-0.5-1.3-0.8-2-0.8
			c-0.5,0-0.9,0.1-1.3,0.3l-4-4C5.9,19.4,6,18.9,6,18.4c0-1.7-1.4-3-3-3c-1.7,0-3,1.4-3,3c0,1.7,1.4,3,3,3c0.5,0,0.9-0.1,1.3-0.3
			l4,4C8.1,25.6,8,26,8,26.5c0,1.7,1.4,3,3,3c1.7,0,3-1.4,3-3c0-0.2,0-0.3,0-0.5l15.4-8.3c0.4,0.6,1.1,1,1.8,1.2
			c1.3,0.2,2.6-0.4,3.2-1.4l14.7,6.4c0.1,1.6,1.4,2.8,3,2.8c1.7,0,3-1.4,3-3c0-0.4-0.1-0.8-0.2-1.1l5-5.2c0.3,0.1,0.6,0.2,1,0.2
			c1.7,0,3-1.4,3-3C64,12.8,62.6,11.5,61,11.5z"/>
		<path fill="#7a029f" d="M61.3,40.7c0-8.1-6.6-14.7-14.7-14.7c-6.5,0-12,4.2-14,10.1c0-0.1,0-0.1,0.1-0.2H12.4v-4.6
			c-0.4,0.1-0.9,0.2-1.4,0.2c-0.4,0-0.8,0-1.1-0.1v4.6c0,1.4,1.1,2.5,2.5,2.5h19.7c0-0.1,0-0.2,0.1-0.3c-0.2,0.9-0.2,1.7-0.2,2.6
			c0,8.1,6.6,14.7,14.7,14.7c2.4,0,4.7-0.6,6.7-1.6l4.7,7.3c0.5,0.7,1.4,0.9,2.1,0.4c0.7-0.4,0.9-1.4,0.4-2.1l-4.7-7.3
			C59.2,49.5,61.3,45.3,61.3,40.7z M32.5,36.7c-0.1,0.2-0.1,0.5-0.2,0.8C32.4,37.2,32.4,37,32.5,36.7z M46.6,52
			c-6.3,0-11.3-5.1-11.3-11.3c0-6.3,5.1-11.3,11.3-11.3c6.3,0,11.3,5.1,11.3,11.3C58,47,52.9,52,46.6,52z"/>
	</g>
	<path fill="#7a029f" d="M55.3,41.7c-0.5,4.3-4.2,7.7-8.6,7.7c-4.8,0-8.7-3.9-8.7-8.7c0-4.5,3.4-8.1,7.7-8.6v9.6H55.3z"/>
	<path fill="#7a029f" d="M55.3,39.7h-7.6v-7.6C51.7,32.5,54.8,35.7,55.3,39.7z"/>
</g>
</svg>
