<?xml version="1.0" encoding="utf-8"?>
<!-- Generator: Adobe Illustrator 18.0.0, SVG Export Plug-In . SVG Version: 6.00 Build 0)  -->
<!DOCTYPE svg PUBLIC "-//W3C//DTD SVG 1.1//EN" "http://www.w3.org/Graphics/SVG/1.1/DTD/svg11.dtd">
<svg version="1.1" id="Layer_1" xmlns="http://www.w3.org/2000/svg" xmlns:xlink="http://www.w3.org/1999/xlink" x="0px" y="0px"
	 viewBox="0 0 64 64" enable-background="new 0 0 64 64" xml:space="preserve">
<g>
	<path fill="#7a029f" d="M60.8,16.2c0-1.6-1.3-2.9-2.9-2.9h-2.5v3.8H57v31.1H7V17.2h1.5v-3.8H6.1c-1.6,0-2.9,1.3-2.9,2.9v35.9h57.6
		V16.2z"/>
	<path fill="#7a029f" d="M0,53.9v4.4c0,1.6,1.3,2.9,2.9,2.9h58.2c1.6,0,2.9-1.3,2.9-2.9v-4.4H0z M6,59c-0.8,0-1.4-0.6-1.4-1.4
		s0.6-1.4,1.4-1.4c0.8,0,1.4,0.6,1.4,1.4S6.8,59,6,59z M11.5,59c-0.8,0-1.4-0.6-1.4-1.4s0.6-1.4,1.4-1.4c0.8,0,1.4,0.6,1.4,1.4
		S12.3,59,11.5,59z M58,59H43.5c-0.8,0-1.4-0.6-1.4-1.4s0.6-1.4,1.4-1.4H58c0.8,0,1.4,0.6,1.4,1.4S58.7,59,58,59z"/>
	<path fill="#7a029f" d="M13.5,39.2h23.9v-1c0-0.5,0.2-1,0.5-1.4c-0.1-0.2-0.1-0.4-0.1-0.6H13.5v-26h36.9v18.4c0.1,0,0.1,0,0.2,0H51
		l1.6,0.6c0.4,0.2,0.7,0.4,0.9,0.7V5.7c0-1.7-1.3-3-3-3H13.5c-1.6,0-3,1.3-3,3v30.5C10.5,37.9,11.9,39.2,13.5,39.2z M29.7,5.2h18.4
		c0.7,0,1.2,0.6,1.2,1.2s-0.6,1.2-1.2,1.2H29.7c-0.7,0-1.2-0.6-1.2-1.2S29,5.2,29.7,5.2z M20.1,5.2c0.7,0,1.2,0.6,1.2,1.2
		s-0.6,1.2-1.2,1.2c-0.7,0-1.2-0.6-1.2-1.2S19.4,5.2,20.1,5.2z M15.9,5.2c0.7,0,1.2,0.6,1.2,1.2s-0.6,1.2-1.2,1.2
		c-0.7,0-1.2-0.6-1.2-1.2S15.2,5.2,15.9,5.2z"/>
	<path fill="#7a029f" d="M20.2,12.5c0-0.3-0.2-0.5-0.5-0.5h-4.4c-0.3,0-0.5,0.2-0.5,0.5v5.4c0,0.3,0.2,0.5,0.5,0.5h4.4
		c0.3,0,0.5-0.2,0.5-0.5V12.5z M19.2,17.4h-3.4V13h3.4V17.4z"/>
	<path fill="#7a029f" d="M22.8,13.4H48c0.3,0,0.5-0.2,0.5-0.5c0-0.3-0.2-0.5-0.5-0.5H22.8c-0.3,0-0.5,0.2-0.5,0.5
		C22.3,13.2,22.5,13.4,22.8,13.4z"/>
	<path fill="#7a029f" d="M22.8,15.2H48c0.3,0,0.5-0.2,0.5-0.5c0-0.3-0.2-0.5-0.5-0.5H22.8c-0.3,0-0.5,0.2-0.5,0.5
		C22.3,14.9,22.5,15.2,22.8,15.2z"/>
	<path fill="#7a029f" d="M22.8,17.9h10.1c0.3,0,0.5-0.2,0.5-0.5s-0.2-0.5-0.5-0.5H22.8c-0.3,0-0.5,0.2-0.5,0.5S22.5,17.9,22.8,17.9z
		"/>
	<path fill="#7a029f" d="M19.7,20.3h-4.4c-0.3,0-0.5,0.2-0.5,0.5v5.4c0,0.3,0.2,0.5,0.5,0.5h4.4c0.3,0,0.5-0.2,0.5-0.5v-5.4
		C20.2,20.5,19.9,20.3,19.7,20.3z M19.2,25.7h-3.4v-4.4h3.4V25.7z"/>
	<path fill="#7a029f" d="M22.8,21.7H48c0.3,0,0.5-0.2,0.5-0.5c0-0.3-0.2-0.5-0.5-0.5H22.8c-0.3,0-0.5,0.2-0.5,0.5
		C22.3,21.5,22.5,21.7,22.8,21.7z"/>
	<path fill="#7a029f" d="M48.5,23c0-0.3-0.2-0.5-0.5-0.5H22.8c-0.3,0-0.5,0.2-0.5,0.5c0,0.3,0.2,0.5,0.5,0.5H48
		C48.3,23.5,48.5,23.3,48.5,23z"/>
	<path fill="#7a029f" d="M22.8,25.2c-0.3,0-0.5,0.2-0.5,0.5c0,0.3,0.2,0.5,0.5,0.5h10.1c0.3,0,0.5-0.2,0.5-0.5
		c0-0.3-0.2-0.5-0.5-0.5H22.8z"/>
	<path fill="#7a029f" d="M52.6,33c-0.1,0.1-0.2,0.1-0.2,0l-0.8-0.5c-0.1,0-0.1-0.2-0.1-0.2l0.4-0.9c0-0.1,0-0.2-0.1-0.3l-1.1-0.5
		c-0.1,0-0.2,0-0.3,0.1l-0.4,0.9c0,0.1-0.1,0.1-0.2,0.1c-0.2-0.1-0.6-0.1-0.9-0.2c-0.1,0-0.2-0.1-0.2-0.2v-1c0-0.1-0.1-0.2-0.2-0.2
		h-1.2c-0.1,0-0.2,0.1-0.2,0.2v1c0,0.1-0.1,0.2-0.2,0.2c-0.3,0-0.6,0.1-0.9,0.2c-0.1,0-0.2,0-0.2-0.1l-0.4-0.9
		c0-0.1-0.2-0.1-0.3-0.1l-1.1,0.5c-0.1,0-0.1,0.2-0.1,0.3l0.4,0.9c0,0.1,0,0.2-0.1,0.2L43.6,33c-0.1,0-0.2,0-0.2,0l-0.7-0.7
		c-0.1-0.1-0.2-0.1-0.3,0l-0.9,0.9c-0.1,0.1-0.1,0.2,0,0.3l0.7,0.7c0.1,0.1,0.1,0.2,0,0.3c-0.2,0.2-0.4,0.5-0.5,0.7
		c-0.1,0.1-0.2,0.1-0.2,0.1l-0.9-0.4c-0.1,0-0.2,0-0.3,0.1l-0.5,1.1c0,0.1,0,0.2,0.1,0.3l0.9,0.4c0.1,0,0.1,0.1,0.1,0.2
		c-0.1,0.2-0.1,0.6-0.2,0.9c0,0.1-0.1,0.2-0.2,0.2h-1c-0.1,0-0.2,0.1-0.2,0.2v1.2c0,0.1,0.1,0.2,0.2,0.2h1c0.1,0,0.2,0.1,0.2,0.2
		c0,0.2,0.1,0.7,0.2,0.9c0,0.1,0,0.2-0.1,0.2l-0.9,0.4c-0.1,0-0.1,0.2-0.1,0.3l0.5,1.1c0,0.1,0.2,0.2,0.3,0.1l0.9-0.4
		c0.1,0,0.2,0,0.2,0.1c0.1,0.2,0.3,0.6,0.5,0.7c0.1,0.1,0,0.2,0,0.3l-0.7,0.7c-0.1,0.1-0.1,0.2,0,0.3l0.9,0.9c0.1,0.1,0.2,0.1,0.3,0
		l0.7-0.7c0.1-0.1,0.2-0.1,0.2,0l0.8,0.5c0.1,0.1,0.1,0.2,0.1,0.2L44,46.2c0,0.1,0,0.2,0.1,0.3l1.1,0.5c0.1,0,0.2,0,0.3-0.1l0.4-0.9
		c0-0.1,0.1-0.1,0.2-0.1c0.2,0.1,0.6,0.1,0.9,0.2c0.1,0,0.2,0.1,0.2,0.2v1c0,0.1,0.1,0.2,0.2,0.2h1.2c0.1,0,0.2-0.1,0.2-0.2v-1
		c0-0.1,0.1-0.2,0.2-0.2c0.3,0,0.6-0.1,0.9-0.2c0.1,0,0.2,0,0.2,0.1l0.4,0.9c0,0.1,0.2,0.1,0.3,0.1l1.1-0.5c0.1,0,0.2-0.2,0.1-0.3
		l-0.4-0.9c0-0.1,0-0.2,0.1-0.2c0.3-0.2,0.5-0.3,0.7-0.5c0.1-0.1,0.2-0.1,0.3,0l0.7,0.7c0.1,0.1,0.2,0.1,0.3,0l0.9-0.9
		c0.1-0.1,0.1-0.2,0-0.3l-0.7-0.7c-0.1-0.1-0.1-0.2,0-0.3c0.2-0.2,0.3-0.5,0.5-0.7c0.1-0.1,0.2-0.1,0.2-0.1l0.9,0.4
		c0.1,0,0.2,0,0.3-0.1l0.5-1.1c0-0.1,0-0.2-0.1-0.3l-0.9-0.4c-0.1,0-0.1-0.1-0.1-0.2c0.1-0.3,0.1-0.6,0.2-0.9c0-0.1,0.1-0.2,0.2-0.2
		h1c0.1,0,0.2-0.1,0.2-0.2v-1.2c0-0.1-0.1-0.2-0.2-0.2h-1c-0.1,0-0.2-0.1-0.2-0.2c0-0.3-0.1-0.6-0.2-0.9c0-0.1,0-0.2,0.1-0.2
		l0.9-0.4c0.1,0,0.2-0.2,0.1-0.3l-0.5-1.1c0-0.1-0.2-0.1-0.3-0.1l-0.9,0.4c-0.1,0-0.2,0-0.2-0.1c-0.2-0.3-0.3-0.5-0.5-0.7
		c-0.1-0.1-0.1-0.2,0-0.3l0.7-0.7c0.1-0.1,0.1-0.2,0-0.3l-0.9-0.9c-0.1-0.1-0.2-0.1-0.3,0L52.6,33z M43.1,37.6
		c0.4-1.8,1.9-3.2,3.7-3.7c0.3-0.1,0.7,0.2,0.7,0.5v1c0,0.2-0.1,0.4-0.4,0.5c-0.9,0.3-1.7,1-2,2c-0.1,0.2-0.3,0.4-0.5,0.4h-1
		C43.3,38.2,43,37.9,43.1,37.6z M47.4,43.1c0,0.3-0.3,0.6-0.7,0.5c-1.8-0.4-3.2-1.9-3.7-3.7c-0.1-0.3,0.2-0.7,0.5-0.7h1
		c0.2,0,0.4,0.1,0.5,0.4c0.3,0.9,1,1.7,2,2c0.2,0.1,0.4,0.3,0.4,0.5V43.1z M46.2,38.8c0-1,0.8-1.8,1.8-1.8c1,0,1.8,0.8,1.8,1.8
		c0,1-0.8,1.8-1.8,1.8C47,40.5,46.2,39.8,46.2,38.8z M52.9,40c-0.4,1.8-1.9,3.2-3.7,3.7c-0.3,0.1-0.7-0.2-0.7-0.5v-1
		c0-0.2,0.1-0.4,0.4-0.5c0.9-0.3,1.7-1,2-2c0.1-0.2,0.3-0.4,0.5-0.4h1C52.7,39.3,53,39.7,52.9,40z M52.3,38.2h-1
		c-0.2,0-0.4-0.1-0.5-0.4c-0.3-0.9-1-1.7-2-2c-0.2-0.1-0.4-0.3-0.4-0.5v-1c0-0.3,0.3-0.6,0.7-0.5c1.8,0.4,3.2,1.9,3.7,3.7
		C53,37.9,52.7,38.2,52.3,38.2z"/>
</g>
</svg>
