<?xml version="1.0" encoding="utf-8"?>
<!-- Generator: Adobe Illustrator 18.0.0, SVG Export Plug-In . SVG Version: 6.00 Build 0)  -->
<!DOCTYPE svg PUBLIC "-//W3C//DTD SVG 1.1//EN" "http://www.w3.org/Graphics/SVG/1.1/DTD/svg11.dtd">
<svg version="1.1" id="Layer_1" xmlns="http://www.w3.org/2000/svg" xmlns:xlink="http://www.w3.org/1999/xlink" x="0px" y="0px"
	 viewBox="0 0 64 64" enable-background="new 0 0 64 64" xml:space="preserve">
<g>
	<path fill="#f6fafe" d="M61,8.3h-5.7v3H61v32.2H3V11.3h5.7v-3H3c-1.6,0-3,1.3-3,3v39.2c0,1.7,1.4,3,3,3h18.9v4.8h-4.2
		c-0.8,0-1.5,0.3-2,0.8c-0.5,0.5-0.8,1.2-0.8,2c0,1.6,1.3,2.8,2.8,2.8h28.6c0.8,0,1.5-0.3,2-0.8c0.5-0.5,0.8-1.2,0.8-2
		c0-1.6-1.3-2.8-2.8-2.8h-4.2v-4.8H61c1.7,0,3-1.3,3-3V11.3C64,9.7,62.7,8.3,61,8.3z M6.5,50.5c-1.1,0-2-0.9-2-2c0-1.1,0.9-2,2-2
		s2,0.9,2,2C8.5,49.6,7.6,50.5,6.5,50.5z M13.1,50.5c-1.1,0-2-0.9-2-2c0-1.1,0.9-2,2-2c1.1,0,2,0.9,2,2
		C15.1,49.6,14.3,50.5,13.1,50.5z"/>
	<path fill="#f6fafe" d="M53.3,14.5C53.3,14.5,53.3,14.5,53.3,14.5l0-11.5c0-1.7-1.4-3-3-3H13.7c-1.6,0-3,1.3-3,3v27.4
		c0,1.6,1.4,3,3,3h36.6c1.6,0,3-1.4,3-3v-6.1c0,0,0,0,0-0.1h-3v6.2H13.7V7.7h36.6v6.8H53.3z M16,5.2c-0.8,0-1.4-0.6-1.4-1.4
		c0-0.8,0.6-1.4,1.4-1.4c0.8,0,1.4,0.6,1.4,1.4C17.3,4.6,16.7,5.2,16,5.2z M20.4,5.2c-0.8,0-1.4-0.6-1.4-1.4c0-0.8,0.6-1.4,1.4-1.4
		s1.4,0.6,1.4,1.4C21.8,4.6,21.2,5.2,20.4,5.2z"/>
	<path fill="#f6fafe" d="M60.3,19.7L56.1,24c-0.3,0.3-0.9,0.1-0.9-0.4v-1.4H42.5c-0.3,0-0.5-0.2-0.5-0.5V17c0-0.3,0.2-0.5,0.5-0.5
		h12.8v-1.4c0-0.5,0.5-0.7,0.9-0.4l4.3,4.3C60.5,19.2,60.5,19.5,60.3,19.7z"/>
	<path fill="#f6fafe" d="M31.8,18.6h-0.9c-0.1,0-0.2-0.1-0.2-0.2c0-0.3-0.1-0.5-0.2-0.8c0-0.1,0-0.2,0.1-0.2l0.8-0.3
		c0.1,0,0.1-0.1,0.1-0.2l-0.4-1.1c0-0.1-0.2-0.1-0.2-0.1L30,16c-0.1,0-0.2,0-0.2-0.1c-0.1-0.2-0.3-0.5-0.5-0.7
		c-0.1-0.1-0.1-0.2,0-0.2l0.6-0.6c0.1-0.1,0.1-0.2,0-0.3l-0.8-0.8c-0.1-0.1-0.2-0.1-0.3,0l-0.6,0.6c-0.1,0.1-0.2,0.1-0.2,0l-0.7-0.5
		c-0.1,0-0.1-0.1-0.1-0.2l0.4-0.8c0-0.1,0-0.2-0.1-0.2l-1.1-0.4c-0.1,0-0.2,0-0.2,0.1l-0.3,0.8c0,0.1-0.1,0.1-0.2,0.1
		c-0.2-0.1-0.6-0.1-0.8-0.2c-0.1,0-0.2-0.1-0.2-0.2v-0.9c0-0.1-0.1-0.2-0.2-0.2h-1.1c-0.1,0-0.2,0.1-0.2,0.2v0.9
		c0,0.1-0.1,0.2-0.2,0.2c-0.3,0-0.6,0.1-0.8,0.2c-0.1,0-0.2,0-0.2-0.1l-0.4-0.8c0-0.1-0.1-0.1-0.2-0.1l-1.1,0.4
		c-0.1,0-0.1,0.2-0.1,0.2l0.4,0.8c0,0.1,0,0.2-0.1,0.2L19.9,14c-0.1,0-0.2,0-0.2,0L19,13.3c-0.1-0.1-0.2-0.1-0.3,0l-0.8,0.8
		c-0.1,0.1-0.1,0.2,0,0.3l0.6,0.6c0.1,0.1,0.1,0.2,0,0.2c-0.2,0.2-0.3,0.4-0.5,0.7c0,0.1-0.1,0.1-0.2,0.1L17,15.6
		c-0.1,0-0.2,0-0.2,0.1l-0.4,1.1c0,0.1,0,0.2,0.1,0.2l0.8,0.3c0.1,0,0.1,0.1,0.1,0.2c0,0.2-0.1,0.6-0.2,0.8c0,0.1-0.1,0.2-0.2,0.2
		h-0.9c-0.1,0-0.2,0.1-0.2,0.2v1.1c0,0.1,0.1,0.2,0.2,0.2h0.9c0.1,0,0.2,0.1,0.2,0.2c0,0.2,0.1,0.6,0.2,0.8c0,0.1,0,0.2-0.1,0.2
		l-0.8,0.3c-0.1,0-0.1,0.2-0.1,0.2l0.4,1c0,0.1,0.1,0.1,0.2,0.1l0.8-0.3c0.1,0,0.2,0,0.2,0.1c0.1,0.2,0.3,0.5,0.5,0.7
		c0.1,0.1,0,0.2,0,0.2l-0.6,0.6c-0.1,0.1-0.1,0.2,0,0.3l0.8,0.8c0.1,0.1,0.2,0.1,0.3,0l0.6-0.6c0.1-0.1,0.2-0.1,0.2,0l0.7,0.5
		c0.1,0.1,0.1,0.1,0.1,0.2l-0.4,0.8c0,0.1,0,0.2,0.1,0.2l1.1,0.4c0.1,0,0.2,0,0.2-0.1L22,26c0-0.1,0.1-0.1,0.2-0.1
		c0.2,0,0.6,0.1,0.8,0.2c0.1,0,0.2,0.1,0.2,0.2v0.9c0,0.1,0.1,0.2,0.2,0.2h1.1c0.1,0,0.2-0.1,0.2-0.2v-0.9c0-0.1,0.1-0.2,0.2-0.2
		c0.3,0,0.6-0.1,0.8-0.2c0.1,0,0.2,0,0.2,0.1l0.3,0.8c0,0.1,0.1,0.1,0.2,0.1l1.1-0.4c0.1,0,0.1-0.2,0.1-0.2l-0.4-0.8
		c0-0.1,0-0.2,0.1-0.2c0.2-0.1,0.5-0.3,0.7-0.5c0.1-0.1,0.2,0,0.2,0l0.6,0.6c0.1,0.1,0.2,0.1,0.3,0l0.8-0.8c0.1-0.1,0.1-0.2,0-0.3
		l-0.6-0.6c-0.1-0.1-0.1-0.2,0-0.2c0.2-0.2,0.3-0.4,0.5-0.7c0-0.1,0.1-0.1,0.2-0.1l0.8,0.3c0.1,0,0.2,0,0.2-0.1l0.4-1
		c0-0.1,0-0.2-0.1-0.2l-0.8-0.3c-0.1,0-0.1-0.1-0.1-0.2c0.1-0.3,0.1-0.5,0.2-0.8c0-0.1,0.1-0.2,0.2-0.2h0.9c0.1,0,0.2-0.1,0.2-0.2
		v-1.1C32,18.7,31.9,18.6,31.8,18.6z M24,23.4c-2.3,0-4.1-1.8-4.1-4.1c0-2.3,1.8-4.1,4.1-4.1s4.1,1.8,4.1,4.1
		C28.1,21.6,26.2,23.4,24,23.4z"/>
</g>
</svg>
