<?xml version="1.0" encoding="utf-8"?>
<!-- Generator: Adobe Illustrator 18.0.0, SVG Export Plug-In . SVG Version: 6.00 Build 0)  -->
<!DOCTYPE svg PUBLIC "-//W3C//DTD SVG 1.1//EN" "http://www.w3.org/Graphics/SVG/1.1/DTD/svg11.dtd">
<svg version="1.1" id="Layer_1" xmlns="http://www.w3.org/2000/svg" xmlns:xlink="http://www.w3.org/1999/xlink" x="0px" y="0px"
	 viewBox="0 0 64 64" enable-background="new 0 0 64 64" xml:space="preserve">
<g>
	<path fill="#7a029f" d="M47.6,40v10.9H2.2V23.7c0-1.1,0.9-2,2-2h19.6c-0.3-0.7-0.4-1.4-0.5-2.2H4.2c-2.3,0-4.2,1.9-4.2,4.2v31.4
		c0,2.3,1.9,4.2,4.2,4.2h15.4v1.8h-4c-0.8,0-1.5,0.6-1.5,1.4c0,0.8,0.7,1.4,1.5,1.4h18.7c0.8,0,1.4-0.7,1.4-1.4
		c0-0.8-0.6-1.4-1.4-1.4h-4.1v-1.8h15.4c2.3,0,4.2-1.9,4.2-4.2V38C49.2,38.8,48.5,39.5,47.6,40z M24.9,56.9c-1,0-1.8-0.8-1.8-1.8
		c0-1,0.8-1.8,1.8-1.8c1,0,1.8,0.8,1.8,1.8C26.7,56.1,25.9,56.9,24.9,56.9z"/>
	<g>
		<g>
			<g>
				<path fill="#7a029f" d="M53.3,18L52,17.8c-0.2,0-0.4-0.2-0.4-0.4c-0.2-0.6-0.4-1.1-0.7-1.6c-0.1-0.2-0.1-0.4,0-0.6l0.8-1.1
					c0.2-0.2,0.1-0.5,0-0.7l-1.2-1.2c-0.2-0.2-0.5-0.2-0.7,0l-1.1,0.8c-0.2,0.1-0.4,0.1-0.6,0c-0.5-0.3-1-0.5-1.6-0.7
					c-0.2-0.1-0.4-0.2-0.4-0.4L46,10.7c0-0.3-0.3-0.4-0.5-0.4h-1.7c-0.3,0-0.5,0.2-0.5,0.4L43.1,12c0,0.2-0.2,0.4-0.4,0.4
					c-0.6,0.2-1.1,0.4-1.6,0.7c-0.2,0.1-0.4,0.1-0.6,0l-1.1-0.8c-0.2-0.2-0.5-0.1-0.7,0l-1.2,1.2c-0.2,0.2-0.2,0.5,0,0.7l0.8,1.1
					c0.1,0.2,0.1,0.4,0,0.6c-0.3,0.5-0.5,1-0.7,1.6c-0.1,0.2-0.2,0.4-0.4,0.4L36,18c-0.3,0-0.4,0.3-0.4,0.5v1.7
					c0,0.3,0.2,0.5,0.4,0.5l1.3,0.2c0.2,0,0.4,0.2,0.4,0.4c0.2,0.6,0.4,1.1,0.7,1.6c0.1,0.2,0.1,0.4,0,0.6l-0.8,1.1
					c-0.2,0.2-0.1,0.5,0,0.7l1.2,1.2c0.2,0.2,0.5,0.2,0.7,0l1.1-0.8c0.2-0.1,0.4-0.1,0.6,0c0.5,0.3,1,0.5,1.6,0.7
					c0.2,0.1,0.4,0.2,0.4,0.4l0.2,1.3c0,0.3,0.3,0.4,0.5,0.4h1.7c0.3,0,0.5-0.2,0.5-0.4l0.2-1.3c0-0.2,0.2-0.4,0.4-0.4
					c0.6-0.2,1.1-0.4,1.6-0.7c0.2-0.1,0.4-0.1,0.6,0l1.1,0.8c0.2,0.2,0.5,0.1,0.7,0l1.2-1.2c0.2-0.2,0.2-0.5,0-0.7l-0.8-1.1
					c-0.1-0.2-0.1-0.4,0-0.6c0.3-0.5,0.5-1,0.7-1.6c0.1-0.2,0.2-0.4,0.4-0.4l1.3-0.2c0.3,0,0.4-0.3,0.4-0.5v-1.7
					C53.8,18.3,53.6,18,53.3,18z M44.6,23.9c-2.5,0-4.5-2-4.5-4.5c0-2.5,2-4.5,4.5-4.5c2.5,0,4.5,2,4.5,4.5
					C49.1,21.8,47.1,23.9,44.6,23.9z"/>
			</g>
		</g>
		<g>
			<path fill="#7a029f" d="M50,3.8c0,0.1,0,0.3,0,0.4c0,0.9-0.2,1.7-0.6,2.4c3.7,1.4,6.6,4.3,7.9,8c0.7-0.4,1.6-0.6,2.5-0.6
				c0.1,0,0.3,0,0.4,0C58.5,9.3,54.7,5.5,50,3.8z M39.3,4.2c0-0.1,0-0.3,0-0.4C34.5,5.5,30.7,9.2,29.1,14c0.1,0,0.3,0,0.4,0
				c0.9,0,1.7,0.2,2.5,0.6c1.4-3.7,4.3-6.6,7.9-8C39.5,5.9,39.3,5.1,39.3,4.2z M59.8,24.7c-0.9,0-1.7-0.2-2.5-0.6
				c-1.4,3.7-4.3,6.6-7.9,8c0.4,0.7,0.6,1.6,0.6,2.5c0,0.1,0,0.3,0,0.4c4.8-1.6,8.6-5.4,10.2-10.2C60,24.7,59.9,24.7,59.8,24.7z
				 M31.9,24.1c-0.7,0.4-1.6,0.6-2.5,0.6c-0.1,0-0.3,0-0.4,0c1.6,4.8,5.4,8.6,10.2,10.2c0-0.1,0-0.3,0-0.4c0-0.9,0.2-1.7,0.6-2.5
				C36.2,30.7,33.3,27.8,31.9,24.1z"/>
		</g>
		<path fill="#7a029f" d="M44.2,33.1c0.1-0.1,0.2-0.2,0.3-0.2v1c-0.1-0.1-0.2-0.1-0.3-0.2c-0.1-0.1-0.1-0.2-0.1-0.3
			C44.1,33.2,44.1,33.1,44.2,33.1z"/>
		<path fill="#7a029f" d="M45.2,35c0.1,0.1,0.1,0.2,0.1,0.3c0,0.1,0,0.3-0.1,0.4c-0.1,0.1-0.2,0.2-0.4,0.2v-1.1
			C45,34.8,45.1,34.9,45.2,35z"/>
		<path fill="#7a029f" d="M44.6,30.3c-2.3,0-4.2,1.9-4.2,4.2c0,2.3,1.9,4.2,4.2,4.2c2.3,0,4.2-1.9,4.2-4.2
			C48.9,32.2,47,30.3,44.6,30.3z M45.7,36.1c-0.2,0.2-0.5,0.4-0.9,0.4v0.5h-0.4v-0.5c-0.3,0-0.6-0.2-0.8-0.4
			c-0.2-0.2-0.3-0.5-0.4-0.9l0.8-0.1c0,0.2,0.1,0.3,0.2,0.4c0.1,0.1,0.2,0.2,0.3,0.2v-1.2c-0.4-0.1-0.6-0.3-0.8-0.5
			c-0.2-0.2-0.3-0.5-0.3-0.8c0-0.3,0.1-0.6,0.3-0.8c0.2-0.2,0.5-0.3,0.8-0.4v-0.3h0.4v0.3c0.3,0,0.5,0.1,0.7,0.3
			c0.2,0.2,0.3,0.4,0.3,0.7l-0.7,0.1c0-0.2-0.2-0.4-0.3-0.5V34c0.5,0.1,0.8,0.3,0.9,0.5c0.2,0.2,0.3,0.5,0.3,0.8
			C46,35.6,45.9,35.9,45.7,36.1z"/>
		<path fill="#7a029f" d="M44.2,2.7c0.1-0.1,0.2-0.2,0.3-0.2v1c-0.1-0.1-0.2-0.1-0.3-0.2c-0.1-0.1-0.1-0.2-0.1-0.3
			C44.1,2.9,44.1,2.8,44.2,2.7z"/>
		<path fill="#7a029f" d="M45.2,4.7c0.1,0.1,0.1,0.2,0.1,0.3c0,0.1,0,0.3-0.1,0.4c-0.1,0.1-0.2,0.2-0.4,0.2V4.5
			C45,4.5,45.1,4.6,45.2,4.7z"/>
		<path fill="#7a029f" d="M44.6,0c-2.3,0-4.2,1.9-4.2,4.2c0,2.3,1.9,4.2,4.2,4.2c2.3,0,4.2-1.9,4.2-4.2C48.9,1.9,47,0,44.6,0z
			 M45.7,5.8c-0.2,0.2-0.5,0.4-0.9,0.4v0.5h-0.4V6.2c-0.3,0-0.6-0.2-0.8-0.4c-0.2-0.2-0.3-0.5-0.4-0.9L44,4.9c0,0.1,0.1,0.3,0.2,0.4
			c0.1,0.1,0.2,0.2,0.3,0.2V4.4c-0.4-0.1-0.6-0.3-0.8-0.5c-0.2-0.2-0.3-0.5-0.3-0.8c0-0.3,0.1-0.6,0.3-0.8c0.2-0.2,0.5-0.3,0.8-0.4
			V1.6h0.4v0.3c0.3,0,0.5,0.1,0.7,0.3c0.2,0.2,0.3,0.4,0.3,0.7L45.2,3c0-0.2-0.2-0.4-0.3-0.5v1.1c0.5,0.1,0.8,0.3,0.9,0.5
			C46,4.4,46,4.6,46,4.9C46,5.3,45.9,5.6,45.7,5.8z"/>
		<path fill="#7a029f" d="M29,17.9c0.1-0.1,0.2-0.1,0.3-0.2v1c-0.1,0-0.2-0.1-0.3-0.2c-0.1-0.1-0.1-0.2-0.1-0.3
			C28.9,18.1,29,18,29,17.9z"/>
		<path fill="#7a029f" d="M30.1,19.9c0.1,0.1,0.1,0.2,0.1,0.3c0,0.1,0,0.3-0.1,0.4c-0.1,0.1-0.2,0.2-0.4,0.2v-1.1
			C29.9,19.7,30,19.8,30.1,19.9z"/>
		<path fill="#7a029f" d="M29.5,15.1c-2.3,0-4.2,1.9-4.2,4.2c0,2.3,1.9,4.2,4.2,4.2s4.2-1.9,4.2-4.2C33.7,17,31.8,15.1,29.5,15.1z
			 M30.6,20.9c-0.2,0.2-0.5,0.4-0.9,0.4v0.5h-0.4v-0.5c-0.3,0-0.6-0.2-0.8-0.4c-0.2-0.2-0.3-0.5-0.4-0.9l0.7-0.1
			c0,0.1,0.1,0.3,0.2,0.4c0.1,0.1,0.2,0.2,0.3,0.2v-1.2c-0.4-0.1-0.6-0.3-0.8-0.5c-0.2-0.2-0.3-0.5-0.3-0.8c0-0.3,0.1-0.6,0.3-0.8
			c0.2-0.2,0.5-0.3,0.8-0.4v-0.3h0.4v0.3c0.3,0,0.5,0.1,0.7,0.3c0.2,0.2,0.3,0.4,0.3,0.7L30,18.2c0-0.2-0.2-0.4-0.4-0.5v1.1
			c0.5,0.1,0.8,0.3,0.9,0.5c0.2,0.2,0.3,0.4,0.3,0.8C30.9,20.4,30.8,20.7,30.6,20.9z"/>
		<path fill="#7a029f" d="M59.3,17.9c0.1-0.1,0.2-0.1,0.3-0.2v1c-0.1,0-0.2-0.1-0.3-0.2c-0.1-0.1-0.1-0.2-0.1-0.3
			C59.2,18.1,59.2,18,59.3,17.9z"/>
		<path fill="#7a029f" d="M60.4,19.8c0.1,0.1,0.1,0.2,0.1,0.3c0,0.1,0,0.3-0.1,0.4c-0.1,0.1-0.2,0.2-0.4,0.2v-1.1
			C60.2,19.7,60.3,19.8,60.4,19.8z"/>
		<path fill="#7a029f" d="M59.8,15.1c-2.3,0-4.2,1.9-4.2,4.2c0,2.3,1.9,4.2,4.2,4.2c2.3,0,4.2-1.9,4.2-4.2
			C64,17,62.1,15.1,59.8,15.1z M60.9,20.9c-0.2,0.2-0.5,0.4-0.9,0.4v0.5h-0.4v-0.5c-0.3,0-0.6-0.2-0.8-0.4c-0.2-0.2-0.3-0.5-0.4-0.9
			l0.8-0.1c0,0.1,0.1,0.3,0.2,0.4c0.1,0.1,0.2,0.2,0.3,0.2v-1.2c-0.4-0.1-0.6-0.3-0.8-0.5c-0.2-0.2-0.3-0.5-0.3-0.8
			c0-0.3,0.1-0.6,0.3-0.8c0.2-0.2,0.5-0.3,0.8-0.4v-0.3H60v0.3c0.3,0,0.5,0.1,0.7,0.3c0.2,0.2,0.3,0.4,0.3,0.7l-0.7,0.1
			c0-0.2-0.2-0.4-0.4-0.5v1.1c0.5,0.1,0.8,0.3,0.9,0.5c0.2,0.2,0.2,0.4,0.2,0.8C61.2,20.4,61.1,20.7,60.9,20.9z"/>
	</g>
</g>
</svg>
