<?xml version="1.0" encoding="utf-8"?>
<!-- Generator: Adobe Illustrator 18.0.0, SVG Export Plug-In . SVG Version: 6.00 Build 0)  -->
<!DOCTYPE svg PUBLIC "-//W3C//DTD SVG 1.1//EN" "http://www.w3.org/Graphics/SVG/1.1/DTD/svg11.dtd">
<svg version="1.1" id="Layer_1" xmlns="http://www.w3.org/2000/svg" xmlns:xlink="http://www.w3.org/1999/xlink" x="0px" y="0px"
	 viewBox="0 0 64 64" enable-background="new 0 0 64 64" xml:space="preserve">
<g>
	<g>
		<g>
			<path fill="#fff" d="M62,47.8c0,0.8-0.4,1.5-1,1.9c-5.4,3.9-17.1,9-23.1,12c-3.6,1.8-5.6,1.4-13.8,1.4c-3.2,0-6.5-0.4-9.6-1.1
				l-1.7-0.4V46.8c2.6-1.2,5.5-1.9,8.3-1.9c2.2,0,4.4,0.4,6.5,1.1l0,0c3.5,1.3,6,0.6,9.6,0c1.4-0.2,2.8,0.6,3.3,2
				c0.1,0.3,0.1,0.6,0.1,0.9c0,1.3-0.9,2.5-2.2,2.9c-2,0.5-6.2,1.8-11.8,0.4c-0.1,0-0.1,0-0.2,0c-0.3,0-0.6,0.2-0.7,0.5
				c0,0.1,0,0.2,0,0.2c0,0.3,0.2,0.6,0.6,0.7c4.7,1,8.3,0.6,12.3-0.3c3.2-0.8,12.4-3.7,15.4-5.3l4.5-2.4c1.2-0.7,2.8-0.1,3.3,1.2
				C61.9,47.1,62,47.4,62,47.8z"/>
			<path fill="#fff" d="M10.9,46v17c0,0.6-0.5,1.1-1.1,1.1H3.1C2.5,64,2,63.5,2,62.9V46c0-0.6,0.5-1.1,1.1-1.1h6.8
				C10.5,44.9,10.9,45.4,10.9,46z"/>
		</g>
		<g>
			<path fill="#fff" d="M17.6,27.5v1.4c-0.2-0.1-0.3-0.2-0.4-0.3c-0.1-0.1-0.1-0.3-0.1-0.4c0-0.2,0-0.3,0.1-0.4
				C17.3,27.7,17.5,27.6,17.6,27.5z"/>
			<path fill="#fff" d="M18.7,30.5c0.1,0.1,0.2,0.3,0.2,0.5c0,0.2-0.1,0.4-0.2,0.5c-0.1,0.1-0.3,0.2-0.5,0.3v-1.6
				C18.4,30.3,18.6,30.4,18.7,30.5z"/>
			<g>
				<path fill="#fff" d="M26.2,25.3c-0.1,0-0.3,0-0.3-0.1c-0.2-0.3-0.4-0.6-0.6-0.9c-0.1-0.1-0.1-0.2,0-0.3l0.9-0.9
					c0.1-0.1,0.1-0.3,0-0.4l-1.1-1.1c-0.1-0.1-0.3-0.1-0.4,0l-0.9,0.9c-0.1,0.1-0.2,0.1-0.3,0l-1-0.7c-0.1-0.1-0.1-0.2-0.1-0.3
					l0.5-1.2c0.1-0.1,0-0.3-0.1-0.3l-1.4-0.6c-0.1-0.1-0.3,0-0.3,0.1l-0.5,1.1c0,0.1-0.2,0.2-0.3,0.2c-0.3-0.1-0.8-0.2-1.1-0.2
					c-0.1,0-0.2-0.1-0.2-0.2v-1.2c0-0.2-0.1-0.3-0.3-0.3h-1.6c-0.1,0-0.3,0.1-0.3,0.3v1.2c0,0.1-0.1,0.2-0.2,0.2
					c-0.4,0.1-0.8,0.1-1.1,0.2c-0.1,0-0.2,0-0.3-0.2l-0.5-1.1c0-0.1-0.2-0.2-0.3-0.1L13,20c-0.1,0.1-0.2,0.2-0.1,0.3l0.5,1.2
					c0,0.1,0,0.2-0.1,0.3l-1,0.7c-0.1,0.1-0.2,0-0.3,0l-0.9-0.9c-0.1-0.1-0.3-0.1-0.4,0l-1.1,1.1c-0.1,0.1-0.1,0.3,0,0.4l0.9,0.9
					c0.1,0.1,0.1,0.2,0,0.3c-0.2,0.3-0.4,0.6-0.6,0.9c-0.1,0.1-0.2,0.2-0.3,0.1l-1.1-0.5c-0.1,0-0.3,0-0.3,0.1l-0.6,1.4
					c-0.1,0.1,0,0.3,0.1,0.3l1.1,0.5c0.1,0,0.2,0.2,0.1,0.3c-0.1,0.3-0.2,0.8-0.2,1.1c0,0.1-0.1,0.2-0.3,0.2H7.2
					c-0.1,0-0.3,0.1-0.3,0.3v1.6c0,0.1,0.1,0.3,0.3,0.3h1.2c0.1,0,0.2,0.1,0.3,0.2c0,0.3,0.2,0.8,0.2,1.1c0,0.1,0,0.2-0.2,0.3
					L7.7,33c-0.1,0.1-0.2,0.2-0.1,0.3l0.6,1.4c0.1,0.1,0.2,0.2,0.3,0.1l1.2-0.5c0.1,0,0.2,0,0.3,0.1c0.2,0.3,0.4,0.7,0.6,1
					c0.1,0.1,0.1,0.3,0,0.3l-0.9,0.9c-0.1,0.1-0.1,0.3,0,0.3l1.1,1.1c0.1,0.1,0.3,0.1,0.4,0l0.9-0.9c0.1-0.1,0.2-0.1,0.3,0l1,0.6
					c0.1,0.1,0.1,0.2,0.1,0.3l-0.5,1.2c-0.1,0.1,0,0.3,0.1,0.3l1.4,0.6c0.1,0,0.3,0,0.3-0.1l0.5-1.2c0.1-0.1,0.2-0.2,0.3-0.1
					c0.3,0.1,0.8,0.2,1.1,0.2c0.1,0,0.2,0.1,0.2,0.3v1.2c0,0.1,0.1,0.2,0.3,0.2h1.6c0.1,0,0.3-0.1,0.3-0.2v-1.2
					c0-0.1,0.1-0.2,0.2-0.3c0.4,0,0.8-0.1,1.1-0.2c0.1,0,0.2,0,0.3,0.1l0.5,1.2c0.1,0.1,0.2,0.2,0.3,0.1l1.4-0.6
					c0.1-0.1,0.2-0.2,0.1-0.3l-0.5-1.1c0-0.1,0-0.3,0.1-0.3c0.3-0.2,0.6-0.4,0.9-0.6c0.1-0.1,0.2-0.1,0.3,0l0.9,0.9
					c0.1,0.1,0.3,0.1,0.4,0l1.1-1.1c0.1-0.1,0.1-0.3,0-0.3l-0.9-0.9c-0.1-0.1-0.1-0.2,0-0.3c0.2-0.3,0.4-0.6,0.6-0.9
					c0.1-0.1,0.2-0.2,0.3-0.1l1.1,0.5c0.1,0.1,0.3,0,0.3-0.1l0.6-1.4c0.1-0.1,0-0.3-0.1-0.3L27,32.5c-0.1,0-0.2-0.2-0.2-0.3
					c0.1-0.3,0.2-0.7,0.2-1.1c0-0.1,0.1-0.2,0.3-0.2h1.2c0.1,0,0.3-0.1,0.3-0.3v-1.6c0-0.1-0.1-0.3-0.3-0.3h-1.2
					c-0.1,0-0.2-0.1-0.3-0.2c-0.1-0.4-0.1-0.7-0.2-1.1c0-0.1,0-0.2,0.2-0.3l1.1-0.5c0.1-0.1,0.2-0.2,0.1-0.3l-0.6-1.4
					c-0.1-0.1-0.2-0.2-0.3-0.1L26.2,25.3z M17.9,36.7c-3.8,0-6.8-3.1-6.8-6.8c0-3.8,3.1-6.8,6.8-6.8s6.8,3.1,6.8,6.8
					C24.7,33.6,21.7,36.7,17.9,36.7z"/>
				<path fill="#fff" d="M17.9,24.8c-2.8,0-5,2.3-5,5c0,2.8,2.3,5,5,5s5-2.3,5-5C22.9,27.1,20.7,24.8,17.9,24.8z M19.4,32.1
					c-0.3,0.3-0.7,0.5-1.2,0.6v0.8h-0.6v-0.7c-0.5-0.1-0.8-0.2-1.1-0.5c-0.3-0.3-0.5-0.7-0.6-1.2l1-0.1c0,0.2,0.1,0.4,0.2,0.6
					c0.1,0.2,0.2,0.3,0.4,0.3v-1.7c-0.5-0.1-0.9-0.4-1.2-0.7c-0.2-0.3-0.4-0.7-0.4-1.1c0-0.4,0.1-0.8,0.4-1.1
					c0.3-0.3,0.6-0.5,1.1-0.5v-0.4h0.6v0.4c0.4,0.1,0.8,0.2,1,0.4c0.3,0.2,0.4,0.6,0.5,1l-1,0.1c-0.1-0.3-0.2-0.5-0.5-0.6v1.6
					c0.6,0.2,1.1,0.4,1.3,0.7c0.2,0.3,0.4,0.6,0.4,1.1C19.9,31.3,19.7,31.7,19.4,32.1z"/>
			</g>
		</g>
		<path fill="#fff" d="M54.2,9c-0.2,0.1-0.4,0-0.4-0.2c-0.3-0.5-0.6-0.9-0.9-1.3c-0.1-0.1-0.1-0.3,0-0.5l1.3-1.2
			c0.1-0.1,0.1-0.4,0-0.5l-1.6-1.6c-0.1-0.1-0.4-0.1-0.5,0L50.8,5c-0.1,0.1-0.3,0.1-0.5,0.1L49,4.1c-0.2-0.1-0.2-0.3-0.1-0.4L49.6,2
			c0.1-0.2,0-0.4-0.2-0.5l-2-0.8c-0.2-0.1-0.4,0-0.5,0.2l-0.7,1.6c-0.1,0.2-0.2,0.2-0.4,0.2c-0.4-0.1-1.1-0.3-1.6-0.3
			c-0.2,0-0.3-0.2-0.3-0.3V0.4c0-0.2-0.2-0.4-0.4-0.4h-2.2c-0.2,0-0.4,0.1-0.4,0.4v1.7c0,0.2-0.1,0.3-0.3,0.3
			c-0.5,0.1-1.1,0.2-1.6,0.3c-0.2,0-0.3-0.1-0.4-0.2l-0.7-1.6c-0.1-0.2-0.3-0.3-0.5-0.2l-2,0.8c-0.2,0.1-0.3,0.3-0.2,0.5l0.7,1.6
			c0.1,0.2,0,0.3-0.1,0.4l-1.4,0.9C34.3,5.1,34.1,5.1,34,5l-1.3-1.3c-0.1-0.1-0.4-0.1-0.5,0l-1.6,1.6c-0.1,0.1-0.1,0.4,0,0.5
			l1.2,1.2c0.1,0.1,0.1,0.3,0,0.5C31.6,8,31.3,8.4,31,8.9C30.9,9,30.7,9.1,30.6,9l-1.6-0.7c-0.2-0.1-0.4,0-0.5,0.2l-0.9,2.1
			c-0.1,0.2,0,0.4,0.2,0.5l1.6,0.7c0.2,0.1,0.2,0.2,0.2,0.4c-0.1,0.4-0.2,1.1-0.3,1.6c0,0.2-0.2,0.3-0.4,0.3h-1.8
			c-0.2,0-0.4,0.2-0.4,0.4v2.2c0,0.2,0.2,0.4,0.4,0.4H29c0.2,0,0.3,0.1,0.4,0.3c0.1,0.4,0.2,1.2,0.3,1.6c0,0.2-0.1,0.3-0.2,0.4
			l-1.6,0.7c-0.2,0.1-0.3,0.3-0.2,0.5l0.9,2c0.1,0.2,0.3,0.3,0.5,0.2l1.6-0.7c0.1-0.1,0.3,0,0.4,0.1c0.2,0.4,0.6,1,0.9,1.4
			c0.1,0.1,0.1,0.4,0,0.5l-1.2,1.3c-0.1,0.1-0.1,0.4,0,0.5l1.6,1.6c0.1,0.1,0.4,0.1,0.5,0L34,26c0.1-0.1,0.3-0.1,0.4,0l1.4,0.9
			c0.1,0.1,0.2,0.3,0.1,0.4l-0.7,1.6c-0.1,0.2,0,0.4,0.2,0.5l2,0.8c0.2,0.1,0.4,0,0.5-0.2l0.7-1.6c0.1-0.2,0.2-0.2,0.4-0.2
			c0.4,0.1,1.1,0.3,1.6,0.3c0.2,0,0.3,0.2,0.3,0.4v1.8c0,0.2,0.2,0.3,0.4,0.3h2.2c0.2,0,0.4-0.2,0.4-0.3v-1.8c0-0.2,0.1-0.3,0.3-0.4
			c0.5-0.1,1.1-0.2,1.6-0.3c0.2-0.1,0.3,0,0.4,0.2l0.7,1.6c0.1,0.2,0.3,0.2,0.5,0.2l2-0.8c0.2-0.1,0.3-0.3,0.2-0.5l-0.7-1.6
			c-0.1-0.2,0-0.4,0.2-0.4c0.5-0.3,0.9-0.6,1.3-0.9c0.1-0.1,0.3-0.1,0.5,0l1.3,1.2c0.1,0.1,0.4,0.1,0.5,0l1.6-1.6
			c0.1-0.1,0.1-0.4,0-0.5l-1.3-1.3c-0.1-0.1-0.1-0.3,0-0.5c0.3-0.4,0.6-0.9,0.9-1.3c0.1-0.2,0.3-0.2,0.4-0.2l1.6,0.7
			c0.2,0.1,0.4,0,0.5-0.2l0.8-2c0.1-0.2,0-0.4-0.2-0.5l-1.6-0.7c-0.2-0.1-0.2-0.2-0.2-0.4c0.1-0.5,0.2-1,0.3-1.6
			c0-0.2,0.2-0.3,0.4-0.3h1.8c0.2,0,0.4-0.2,0.4-0.4v-2.2c0-0.2-0.2-0.4-0.4-0.4h-1.8c-0.2,0-0.3-0.1-0.4-0.3
			c-0.1-0.5-0.2-1.1-0.3-1.6c0-0.2,0.1-0.3,0.2-0.4l1.6-0.7c0.2-0.1,0.3-0.3,0.2-0.5l-0.8-2.1c-0.1-0.2-0.3-0.3-0.5-0.2L54.2,9z
			 M42.4,25.2c-5.4,0-9.7-4.3-9.7-9.7c0-5.4,4.3-9.7,9.7-9.7s9.7,4.4,9.7,9.7C52.1,20.9,47.7,25.2,42.4,25.2z"/>
		<g>
			<path fill="#fff" d="M59.4,38h-0.9c-0.1,0-0.2-0.1-0.2-0.2c0-0.3-0.1-0.5-0.2-0.8c0-0.1,0-0.2,0.1-0.2l0.8-0.3
				c0.1,0,0.1-0.1,0.1-0.2l-0.4-1c0-0.1-0.1-0.1-0.2-0.1l-0.8,0.3c-0.1,0-0.2,0-0.2-0.1c-0.1-0.2-0.3-0.4-0.4-0.7
				c-0.1-0.1-0.1-0.2,0-0.2l0.6-0.6c0.1-0.1,0.1-0.2,0-0.3l-0.8-0.8c-0.1-0.1-0.2-0.1-0.3,0l-0.6,0.6c-0.1,0.1-0.2,0.1-0.2,0
				l-0.7-0.5c-0.1,0-0.1-0.1-0.1-0.2l0.3-0.8c0-0.1,0-0.2-0.1-0.2l-1-0.4c-0.1,0-0.2,0-0.2,0.1l-0.3,0.8c0,0.1-0.1,0.1-0.2,0.1
				c-0.2-0.1-0.6-0.1-0.8-0.2c-0.1,0-0.2-0.1-0.2-0.2v-0.9c0-0.1-0.1-0.2-0.2-0.2h-1.1c-0.1,0-0.2,0.1-0.2,0.2v0.9
				c0,0.1-0.1,0.2-0.1,0.2c-0.3,0-0.5,0.1-0.8,0.2c-0.1,0-0.2,0-0.2-0.1l-0.3-0.8c0-0.1-0.1-0.1-0.2-0.1l-1,0.4
				c-0.1,0-0.1,0.1-0.1,0.2l0.3,0.8c0,0.1,0,0.2-0.1,0.2L48,33.5c-0.1,0-0.2,0-0.2,0l-0.6-0.6c-0.1-0.1-0.2-0.1-0.3,0l-0.8,0.8
				c-0.1,0.1-0.1,0.2,0,0.3l0.6,0.6c0.1,0.1,0.1,0.2,0,0.2c-0.2,0.2-0.3,0.4-0.4,0.7c0,0.1-0.1,0.1-0.2,0.1l-0.8-0.3
				c-0.1,0-0.2,0-0.2,0.1l-0.4,1c0,0.1,0,0.2,0.1,0.2l0.8,0.3c0.1,0,0.1,0.1,0.1,0.2c0,0.2-0.1,0.6-0.2,0.8c0,0.1-0.1,0.2-0.2,0.2
				h-0.9c-0.1,0-0.2,0.1-0.2,0.2v1.1c0,0.1,0.1,0.2,0.2,0.2h0.9c0.1,0,0.2,0.1,0.2,0.2c0,0.2,0.1,0.6,0.2,0.8c0,0.1,0,0.2-0.1,0.2
				l-0.8,0.3c-0.1,0-0.1,0.1-0.1,0.2l0.4,1c0,0.1,0.1,0.1,0.2,0.1l0.8-0.3c0.1,0,0.2,0,0.2,0.1c0.1,0.2,0.3,0.5,0.4,0.7
				c0.1,0.1,0,0.2,0,0.2l-0.6,0.6c-0.1,0.1-0.1,0.2,0,0.2l0.8,0.8c0.1,0.1,0.2,0.1,0.3,0l0.6-0.6c0.1-0.1,0.1-0.1,0.2,0l0.7,0.4
				c0.1,0.1,0.1,0.1,0.1,0.2l-0.3,0.8c0,0.1,0,0.2,0.1,0.2l1,0.4c0.1,0,0.2,0,0.2-0.1l0.3-0.8c0-0.1,0.1-0.1,0.2-0.1
				c0.2,0,0.6,0.1,0.8,0.2c0.1,0,0.1,0.1,0.1,0.2v0.9c0,0.1,0.1,0.2,0.2,0.2h1.1c0.1,0,0.2-0.1,0.2-0.2v-0.9c0-0.1,0.1-0.2,0.2-0.2
				c0.3,0,0.5-0.1,0.8-0.1c0.1,0,0.2,0,0.2,0.1l0.3,0.8c0,0.1,0.1,0.1,0.2,0.1l1-0.4c0.1,0,0.1-0.1,0.1-0.2l-0.3-0.8
				c0-0.1,0-0.2,0.1-0.2c0.2-0.1,0.5-0.3,0.7-0.4c0.1-0.1,0.2,0,0.2,0l0.6,0.6c0.1,0.1,0.2,0.1,0.3,0l0.8-0.8c0.1-0.1,0.1-0.2,0-0.2
				l-0.6-0.6c-0.1-0.1-0.1-0.2,0-0.2c0.2-0.2,0.3-0.4,0.4-0.7c0-0.1,0.1-0.1,0.2-0.1l0.8,0.3c0.1,0,0.2,0,0.2-0.1l0.4-1
				c0-0.1,0-0.2-0.1-0.2l-0.8-0.3c-0.1,0-0.1-0.1-0.1-0.2c0.1-0.2,0.1-0.5,0.2-0.8c0-0.1,0.1-0.2,0.2-0.2h0.9c0.1,0,0.2-0.1,0.2-0.2
				v-1.1C59.6,38,59.5,38,59.4,38z M55,42.3c-0.7-1-1.8-1.7-3.1-1.7c-1.3,0-2.4,0.7-3.1,1.7c-1-0.9-1.7-2.2-1.7-3.6
				c0-2.7,2.1-4.8,4.8-4.8c2.6,0,4.8,2.2,4.8,4.8C56.7,40.2,56,41.4,55,42.3z"/>
			<path fill="#fff" d="M51.9,36.8c-1,0-1.9,0.8-1.9,1.9c0,1,0.9,1.9,1.9,1.9c1,0,1.9-0.8,1.9-1.9C53.8,37.6,53,36.8,51.9,36.8z"
				/>
		</g>
		<g>
			<path fill="#fff" d="M42.4,6.6c-4.9,0-8.9,4-8.9,8.9c0,4.9,4,8.9,8.9,8.9c4.9,0,8.9-4,8.9-8.9C51.3,10.6,47.3,6.6,42.4,6.6z
				 M42.4,23.4c-4.4,0-7.9-3.5-7.9-7.9c0-4.4,3.5-7.9,7.9-7.9c4.4,0,7.9,3.5,7.9,7.9C50.3,19.9,46.7,23.4,42.4,23.4z"/>
			<path fill="#fff" d="M42.4,8c-0.3,0-0.5,0.2-0.5,0.5v0.2c0,0.3,0.2,0.5,0.5,0.5c0.3,0,0.5-0.2,0.5-0.5V8.5
				C42.9,8.2,42.7,8,42.4,8z"/>
			<path fill="#fff" d="M42.4,21.8c-0.3,0-0.5,0.2-0.5,0.5v0.2c0,0.3,0.2,0.5,0.5,0.5c0.3,0,0.5-0.2,0.5-0.5v-0.2
				C42.9,22,42.7,21.8,42.4,21.8z"/>
			<path fill="#fff" d="M49.4,15h-0.2c-0.3,0-0.5,0.2-0.5,0.5c0,0.3,0.2,0.5,0.5,0.5h0.2c0.3,0,0.5-0.2,0.5-0.5
				C49.9,15.2,49.7,15,49.4,15z"/>
			<path fill="#fff" d="M35.6,15h-0.2c-0.3,0-0.5,0.2-0.5,0.5c0,0.3,0.2,0.5,0.5,0.5h0.2c0.3,0,0.5-0.2,0.5-0.5
				C36.1,15.2,35.9,15,35.6,15z"/>
			<path fill="#fff" d="M42.8,15.5v-4.1c0-0.2-0.2-0.4-0.4-0.4c-0.2,0-0.4,0.2-0.4,0.4v3.8h-3.4c-0.2,0-0.4,0.2-0.4,0.4
				c0,0.2,0.2,0.4,0.4,0.4h3.7C42.6,15.9,42.8,15.7,42.8,15.5z"/>
		</g>
	</g>
	<path fill="#fff" d="M43.2,15.5c0,0.5-0.4,0.9-0.9,0.9c-0.5,0-0.9-0.4-0.9-0.9c0-0.5,0.4-0.9,0.9-0.9
		C42.9,14.6,43.2,15,43.2,15.5z"/>
</g>
</svg>
