<?xml version="1.0" encoding="utf-8"?>
<!-- Generator: Adobe Illustrator 18.0.0, SVG Export Plug-In . SVG Version: 6.00 Build 0)  -->
<!DOCTYPE svg PUBLIC "-//W3C//DTD SVG 1.1//EN" "http://www.w3.org/Graphics/SVG/1.1/DTD/svg11.dtd">
<svg version="1.1" id="Layer_1" xmlns="http://www.w3.org/2000/svg" xmlns:xlink="http://www.w3.org/1999/xlink" x="0px" y="0px"
	 viewBox="0 0 64 64" enable-background="new 0 0 64 64" xml:space="preserve">
<g>
	<path fill="#7a029f" d="M63.2,58.7L50.6,34.8c-0.6-1.2-1.9-1.9-3.2-1.9h-6.5c-0.2,0.3-0.4,0.5-0.6,0.8l-1.5,1.9
		c-0.1,0.1-0.1,0.1-0.2,0.2h0.2v11.9c0,0.5,0.4,0.9,0.9,0.9h14.9l1.4,2.6H36V38.5c-0.8,0.7-1.4,1.3-1.9,1.7v11.8c0,0,0,0,0,0v9.1
		h-4.2v-9.1c0,0,0,0,0,0V40.2c-0.5-0.4-1.1-1-1.9-1.7v12.6H8l1.4-2.6h14.9c0.5,0,0.9-0.4,0.9-0.9V35.7h0.2c-0.1-0.1-0.1-0.1-0.2-0.2
		c-0.2-0.3-0.5-0.6-0.7-0.9c-0.2-0.3-0.5-0.6-0.7-1c-0.2-0.3-0.4-0.5-0.6-0.8h-6.5c-1.4,0-2.6,0.7-3.2,1.9L0.8,58.7
		c-0.6,1.1-0.6,2.5,0.1,3.6C1.6,63.3,2.7,64,4,64h56c1.3,0,2.4-0.7,3.1-1.7C63.8,61.2,63.8,59.8,63.2,58.7z M40.7,46.6v-11h6.6
		c0.3,0,0.6,0.2,0.7,0.4l5.6,10.5H40.7z M15.9,36.1c0.1-0.3,0.4-0.4,0.7-0.4h6.6v11H10.4L15.9,36.1z M4,61.2c-0.4,0-0.6-0.3-0.7-0.4
		c-0.1-0.1-0.2-0.4,0-0.8L7,53h7.2v8.2h0H4z M16.1,61.2V53H28v8.2h0H16.1z M36,61.2V53h11v8.2H36L36,61.2z M60.7,60.8
		c-0.1,0.1-0.3,0.4-0.7,0.4H48.8V53H57l3.7,7C60.9,60.4,60.7,60.7,60.7,60.8z"/>
	<path fill="#7a029f" d="M32,39.4c0,0,13.6-10.2,13.6-25.8C45.6,6.1,39.5,0,32,0S18.4,6.1,18.4,13.6C18.4,29.2,32,39.4,32,39.4z
		 M22,13.6c0-5.5,4.5-10,10-10c5.5,0,10,4.5,10,10c0,5.5-4.5,10-10,10C26.5,23.5,22,19.1,22,13.6z"/>
	<path fill="#7a029f" d="M33,21.9v-1.3c1.1-0.2,2.2-0.6,3.1-1.3l0.9,0.9c0.1,0.1,0.2,0.1,0.3,0l1.1-1.1c0.1-0.1,0.1-0.2,0-0.3
		l-0.9-0.9c0.7-0.9,1.1-1.9,1.3-3.1h1.3c0.1,0,0.2-0.1,0.2-0.2v-1.5c0-0.1-0.1-0.2-0.2-0.2h-1.3c-0.2-1.1-0.6-2.2-1.3-3.1l0.9-0.9
		c0.1-0.1,0.1-0.2,0-0.3l-1.1-1.1c-0.1-0.1-0.2-0.1-0.3,0l-0.9,0.9c-0.9-0.7-1.9-1.1-3.1-1.3V5.7c0-0.1-0.1-0.2-0.2-0.2h-1.5
		c-0.1,0-0.2,0.1-0.2,0.2v1.3c-1.1,0.2-2.2,0.6-3.1,1.3L27,7.4c-0.1-0.1-0.2-0.1-0.3,0l-1.1,1.1c-0.1,0.1-0.1,0.2,0,0.3l0.9,0.9
		c-0.7,0.9-1.1,1.9-1.3,3.1h-1.3c-0.1,0-0.2,0.1-0.2,0.2v1.5c0,0.1,0.1,0.2,0.2,0.2h1.3c0.2,1.1,0.6,2.2,1.3,3.1l-0.9,0.9
		c-0.1,0.1-0.1,0.2,0,0.3l1.1,1.1c0.1,0.1,0.2,0.1,0.3,0l0.9-0.9c0.9,0.7,1.9,1.1,3.1,1.3v1.3c0,0.1,0.1,0.2,0.2,0.2h1.5
		C32.9,22.2,33,22,33,21.9z M27.4,13.8c0-2.5,2-4.6,4.6-4.6c2.5,0,4.6,2,4.6,4.6c0,2.5-2,4.6-4.6,4.6C29.5,18.4,27.4,16.3,27.4,13.8
		z"/>
</g>
</svg>
