<?xml version="1.0" encoding="utf-8"?>
<!-- Generator: Adobe Illustrator 18.0.0, SVG Export Plug-In . SVG Version: 6.00 Build 0)  -->
<!DOCTYPE svg PUBLIC "-//W3C//DTD SVG 1.1//EN" "http://www.w3.org/Graphics/SVG/1.1/DTD/svg11.dtd">
<svg version="1.1" id="Layer_1" xmlns="http://www.w3.org/2000/svg" xmlns:xlink="http://www.w3.org/1999/xlink" x="0px" y="0px"
	 viewBox="0 0 64 64" enable-background="new 0 0 64 64" xml:space="preserve">
<g>
	<g>
		<g>
			<path fill="#7a029f" d="M40,22.2L28.8,11c-0.6-0.6-1.3-0.9-2.1-0.9H3c-1.7,0-3,1.3-3,3V61c0,1.7,1.3,3,3,3h34.9c1.6,0,3-1.3,3-3
				V24.3C40.9,23.6,40.5,22.8,40,22.2z M37.9,61H3V13.2h23V23c0,1.1,0.9,2,2,2h9.8V61z"/>
			<g>
				<path fill="#7a029f" d="M24,18.2c0,0.8-0.6,1.4-1.4,1.4H7.3c-0.8,0-1.4-0.6-1.4-1.4c0-0.8,0.6-1.4,1.4-1.4h15.3
					C23.4,16.8,24,17.4,24,18.2z"/>
				<path fill="#7a029f" d="M24,25.8c0,0.8-0.6,1.4-1.4,1.4H7.3c-0.8,0-1.4-0.6-1.4-1.4c0-0.8,0.6-1.4,1.4-1.4h15.3
					C23.4,24.4,24,25,24,25.8z"/>
				<path fill="#7a029f" d="M35,33.3c0,0.8-0.6,1.4-1.4,1.4H7.3c-0.8,0-1.4-0.6-1.4-1.4c0-0.8,0.6-1.4,1.4-1.4h26.2
					C34.3,31.9,35,32.5,35,33.3z"/>
				<path fill="#7a029f" d="M35,40.8c0,0.8-0.6,1.4-1.4,1.4H7.3c-0.8,0-1.4-0.6-1.4-1.4c0-0.8,0.6-1.4,1.4-1.4h26.2
					C34.3,39.4,35,40.1,35,40.8z"/>
				<path fill="#7a029f" d="M35,48.4c0,0.8-0.6,1.4-1.4,1.4H7.3c-0.8,0-1.4-0.6-1.4-1.4c0-0.8,0.6-1.4,1.4-1.4h26.2
					C34.3,47,35,47.6,35,48.4z"/>
				<path fill="#7a029f" d="M35,55.9c0,0.8-0.6,1.4-1.4,1.4H7.3c-0.8,0-1.4-0.6-1.4-1.4c0-0.8,0.6-1.4,1.4-1.4h26.2
					C34.3,54.5,35,55.1,35,55.9z"/>
			</g>
		</g>
		<g>
			<path fill="#7a029f" d="M50,12.1L38.8,0.9C38.2,0.3,37.5,0,36.7,0H13c-1.7,0-3,1.3-3,3v5.2h3V3h23v9.8c0,1.1,0.9,2,2,2h9.8v36h-5
				v3h5c1.7,0,3-1.3,3-3V14.2C50.9,13.4,50.5,12.6,50,12.1z"/>
		</g>
	</g>
	<g>
		<rect x="55" y="20.1" fill="#7a029f" width="9" height="31.1"/>
		<path fill="#7a029f" d="M55,53.1h9V54c0,1.2-0.5,2.4-1.3,3.2c-0.8,0.8-1.9,1.3-3.2,1.3c-2.5,0-4.5-2-4.5-4.5V53.1z"/>
		<path fill="#7a029f" d="M58.9,8.7L55,18.1h9l-3.9-9.4C59.9,8,59.1,8,58.9,8.7z"/>
	</g>
</g>
</svg>
