<?xml version="1.0" encoding="utf-8"?>
<!-- Generator: Adobe Illustrator 18.0.0, SVG Export Plug-In . SVG Version: 6.00 Build 0)  -->
<!DOCTYPE svg PUBLIC "-//W3C//DTD SVG 1.1//EN" "http://www.w3.org/Graphics/SVG/1.1/DTD/svg11.dtd">
<svg version="1.1" id="Layer_1" xmlns="http://www.w3.org/2000/svg" xmlns:xlink="http://www.w3.org/1999/xlink" x="0px" y="0px"
	 viewBox="0 0 64 64" enable-background="new 0 0 64 64" xml:space="preserve">
<g>
	<g>
		<path fill="#7a029f" d="M51,1.1H2.8C1.2,1.1,0,2.3,0,3.9v36.4C0,41.7,1.2,43,2.8,43h30.1c0.3-1,0.7-1.9,1.1-2.8H2.8V7.5h15
			l2.5,2.5H51v21.1c1,0.1,1.9,0.3,2.8,0.5V3.9C53.8,2.3,52.5,1.1,51,1.1z M38,6.5C38,6.8,37.8,7,37.6,7h-2c-0.3,0-0.5-0.2-0.5-0.5
			v-2c0-0.3,0.2-0.5,0.5-0.5h2c0.3,0,0.5,0.2,0.5,0.5V6.5z M42.9,6.5c0,0.3-0.2,0.5-0.5,0.5h-2c-0.3,0-0.5-0.2-0.5-0.5v-2
			c0-0.3,0.2-0.5,0.5-0.5h2c0.3,0,0.5,0.2,0.5,0.5V6.5z M47.7,6.5c0,0.3-0.2,0.5-0.5,0.5h-2c-0.3,0-0.5-0.2-0.5-0.5v-2
			c0-0.3,0.2-0.5,0.5-0.5h2c0.2,0,0.5,0.2,0.5,0.5V6.5z"/>
		<g>
			<rect x="5.3" y="14.7" fill="#7a029f" width="12.1" height="3.9"/>
			<rect x="20.8" y="14.7" fill="#7a029f" width="12.1" height="3.9"/>
			<rect x="36.3" y="14.7" fill="#7a029f" width="12.1" height="3.9"/>
		</g>
		<g>
			<rect x="5.3" y="22" fill="#7a029f" width="12.1" height="9.2"/>
			<rect x="20.8" y="22" fill="#7a029f" width="12.1" height="9.2"/>
			<rect x="36.3" y="22" fill="#7a029f" width="12.1" height="9.2"/>
		</g>
	</g>
	<path fill="#7a029f" d="M46.2,31.3h2.3V31C47.7,31.1,46.9,31.1,46.2,31.3z"/>
	<path fill="#7a029f" d="M49.1,33c-8.3,0-15,6.7-15,15c0,8.3,6.7,15,15,15c8.3,0,14.9-6.7,14.9-15C64,39.7,57.3,33,49.1,33z
		 M49.1,59.9c-6.6,0-11.9-5.3-11.9-11.9c0-6.6,5.3-11.9,11.9-11.9C55.6,36,61,41.4,61,48C61,54.6,55.6,59.9,49.1,59.9z"/>
	<path fill="#7a029f" d="M56.1,47.7c-0.1-0.1-0.1-0.1-0.2-0.2c0.5,0,1-0.5,1-1.1c0-0.1,0-0.2,0-0.3c0,0,0-0.1,0-0.1
		c-0.1-0.5-1.1-0.8-1.2-0.8c0,0-3.1-0.5-4.2,0.1c0,0-0.1-1,0.4-1.9c0.3-0.5,0.6-1,0.7-1.6c0.3-1.1,0.5-2.6-0.4-2.7
		c-0.2,0-0.3,0.1-0.4,0.2c-0.2,0.7-1.1,2.9-2.6,4c-0.5,0.3-0.9,0.8-1.1,1.3c-0.3,0.6-0.7,1.4-1.2,2.1c-0.3,0.4-0.7,0.8-1.1,1.1v6
		c0.1,0,0.2,0,0.3,0c0.6,0,1.8,0.1,2.7,0.2c0.4,0,1.1,0.1,1.5,0.1h0c1.8,0,4-0.8,4.4-0.9c0,0,0.1,0,0.1,0c0.4-0.2,0.7-0.5,0.7-1
		c0-0.3-0.1-0.5-0.3-0.7c0,0,0-0.1-0.1-0.1c0.5-0.1,0.8-0.5,0.8-1c0-0.3-0.1-0.5-0.3-0.7c0,0,0,0,0-0.1c0.5-0.1,0.9-0.5,0.9-1.1
		C56.6,48.2,56.4,47.9,56.1,47.7z M43.9,47.3h-2c-0.4,0-0.7,0.3-0.7,0.7v6.7c0,0.4,0.3,0.7,0.7,0.7h2c0.4,0,0.7-0.3,0.7-0.7V48
		C44.6,47.7,44.3,47.3,43.9,47.3z M43.6,48.9c-0.3,0-0.5-0.2-0.5-0.5c0-0.3,0.2-0.5,0.5-0.5c0.3,0,0.5,0.2,0.5,0.5
		C44.1,48.6,43.8,48.9,43.6,48.9z"/>
</g>
</svg>
