<?xml version="1.0" encoding="utf-8"?>
<!-- Generator: Adobe Illustrator 18.0.0, SVG Export Plug-In . SVG Version: 6.00 Build 0)  -->
<!DOCTYPE svg PUBLIC "-//W3C//DTD SVG 1.1//EN" "http://www.w3.org/Graphics/SVG/1.1/DTD/svg11.dtd">
<svg version="1.1" id="Layer_1" xmlns="http://www.w3.org/2000/svg" xmlns:xlink="http://www.w3.org/1999/xlink" x="0px" y="0px"
	 viewBox="0 0 64 64" enable-background="new 0 0 64 64" xml:space="preserve">
<g>
	<g>
		<path fill="#7a029f" d="M50.7,6.1v4.1H0.1V6.1c0-1.1,0.9-2,2-2h3v1.5c0,1.7,1.4,3,3,3s3-1.4,3-3V4.1h28.5v1.5c0,1.7,1.4,3,3,3
			s3-1.4,3-3V4.1h3C49.8,4.1,50.7,5,50.7,6.1z"/>
		<path fill="#7a029f" d="M0.1,12.2v28.1c0,1.1,0.9,2,2,2h29.8c0.4-1,0.9-2.1,1.5-3H3.1V15.1h44.7v15.8c0.2,0,0.4,0,0.6,0
			c0.8,0,1.6,0,2.4,0.2V12.2H0.1z"/>
		<g>
			<rect x="5.9" y="17.2" fill="#7a029f" width="4" height="4"/>
			<rect x="12.9" y="17.2" fill="#7a029f" width="4" height="4"/>
			<rect x="19.9" y="17.2" fill="#7a029f" width="4" height="4"/>
			<rect x="26.9" y="17.2" fill="#7a029f" width="4" height="4"/>
			<rect x="33.9" y="17.2" fill="#7a029f" width="4" height="4"/>
			<rect x="41" y="17.2" fill="#7a029f" width="4" height="4"/>
		</g>
		<g>
			<rect x="5.9" y="24" fill="#7a029f" width="4" height="4"/>
			<rect x="12.9" y="24" fill="#7a029f" width="4" height="4"/>
			<rect x="19.9" y="24" fill="#7a029f" width="4" height="4"/>
			<rect x="26.9" y="24" fill="#7a029f" width="4" height="4"/>
			<rect x="33.9" y="24" fill="#7a029f" width="4" height="4"/>
			<rect x="41" y="24" fill="#7a029f" width="4" height="4"/>
		</g>
		<g>
			<rect x="5.9" y="30.9" fill="#7a029f" width="4" height="4"/>
			<rect x="12.9" y="30.9" fill="#7a029f" width="4" height="4"/>
			<rect x="19.9" y="30.9" fill="#7a029f" width="4" height="4"/>
			<rect x="26.9" y="30.9" fill="#7a029f" width="4" height="4"/>
		</g>
		<g>
			<path fill="#7a029f" d="M8.1,7.2L8.1,7.2c-0.9,0-1.5-0.7-1.5-1.5V1.5C6.5,0.7,7.2,0,8.1,0l0,0c0.9,0,1.5,0.7,1.5,1.5v4.1
				C9.6,6.5,8.9,7.2,8.1,7.2z"/>
			<path fill="#7a029f" d="M42.7,7.2L42.7,7.2c-0.9,0-1.5-0.7-1.5-1.5V1.5c0-0.9,0.7-1.5,1.5-1.5l0,0c0.9,0,1.5,0.7,1.5,1.5v4.1
				C44.3,6.5,43.6,7.2,42.7,7.2z"/>
		</g>
	</g>
	<path fill="#7a029f" d="M48.3,32.9c-8.6,0-15.6,7-15.6,15.6S39.8,64,48.3,64s15.6-7,15.6-15.6S56.9,32.9,48.3,32.9z M48.3,61.4
		c-7.1,0-12.9-5.8-12.9-12.9s5.8-12.9,12.9-12.9s12.9,5.8,12.9,12.9S55.5,61.4,48.3,61.4z"/>
	<g>
		<path fill="#7a029f" d="M49.9,48.4c0,0.8-0.7,1.5-1.5,1.5c-0.6,0-1.1-0.3-1.3-0.8h-4.8c-0.4,0-0.7-0.3-0.7-0.7
			c0-0.4,0.3-0.7,0.7-0.7h4.8c0.1-0.2,0.3-0.4,0.6-0.6v-7c0-0.4,0.3-0.7,0.7-0.7c0.4,0,0.7,0.3,0.7,0.7v7
			C49.6,47.4,49.9,47.9,49.9,48.4z"/>
	</g>
	<g>
		<path fill="#7a029f" d="M49.1,37.3c0,0.4-0.3,0.7-0.7,0.7c-0.4,0-0.7-0.3-0.7-0.7c0-0.4,0.3-0.7,0.7-0.7
			C48.8,36.6,49.1,36.9,49.1,37.3z"/>
		<path fill="#7a029f" d="M49.1,59.6c0,0.4-0.3,0.7-0.7,0.7c-0.4,0-0.7-0.3-0.7-0.7c0-0.4,0.3-0.7,0.7-0.7
			C48.8,58.8,49.1,59.1,49.1,59.6z"/>
	</g>
	<g>
		<path fill="#7a029f" d="M59.5,49.2c-0.4,0-0.7-0.3-0.7-0.7c0-0.4,0.3-0.7,0.7-0.7c0.4,0,0.7,0.3,0.7,0.7
			C60.2,48.8,59.9,49.2,59.5,49.2z"/>
		<path fill="#7a029f" d="M37.2,49.2c-0.4,0-0.7-0.3-0.7-0.7c0-0.4,0.3-0.7,0.7-0.7c0.4,0,0.7,0.3,0.7,0.7
			C38,48.8,37.7,49.2,37.2,49.2z"/>
	</g>
	<g>
		<path fill="#7a029f" d="M56.7,41.1c-0.3,0.3-0.8,0.3-1.1,0c-0.3-0.3-0.3-0.8,0-1.1c0.3-0.3,0.8-0.3,1.1,0
			C57,40.3,57,40.8,56.7,41.1z"/>
		<path fill="#7a029f" d="M41,56.8c-0.3,0.3-0.8,0.3-1.1,0c-0.3-0.3-0.3-0.8,0-1.1c0.3-0.3,0.8-0.3,1.1,0
			C41.3,56.1,41.3,56.5,41,56.8z"/>
	</g>
	<g>
		<path fill="#7a029f" d="M41,40.1c0.3,0.3,0.3,0.8,0,1.1c-0.3,0.3-0.8,0.3-1.1,0c-0.3-0.3-0.3-0.8,0-1.1
			C40.3,39.8,40.7,39.8,41,40.1z"/>
		<path fill="#7a029f" d="M56.7,55.8c0.3,0.3,0.3,0.8,0,1.1c-0.3,0.3-0.8,0.3-1.1,0c-0.3-0.3-0.3-0.8,0-1.1
			C56,55.5,56.5,55.5,56.7,55.8z"/>
	</g>
</g>
</svg>
