<?xml version="1.0" encoding="utf-8"?>
<!-- Generator: Adobe Illustrator 18.0.0, SVG Export Plug-In . SVG Version: 6.00 Build 0)  -->
<!DOCTYPE svg PUBLIC "-//W3C//DTD SVG 1.1//EN" "http://www.w3.org/Graphics/SVG/1.1/DTD/svg11.dtd">
<svg version="1.1" id="Layer_1" xmlns="http://www.w3.org/2000/svg" xmlns:xlink="http://www.w3.org/1999/xlink" x="0px" y="0px"
	 viewBox="0 0 64 64" enable-background="new 0 0 64 64" xml:space="preserve">
<g>
	<path fill="#7a029f" d="M59.1,0H4.9C2.2,0,0.1,2.2,0.1,4.8v41.8c0,2.7,2.2,4.8,4.8,4.8h3.8c0.2-1.7,0.6-3.3,1.2-4.8h-5V10.8h54.2
		v35.7h-5c0.6,1.5,1,3.1,1.2,4.8h3.8c2.6,0,4.8-2.1,4.8-4.8V4.8C63.9,2.2,61.7,0,59.1,0z M10.4,5.3L9.4,6l0.4,1.1
		c0.1,0.2,0,0.4-0.2,0.5C9.5,7.7,9.4,7.8,9.3,7.8s-0.2,0-0.3-0.1L8.1,7l-1,0.7C7,7.8,6.8,7.8,6.6,7.7C6.4,7.6,6.4,7.3,6.4,7.1L6.8,6
		L5.8,5.3C5.6,5.2,5.6,5,5.6,4.8c0.1-0.2,0.3-0.3,0.4-0.3h1.2l0.4-1.1c0.1-0.4,0.8-0.4,0.9,0l0.4,1.1h1.2c0.2,0,0.4,0.1,0.5,0.3
		C10.6,5,10.6,5.2,10.4,5.3z M17.1,5.3L16.2,6l0.4,1.1c0,0.2,0,0.4-0.2,0.5c-0.1,0.1-0.2,0.1-0.3,0.1c-0.1,0-0.2,0-0.3-0.1l-1-0.7
		l-0.9,0.7c-0.2,0.1-0.4,0.1-0.6,0c-0.2-0.1-0.2-0.3-0.2-0.5L13.5,6l-1-0.7c-0.2-0.1-0.2-0.3-0.2-0.5c0.1-0.2,0.3-0.3,0.5-0.3H14
		l0.4-1.1c0.1-0.4,0.8-0.4,0.9,0l0.4,1.1h1.2c0.2,0,0.4,0.1,0.4,0.3C17.4,5,17.3,5.2,17.1,5.3z M48.9,7H22.8c-0.9,0-1.6-0.7-1.6-1.6
		c0-0.9,0.7-1.6,1.6-1.6h26.1c0.9,0,1.6,0.7,1.6,1.6C50.5,6.3,49.8,7,48.9,7z"/>
	<path fill="#7a029f" d="M32,33c-11.9,0-21.6,9.7-21.6,21.5c0,3.4,0.8,6.6,2.2,9.5h3.9c-1.7-2.8-2.7-6-2.7-9.5
		c0-10,8.1-18.1,18.1-18.1c10,0,18.1,8.1,18.1,18.1c0,3.5-1,6.7-2.7,9.5h3.9c1.4-2.9,2.2-6.1,2.2-9.5C53.5,42.6,43.9,33,32,33z"/>
	<path fill="#7a029f" d="M47.8,61.1c0.1-0.3,0-0.6-0.3-0.7l-1.8-0.7c-0.3-0.1-0.6,0-0.8,0.3c-0.1,0.3,0,0.6,0.3,0.7l1.8,0.7
		C47.3,61.5,47.7,61.4,47.8,61.1z"/>
	<path fill="#7a029f" d="M38.1,41.2l0.7-1.8c0.1-0.3,0-0.6-0.3-0.7c-0.3-0.1-0.6,0-0.7,0.3l-0.7,1.8c-0.1,0.3,0,0.6,0.3,0.8
		C37.7,41.7,38,41.5,38.1,41.2z"/>
	<path fill="#7a029f" d="M46.1,54.5c0,0.3,0.3,0.6,0.6,0.6h1.9c0.3,0,0.6-0.3,0.6-0.6c0-0.3-0.3-0.6-0.6-0.6h-1.9
		C46.3,54,46.1,54.2,46.1,54.5z"/>
	<path fill="#7a029f" d="M18.3,59.6l-1.8,0.7c-0.3,0.1-0.4,0.5-0.3,0.7c0.1,0.3,0.5,0.4,0.7,0.3l1.8-0.7c0.3-0.1,0.4-0.5,0.3-0.7
		C18.9,59.6,18.5,59.5,18.3,59.6z"/>
	<path fill="#7a029f" d="M47.1,47.7l-1.8,0.7c-0.3,0.1-0.4,0.5-0.3,0.7c0.1,0.3,0.5,0.4,0.8,0.3l1.8-0.7c0.3-0.1,0.4-0.5,0.3-0.7
		C47.7,47.7,47.3,47.6,47.1,47.7z"/>
	<path fill="#7a029f" d="M26.9,40.8L26.2,39c-0.1-0.3-0.5-0.4-0.7-0.3c-0.3,0.1-0.4,0.5-0.3,0.7l0.7,1.8c0.1,0.3,0.4,0.4,0.7,0.3
		C26.9,41.4,27,41.1,26.9,40.8z"/>
	<path fill="#7a029f" d="M17.9,54.5c0-0.3-0.3-0.6-0.6-0.6h-1.9c-0.3,0-0.6,0.3-0.6,0.6c0,0.3,0.3,0.6,0.6,0.6h1.9
		C17.7,55.1,17.9,54.9,17.9,54.5z"/>
	<path fill="#7a029f" d="M18.7,48.4l-1.8-0.7c-0.3-0.1-0.6,0-0.7,0.3c-0.1,0.3,0,0.6,0.3,0.7l1.8,0.7c0.3,0.1,0.6,0,0.8-0.3
		C19.1,48.9,19,48.5,18.7,48.4z"/>
	<path fill="#7a029f" d="M32.6,39.9V38c0-0.3-0.3-0.6-0.6-0.6c-0.3,0-0.6,0.3-0.6,0.6v1.9c0,0.3,0.3,0.6,0.6,0.6
		C32.3,40.5,32.6,40.2,32.6,39.9z"/>
	<path fill="#7a029f" d="M20.7,42.4c-0.2-0.2-0.6-0.2-0.8,0c-0.2,0.2-0.2,0.6,0,0.8l1.3,1.3c0.2,0.2,0.6,0.2,0.8,0
		c0.2-0.2,0.2-0.6,0-0.8L20.7,42.4z"/>
	<path fill="#7a029f" d="M43.3,42.4l-1.3,1.3c-0.2,0.2-0.2,0.6,0,0.8c0.2,0.2,0.6,0.2,0.8,0l1.3-1.3c0.2-0.2,0.2-0.6,0-0.8
		C43.9,42.2,43.5,42.2,43.3,42.4z"/>
	<path fill="#7a029f" d="M41.1,46.8L33.5,52c0.1,0,0.1,0.1,0.2,0.1c-1.1-0.8-2.5-0.8-3.6,0.1c-0.9,0.7-1.2,1.9-1,2.9
		c0,0,0-0.1,0-0.1l-2,1.4l1.9,0.5l0.2,2l1.8-1.7c0,0-0.1,0-0.1,0c1,0.4,2.2,0.3,3-0.4c1.1-0.9,1.3-2.3,0.8-3.5
		c0,0.1,0.1,0.1,0.1,0.2l6.6-6.5C41.4,46.9,41.2,46.7,41.1,46.8z M33,55.8c-0.7,0.6-1.8,0.5-2.3-0.2c-0.6-0.7-0.5-1.8,0.2-2.3
		c0.7-0.6,1.8-0.5,2.3,0.2C33.8,54.1,33.7,55.2,33,55.8z"/>
</g>
</svg>
