<?xml version="1.0" encoding="utf-8"?>
<!-- Generator: Adobe Illustrator 18.0.0, SVG Export Plug-In . SVG Version: 6.00 Build 0)  -->
<!DOCTYPE svg PUBLIC "-//W3C//DTD SVG 1.1//EN" "http://www.w3.org/Graphics/SVG/1.1/DTD/svg11.dtd">
<svg version="1.1" id="Layer_1" xmlns="http://www.w3.org/2000/svg" xmlns:xlink="http://www.w3.org/1999/xlink" x="0px" y="0px"
	 viewBox="0 0 64 64" enable-background="new 0 0 64 64" xml:space="preserve">
<g>
	<g>
		<path fill="#7a029f" d="M1.7,47.8V52c0,1.7,1.3,3.1,3,3.1h18.2l-1.6,4.8h-3c-1.2,0-2.1,0.9-2.1,2.1s0.9,2.1,2.1,2.1h27.4
			c1.2,0,2.1-0.9,2.1-2.1s-0.9-2.1-2.1-2.1h-3L41.1,55h18.2c1.7,0,3-1.4,3-3.1v-4.1H1.7z M6.1,52.9c-0.8,0-1.4-0.6-1.4-1.4
			c0-0.8,0.6-1.4,1.4-1.4c0.8,0,1.4,0.7,1.4,1.4C7.6,52.2,6.9,52.9,6.1,52.9z M10.7,52.9c-0.8,0-1.4-0.6-1.4-1.4
			c0-0.8,0.6-1.4,1.4-1.4c0.8,0,1.4,0.7,1.4,1.4C12.1,52.2,11.5,52.9,10.7,52.9z"/>
		<path fill="#7a029f" d="M59.3,10.1H41.6c0.2,1,0.3,2,0.4,3l17.3,0v30H4.7V13.2l6.4,0c0-1.1,0.1-2.1,0.4-3.1H4.7
			c-1.6,0-3,1.4-3,3.1v32.9h60.6V13.2C62.3,11.5,61,10.1,59.3,10.1z"/>
	</g>
	<path fill="#7a029f" d="M40.1,34l-5.5-9.7c3.2-2.5,5.3-6.3,5.3-10.7C40,6,34,0,26.5,0S13,6,13,13.5c0,7.4,6,13.5,13.5,13.5
		c1.6,0,3.2-0.3,4.6-0.8l5.6,9.9c0.6,1,1.9,1.2,2.8,0.6C40.4,36.1,40.7,34.9,40.1,34z M15.5,13.5c0-6.1,4.9-11,11-11s11,4.9,11,11
		c0,6.1-4.9,11-11,11S15.5,19.6,15.5,13.5z"/>
	<path fill="#7a029f" d="M26.5,6c-4.1,0-7.5,3.3-7.5,7.5c0,4.1,3.3,7.4,7.5,7.4s7.5-3.3,7.5-7.4C34,9.4,30.6,6,26.5,6z M26.5,18
		C24,18,22,16,22,13.5S24,9,26.5,9s4.5,2,4.5,4.5S29,18,26.5,18z"/>
	<path fill="#7a029f" d="M26.5,6c-4.1,0-7.5,3.3-7.5,7.5c0,4.1,3.3,7.4,7.5,7.4s7.5-3.3,7.5-7.4C34,9.4,30.6,6,26.5,6z M26.5,18
		C24,18,22,16,22,13.5S24,9,26.5,9s4.5,2,4.5,4.5S29,18,26.5,18z"/>
	<path fill="#7a029f" d="M29.7,13.5c0,1.8-1.4,3.2-3.2,3.2s-3.2-1.4-3.2-3.2c0-0.3,0-0.6,0.1-0.9c0.2,0.1,0.5,0.2,0.7,0.2
		c0.9,0,1.6-0.7,1.6-1.6c0-0.3-0.1-0.5-0.2-0.7c0.3-0.1,0.6-0.1,0.9-0.1C28.3,10.3,29.7,11.7,29.7,13.5z"/>
</g>
</svg>
