<?xml version="1.0" encoding="utf-8"?>
<!-- Generator: Adobe Illustrator 18.0.0, SVG Export Plug-In . SVG Version: 6.00 Build 0)  -->
<!DOCTYPE svg PUBLIC "-//W3C//DTD SVG 1.1//EN" "http://www.w3.org/Graphics/SVG/1.1/DTD/svg11.dtd">
<svg version="1.1" id="Layer_1" xmlns="http://www.w3.org/2000/svg" xmlns:xlink="http://www.w3.org/1999/xlink" x="0px" y="0px"
	 viewBox="0 0 64 64" enable-background="new 0 0 64 64" xml:space="preserve">
<g>
	<g>
		<g>
			<path fill="#7a029f" d="M48.5,5H15.1c-1.6,0-2.8,1.3-2.8,2.8v48.3c0,1.6,1.3,2.8,2.8,2.8h33.4c1.5,0,2.8-1.3,2.8-2.8V7.8
				C51.4,6.3,50.1,5,48.5,5z M20.6,7.5H43v2.6H20.6V7.5z M48.5,56.2H15.1V12.5h25.1v8.7c0,0.4,0.4,0.6,0.7,0.4l1.8-1.2
				c0.2-0.1,0.4-0.1,0.5,0l1.8,1.2c0.3,0.2,0.7,0,0.7-0.4v-8.7h2.6V56.2z"/>
		</g>
		<g>
			<g>
				<g>
					<path fill="#7a029f" d="M21.8,16.1l-0.9,0.7l0.4,1.1c0,0.2,0,0.3-0.1,0.4c-0.1,0.1-0.1,0.1-0.2,0.1c-0.1,0-0.2,0-0.2-0.1
						l-0.9-0.7l-0.9,0.7c-0.1,0.1-0.3,0.1-0.5,0c-0.1-0.1-0.2-0.3-0.1-0.4l0.4-1.1l-0.9-0.7c-0.1-0.1-0.2-0.3-0.1-0.4
						c0.1-0.2,0.2-0.3,0.4-0.3H19l0.4-1.1c0.1-0.3,0.6-0.3,0.7,0l0.4,1.1h1.2c0.2,0,0.3,0.1,0.4,0.3C22,15.8,21.9,16,21.8,16.1z"/>
				</g>
			</g>
			<g>
				<g>
					<path fill="#7a029f" d="M27.5,16.1l-0.9,0.7l0.4,1.1c0,0.2,0,0.3-0.1,0.4c-0.1,0.1-0.1,0.1-0.2,0.1c-0.1,0-0.2,0-0.2-0.1
						l-0.9-0.7l-0.9,0.7c-0.1,0.1-0.3,0.1-0.5,0c-0.1-0.1-0.2-0.3-0.1-0.4l0.4-1.1l-0.9-0.7c-0.1-0.1-0.2-0.3-0.1-0.4
						c0.1-0.2,0.2-0.3,0.4-0.3h1.2l0.4-1.1c0.1-0.3,0.6-0.3,0.7,0l0.4,1.1h1.2c0.2,0,0.3,0.1,0.4,0.3C27.6,15.8,27.6,16,27.5,16.1z"
						/>
				</g>
			</g>
			<g>
				<g>
					<path fill="#7a029f" d="M33.1,16.1l-0.9,0.7l0.4,1.1c0,0.2,0,0.3-0.1,0.4c-0.1,0.1-0.1,0.1-0.2,0.1c-0.1,0-0.2,0-0.2-0.1
						L31,17.6l-0.9,0.7c-0.1,0.1-0.3,0.1-0.5,0c-0.1-0.1-0.2-0.3-0.1-0.4l0.4-1.1l-0.9-0.7c-0.1-0.1-0.2-0.3-0.1-0.4
						c0.1-0.2,0.2-0.3,0.4-0.3h1.2l0.4-1.1c0.1-0.3,0.6-0.3,0.7,0l0.4,1.1h1.2c0.2,0,0.3,0.1,0.4,0.3C33.3,15.8,33.2,16,33.1,16.1z"
						/>
				</g>
			</g>
		</g>
		<g>
			<g>
				<path fill="#7a029f" d="M24,31.1h-6.3c-0.3,0-0.5-0.2-0.5-0.5v-6.3c0-0.3,0.2-0.5,0.5-0.5H24c0.3,0,0.5,0.2,0.5,0.5v6.3
					C24.5,30.9,24.2,31.1,24,31.1z M18.2,30.1h5.3v-5.3h-5.3V30.1z"/>
			</g>
			<g>
				<g>
					<path fill="#7a029f" d="M46,26.1H26.7c-0.3,0-0.5-0.2-0.5-0.5c0-0.3,0.2-0.5,0.5-0.5H46c0.3,0,0.5,0.2,0.5,0.5
						C46.5,25.9,46.3,26.1,46,26.1z"/>
				</g>
				<g>
					<path fill="#7a029f" d="M42.4,28H26.7c-0.3,0-0.5-0.2-0.5-0.5c0-0.3,0.2-0.5,0.5-0.5h15.7c0.3,0,0.5,0.2,0.5,0.5
						C42.9,27.7,42.7,28,42.4,28z"/>
				</g>
				<g>
					<path fill="#7a029f" d="M38.8,29.8H26.7c-0.3,0-0.5-0.2-0.5-0.5c0-0.3,0.2-0.5,0.5-0.5h12.1c0.3,0,0.5,0.2,0.5,0.5
						C39.3,29.6,39,29.8,38.8,29.8z"/>
				</g>
			</g>
		</g>
		<g>
			<g>
				<path fill="#7a029f" d="M24,41.8h-6.3c-0.3,0-0.5-0.2-0.5-0.5V35c0-0.3,0.2-0.5,0.5-0.5H24c0.3,0,0.5,0.2,0.5,0.5v6.3
					C24.5,41.6,24.2,41.8,24,41.8z M18.2,40.8h5.3v-5.3h-5.3V40.8z"/>
			</g>
			<g>
				<g>
					<path fill="#7a029f" d="M46,36.8H26.7c-0.3,0-0.5-0.2-0.5-0.5c0-0.3,0.2-0.5,0.5-0.5H46c0.3,0,0.5,0.2,0.5,0.5
						C46.5,36.5,46.3,36.8,46,36.8z"/>
				</g>
				<g>
					<path fill="#7a029f" d="M42.4,38.6H26.7c-0.3,0-0.5-0.2-0.5-0.5c0-0.3,0.2-0.5,0.5-0.5h15.7c0.3,0,0.5,0.2,0.5,0.5
						C42.9,38.4,42.7,38.6,42.4,38.6z"/>
				</g>
				<g>
					<path fill="#7a029f" d="M38.8,40.5H26.7c-0.3,0-0.5-0.2-0.5-0.5c0-0.3,0.2-0.5,0.5-0.5h12.1c0.3,0,0.5,0.2,0.5,0.5
						C39.3,40.3,39,40.5,38.8,40.5z"/>
				</g>
			</g>
		</g>
		<g>
			<g>
				<path fill="#7a029f" d="M24,52.5h-6.3c-0.3,0-0.5-0.2-0.5-0.5v-6.3c0-0.3,0.2-0.5,0.5-0.5H24c0.3,0,0.5,0.2,0.5,0.5V52
					C24.5,52.2,24.2,52.5,24,52.5z M18.2,51.5h5.3v-5.3h-5.3V51.5z"/>
			</g>
			<g>
				<g>
					<path fill="#7a029f" d="M46,47.4H26.7c-0.3,0-0.5-0.2-0.5-0.5c0-0.3,0.2-0.5,0.5-0.5H46c0.3,0,0.5,0.2,0.5,0.5
						C46.5,47.2,46.3,47.4,46,47.4z"/>
				</g>
				<g>
					<path fill="#7a029f" d="M42.4,49.3H26.7c-0.3,0-0.5-0.2-0.5-0.5c0-0.3,0.2-0.5,0.5-0.5h15.7c0.3,0,0.5,0.2,0.5,0.5
						C42.9,49.1,42.7,49.3,42.4,49.3z"/>
				</g>
				<g>
					<path fill="#7a029f" d="M38.8,51.2H26.7c-0.3,0-0.5-0.2-0.5-0.5c0-0.3,0.2-0.5,0.5-0.5h12.1c0.3,0,0.5,0.2,0.5,0.5
						C39.3,51,39,51.2,38.8,51.2z"/>
				</g>
			</g>
		</g>
	</g>
	<g>
		<g>
			<g>
				<path fill="#7a029f" d="M10.4,56.9H2.2V25h8.1v-1.8h-4v-1.9h4v-1.8H2.2c-1.2,0-2.1,0.9-2.1,2.1v35.3c0,1.2,0.9,2.1,2.1,2.1h9
					C10.8,58.4,10.5,57.7,10.4,56.9z"/>
			</g>
		</g>
		<g>
			<g>
				<g>
					<g>
						<path fill="#7a029f" d="M7.1,27.6l-0.7,0.5l0.3,0.8c0,0.1,0,0.2-0.1,0.3c-0.1,0-0.1,0.1-0.2,0.1c-0.1,0-0.1,0-0.2-0.1
							l-0.7-0.5l-0.7,0.5c-0.1,0.1-0.2,0.1-0.3,0c-0.1-0.1-0.1-0.2-0.1-0.3l0.3-0.8L4,27.6c-0.1-0.1-0.1-0.2-0.1-0.3
							c0-0.1,0.1-0.2,0.3-0.2H5l0.3-0.8c0.1-0.2,0.5-0.2,0.5,0l0.3,0.8h0.8c0.1,0,0.2,0.1,0.3,0.2C7.2,27.4,7.2,27.5,7.1,27.6z"/>
					</g>
				</g>
			</g>
			<g>
				<g>
					<g>
						<path fill="#7a029f" d="M10.3,27.1v2.1l-0.6-0.4L9,29.2c-0.1,0.1-0.2,0.1-0.3,0c-0.1-0.1-0.1-0.2-0.1-0.3l0.3-0.8l-0.7-0.5
							C8.1,27.5,8,27.4,8,27.3c0-0.1,0.2-0.2,0.3-0.2h0.8l0.3-0.8c0.1-0.2,0.5-0.2,0.5,0L10.3,27.1L10.3,27.1z"/>
					</g>
				</g>
			</g>
		</g>
		<g>
			<g>
				<g>
					<path fill="#7a029f" d="M8.7,38.7H4.1c-0.3,0-0.5-0.2-0.5-0.5v-4.6c0-0.3,0.2-0.5,0.5-0.5h4.6c0.3,0,0.5,0.2,0.5,0.5v4.6
						C9.2,38.5,9,38.7,8.7,38.7z M4.6,37.7h3.6v-3.6H4.6V37.7z"/>
				</g>
			</g>
		</g>
		<g>
			<g>
				<g>
					<path fill="#7a029f" d="M8.7,46.5H4.1c-0.3,0-0.5-0.2-0.5-0.5v-4.6c0-0.3,0.2-0.5,0.5-0.5h4.6c0.3,0,0.5,0.2,0.5,0.5V46
						C9.2,46.3,9,46.5,8.7,46.5z M4.6,45.5h3.6v-3.6H4.6V45.5z"/>
				</g>
			</g>
		</g>
		<g>
			<g>
				<g>
					<path fill="#7a029f" d="M8.7,54.4H4.1c-0.3,0-0.5-0.2-0.5-0.5v-4.6c0-0.3,0.2-0.5,0.5-0.5h4.6c0.3,0,0.5,0.2,0.5,0.5v4.6
						C9.2,54.1,9,54.4,8.7,54.4z M4.6,53.4h3.6v-3.6H4.6V53.4z"/>
				</g>
			</g>
		</g>
	</g>
	<g>
		<g>
			<g>
				<path fill="#7a029f" d="M52.8,59h9c1.1,0,2.1-0.9,2.1-2.1V21.6c0-1.1-0.9-2.1-2.1-2.1h-8.1v1.8h4v1.9h-4V25h8.1v31.9h-8.1
					C53.5,57.7,53.2,58.4,52.8,59z"/>
			</g>
		</g>
		<g>
			<g>
				<g>
					<g>
						<path fill="#7a029f" d="M56.9,27.6l0.7,0.5l-0.3,0.8c0,0.1,0,0.2,0.1,0.3c0.1,0,0.1,0.1,0.2,0.1c0.1,0,0.1,0,0.2-0.1l0.7-0.5
							l0.7,0.5c0.1,0.1,0.2,0.1,0.3,0c0.1-0.1,0.1-0.2,0.1-0.3l-0.3-0.8l0.7-0.5c0.1-0.1,0.1-0.2,0.1-0.3c0-0.1-0.1-0.2-0.3-0.2H59
							l-0.3-0.8c-0.1-0.2-0.5-0.2-0.5,0l-0.3,0.8h-0.8c-0.1,0-0.2,0.1-0.3,0.2C56.8,27.4,56.8,27.5,56.9,27.6z"/>
					</g>
				</g>
			</g>
			<g>
				<g>
					<g>
						<path fill="#7a029f" d="M53.7,27.1v2.1l0.6-0.4l0.7,0.5c0.1,0.1,0.2,0.1,0.3,0c0.1-0.1,0.1-0.2,0.1-0.3l-0.3-0.8l0.7-0.5
							c0.1-0.1,0.1-0.2,0.1-0.3c0-0.1-0.1-0.2-0.3-0.2h-0.8l-0.3-0.8c-0.1-0.2-0.5-0.2-0.5,0L53.7,27.1L53.7,27.1z"/>
					</g>
				</g>
			</g>
		</g>
		<g>
			<g>
				<g>
					<path fill="#7a029f" d="M54.8,38.2v-4.6c0-0.3,0.2-0.5,0.5-0.5h4.6c0.3,0,0.5,0.2,0.5,0.5v4.6c0,0.3-0.2,0.5-0.5,0.5h-4.6
						C55,38.7,54.8,38.5,54.8,38.2z M59.4,34.1h-3.6v3.6h3.6V34.1z"/>
				</g>
			</g>
		</g>
		<g>
			<g>
				<g>
					<path fill="#7a029f" d="M54.8,46v-4.6c0-0.3,0.2-0.5,0.5-0.5h4.6c0.3,0,0.5,0.2,0.5,0.5V46c0,0.3-0.2,0.5-0.5,0.5h-4.6
						C55,46.5,54.8,46.3,54.8,46z M59.4,41.9h-3.6v3.6h3.6V41.9z"/>
				</g>
			</g>
		</g>
		<g>
			<g>
				<g>
					<path fill="#7a029f" d="M54.8,53.9v-4.6c0-0.3,0.2-0.5,0.5-0.5h4.6c0.3,0,0.5,0.2,0.5,0.5v4.6c0,0.3-0.2,0.5-0.5,0.5h-4.6
						C55,54.4,54.8,54.1,54.8,53.9z M59.4,49.8h-3.6v3.6h3.6V49.8z"/>
				</g>
			</g>
		</g>
	</g>
</g>
</svg>
