<?xml version="1.0" encoding="utf-8"?>
<!-- Generator: Adobe Illustrator 18.0.0, SVG Export Plug-In . SVG Version: 6.00 Build 0)  -->
<!DOCTYPE svg PUBLIC "-//W3C//DTD SVG 1.1//EN" "http://www.w3.org/Graphics/SVG/1.1/DTD/svg11.dtd">
<svg version="1.1" id="Layer_1" xmlns="http://www.w3.org/2000/svg" xmlns:xlink="http://www.w3.org/1999/xlink" x="0px" y="0px"
	 viewBox="0 0 64 64" enable-background="new 0 0 64 64" xml:space="preserve">
<g>
	<g>
		<g>
			<path fill="#7a029f" d="M44,7.7h-6.9c0,1.2-0.5,2.3-1.3,3.2c-0.9,0.8-2,1.3-3.2,1.3H16.9c-2.5,0-4.5-2-4.5-4.5H5.4
				c-1.7,0-3,1.3-3,3V61c0,1.6,1.3,3,3,3H44c1.7,0,3-1.4,3-3V10.7C47,9,45.7,7.7,44,7.7z M44,61H5.4V10.7H10
				c1.2,2.6,3.8,4.5,6.9,4.5h15.8c2,0,3.9-0.8,5.3-2.2c0.7-0.7,1.2-1.4,1.6-2.3H44V61z"/>
			<path fill="#7a029f" d="M32.6,5.2h-3.4c0-0.2,0.1-0.4,0.1-0.7c0-2.5-2-4.5-4.5-4.5c-2.5,0-4.5,2-4.5,4.5c0,0.2,0,0.4,0,0.7h-3.4
				c-0.7,0-1.3,0.3-1.8,0.7c-0.5,0.4-0.7,1.1-0.7,1.8c0,1.4,1.1,2.5,2.5,2.5h15.8c0.7,0,1.3-0.3,1.8-0.7c0.5-0.5,0.7-1.1,0.7-1.8
				C35.1,6.3,34,5.2,32.6,5.2z M24.7,6.9c-1.3,0-2.4-1.1-2.4-2.4c0-1.3,1.1-2.4,2.4-2.4c1.3,0,2.4,1.1,2.4,2.4
				C27.1,5.8,26,6.9,24.7,6.9z"/>
		</g>
		
			<rect x="7.8" y="17.8" fill="none" stroke="#7a029f" stroke-linecap="round" stroke-linejoin="round" stroke-miterlimit="10" width="7.5" height="7.5"/>
		<g>
			
				<line fill="none" stroke="#7a029f" stroke-linecap="round" stroke-linejoin="round" stroke-miterlimit="10" x1="20.5" y1="18.7" x2="41.7" y2="18.7"/>
			
				<line fill="none" stroke="#7a029f" stroke-linecap="round" stroke-linejoin="round" stroke-miterlimit="10" x1="20.5" y1="21.5" x2="41.7" y2="21.5"/>
			
				<line fill="none" stroke="#7a029f" stroke-linecap="round" stroke-linejoin="round" stroke-miterlimit="10" x1="20.5" y1="24.4" x2="29.8" y2="24.4"/>
		</g>
		
			<rect x="7.8" y="29" fill="none" stroke="#7a029f" stroke-linecap="round" stroke-linejoin="round" stroke-miterlimit="10" width="7.5" height="7.5"/>
		
			<line fill="none" stroke="#7a029f" stroke-linecap="round" stroke-linejoin="round" stroke-miterlimit="10" x1="20.5" y1="30" x2="41.7" y2="30"/>
		
			<line fill="none" stroke="#7a029f" stroke-linecap="round" stroke-linejoin="round" stroke-miterlimit="10" x1="20.5" y1="32.8" x2="41.7" y2="32.8"/>
		
			<line fill="none" stroke="#7a029f" stroke-linecap="round" stroke-linejoin="round" stroke-miterlimit="10" x1="20.5" y1="35.6" x2="29.8" y2="35.6"/>
		
			<rect x="7.8" y="40.3" fill="none" stroke="#7a029f" stroke-linecap="round" stroke-linejoin="round" stroke-miterlimit="10" width="7.5" height="7.5"/>
		<g>
			
				<line fill="none" stroke="#7a029f" stroke-linecap="round" stroke-linejoin="round" stroke-miterlimit="10" x1="20.5" y1="41.2" x2="41.7" y2="41.2"/>
			
				<line fill="none" stroke="#7a029f" stroke-linecap="round" stroke-linejoin="round" stroke-miterlimit="10" x1="20.5" y1="44.1" x2="41.7" y2="44.1"/>
			
				<line fill="none" stroke="#7a029f" stroke-linecap="round" stroke-linejoin="round" stroke-miterlimit="10" x1="20.5" y1="46.9" x2="29.8" y2="46.9"/>
		</g>
		
			<rect x="7.8" y="51.5" fill="none" stroke="#7a029f" stroke-linecap="round" stroke-linejoin="round" stroke-miterlimit="10" width="7.5" height="7.5"/>
		<g>
			
				<line fill="none" stroke="#7a029f" stroke-linecap="round" stroke-linejoin="round" stroke-miterlimit="10" x1="20.5" y1="52.5" x2="41.7" y2="52.5"/>
			
				<line fill="none" stroke="#7a029f" stroke-linecap="round" stroke-linejoin="round" stroke-miterlimit="10" x1="20.5" y1="55.3" x2="41.7" y2="55.3"/>
			
				<line fill="none" stroke="#7a029f" stroke-linecap="round" stroke-linejoin="round" stroke-miterlimit="10" x1="20.5" y1="58.1" x2="29.8" y2="58.1"/>
		</g>
		<polyline fill="none" stroke="#7a029f" stroke-linecap="round" stroke-linejoin="round" stroke-miterlimit="10" points="9.1,21.7 
			10.6,23.2 14,19.8 		"/>
		<g>
			
				<line fill="none" stroke="#7a029f" stroke-linecap="round" stroke-linejoin="round" stroke-miterlimit="10" x1="13" y1="42.6" x2="10.1" y2="45.5"/>
			
				<line fill="none" stroke="#7a029f" stroke-linecap="round" stroke-linejoin="round" stroke-miterlimit="10" x1="13" y1="45.5" x2="10.1" y2="42.6"/>
		</g>
	</g>
	<path fill="#7a029f" d="M60.6,17.6v-0.9c0.6,0,1-0.4,1-1c0-0.6-0.4-1-1-1v-2.5c0-1.6-1.3-2.9-2.9-2.9h-2.9c-1.6,0-2.9,1.3-2.9,2.9
		v2.5c-0.6,0-1,0.4-1,1c0,0.6,0.4,1,1,1v0.9c-0.6,0-1,0.4-1,1c0,0.6,0.4,1,1,1v36.2c0,0.3,0.1,0.6,0.2,0.9l3.4,6.1
		c0.3,0.5,1.1,0.5,1.4,0l3.4-6.1c0.2-0.3,0.2-0.6,0.2-0.9V19.6c0.6,0,1-0.4,1-1C61.6,18.1,61.1,17.6,60.6,17.6z M54.7,54.3
		c-0.3,0-0.5-0.2-0.5-0.5V19.6h1v34.2C55.2,54.1,54.9,54.3,54.7,54.3z M58.3,53.8c0,0.3-0.2,0.5-0.5,0.5c-0.3,0-0.5-0.2-0.5-0.5
		V19.6h1V53.8z"/>
</g>
</svg>
