<?xml version="1.0" encoding="utf-8"?>
<!-- Generator: Adobe Illustrator 18.0.0, SVG Export Plug-In . SVG Version: 6.00 Build 0)  -->
<!DOCTYPE svg PUBLIC "-//W3C//DTD SVG 1.1//EN" "http://www.w3.org/Graphics/SVG/1.1/DTD/svg11.dtd">
<svg version="1.1" id="Layer_1" xmlns="http://www.w3.org/2000/svg" xmlns:xlink="http://www.w3.org/1999/xlink" x="0px" y="0px"
	 viewBox="0 0 64 64" enable-background="new 0 0 64 64" xml:space="preserve">
<g>
	<g>
		<path fill="#7a029f" d="M56.2,22.4h-2.8c-0.3,0-0.5-0.2-0.6-0.5c-0.1-0.8-0.3-1.7-0.5-2.5c0-0.3,0.1-0.6,0.4-0.7l2.6-1.1
			c0.3-0.1,0.4-0.5,0.3-0.7l-1.3-3.3c-0.1-0.3-0.5-0.4-0.8-0.3l-2.6,1.1c-0.3,0.1-0.6,0-0.7-0.2c-0.4-0.8-0.9-1.4-1.4-2.1
			c-0.2-0.2-0.2-0.5,0-0.7l2-2c0.2-0.2,0.2-0.6,0-0.8L48.3,6c-0.2-0.2-0.6-0.2-0.8,0l-2,2c-0.2,0.2-0.5,0.2-0.7,0.1l-2.2-1.5
			c-0.3-0.2-0.3-0.4-0.2-0.7l1.1-2.6c0.1-0.3,0-0.6-0.3-0.8l-3.3-1.4c-0.3-0.1-0.6,0-0.7,0.3L38,4.1c-0.1,0.3-0.4,0.4-0.6,0.4
			c-0.7-0.2-1.8-0.5-2.6-0.6c-0.3,0-0.5-0.3-0.5-0.5V0.6c0-0.4-0.3-0.6-0.6-0.6h-3.6c-0.3,0-0.6,0.2-0.6,0.6v2.8
			c0,0.3-0.2,0.5-0.5,0.5c-0.9,0.2-1.7,0.3-2.5,0.6c-0.3,0-0.5-0.1-0.7-0.4l-1.1-2.6c-0.1-0.3-0.4-0.4-0.7-0.3l-3.3,1.4
			c-0.3,0.1-0.5,0.5-0.3,0.8l1.1,2.6c0.1,0.3,0,0.5-0.2,0.7l-2.2,1.5c-0.2,0.1-0.5,0.1-0.7-0.1l-2-2c-0.2-0.2-0.6-0.2-0.8,0
			l-2.5,2.5c-0.2,0.2-0.2,0.6,0,0.8l2,2c0.2,0.2,0.2,0.6,0.1,0.7c-0.5,0.7-1,1.4-1.4,2.1c-0.1,0.2-0.5,0.3-0.7,0.2l-2.6-1.1
			c-0.3-0.1-0.6,0.1-0.8,0.3l-1.4,3.3c-0.1,0.3,0,0.6,0.3,0.7l2.6,1.1c0.3,0.1,0.4,0.4,0.3,0.7c-0.1,0.6-0.4,1.8-0.5,2.5
			c-0.1,0.3-0.3,0.5-0.6,0.5H7.8c-0.3,0-0.6,0.2-0.6,0.6v3.5c0,0.3,0.3,0.6,0.6,0.6h2.8c0.3,0,0.5,0.2,0.6,0.5
			c0.1,0.7,0.4,1.9,0.5,2.5c0.1,0.3-0.1,0.5-0.4,0.6l-2.6,1.1c-0.3,0.1-0.5,0.5-0.3,0.8l1.4,3.2c0.1,0.3,0.4,0.4,0.8,0.3l2.6-1.1
			c0.2-0.1,0.5,0,0.7,0.2c0.4,0.6,1,1.6,1.4,2.2c0.2,0.2,0.1,0.6-0.1,0.7l-2,2c-0.2,0.2-0.2,0.6,0,0.8l2.5,2.5
			c0.2,0.2,0.6,0.2,0.8,0l2-2c0.2-0.2,0.5-0.2,0.7,0l1.4,0.9c0.6-0.7,1.3-1.3,1.8-1.6c-0.1-1.5-0.2-3-0.2-4.5
			c-3.2-2.8-5.3-6.9-5.3-11.4c0-8.3,6.7-15.1,15.1-15.1s15.1,6.8,15.1,15.1c0,4.6-2,8.7-5.3,11.4c0,1.5-0.1,3-0.2,4.5
			c0.5,0.4,1.2,1,1.8,1.7c0.5-0.3,0.9-0.6,1.3-0.9c0.2-0.2,0.5-0.1,0.7,0.1l2,2c0.2,0.2,0.6,0.2,0.8,0l2.5-2.5
			c0.2-0.2,0.2-0.6,0-0.8l-2-2c-0.2-0.2-0.2-0.5,0-0.7c0.5-0.7,1-1.4,1.4-2.1c0.1-0.3,0.4-0.3,0.7-0.3l2.6,1.1
			c0.3,0.1,0.6,0,0.8-0.3l1.3-3.2c0.1-0.3,0-0.6-0.3-0.8l-2.6-1.1c-0.3-0.1-0.4-0.4-0.4-0.7c0.2-0.8,0.4-1.7,0.5-2.5
			c0-0.3,0.3-0.5,0.6-0.5h2.8c0.3,0,0.6-0.3,0.6-0.6V23C56.8,22.6,56.5,22.4,56.2,22.4z"/>
	</g>
	<g>
		<path fill="#7a029f" d="M32.4,14.3c-0.2-0.3-0.6-0.3-0.8,0c-0.9,1.2-3,4.3-4.7,8.6h10.2C35.4,18.6,33.3,15.5,32.4,14.3z"/>
		<path fill="#7a029f" d="M32,29.8c-2,0-3.6,1.6-3.6,3.6c0,2,1.6,3.6,3.6,3.6c2,0,3.6-1.6,3.6-3.6C35.6,31.4,34,29.8,32,29.8z"/>
		<path fill="#7a029f" d="M39.5,41.7c0.2-1.9,0.3-3.9,0.3-6c0-3.9-0.8-7.6-1.9-10.8H26.1c-1.1,3.2-1.9,6.9-1.9,10.8
			c0,2.1,0.1,4.1,0.3,6c-1,0.5-6.8,4.2-4.6,13.5c0,0,0.1,0.1,0.1,0l6.2-4.8c0.1,0.2,0.1,0.4,0.2,0.6c0.1,0.2,0.3,0.4,0.5,0.4h10.2
			c0.2,0,0.4-0.2,0.5-0.4c0.1-0.2,0.1-0.4,0.2-0.6l6.2,4.8c0,0,0.1,0,0.1,0C46.3,45.8,40.5,42.2,39.5,41.7z M32,38.4
			c-2.8,0-5-2.2-5-5c0-2.8,2.2-5,5-5c2.8,0,5,2.2,5,5C37,36.1,34.8,38.4,32,38.4z"/>
		<path fill="#7a029f" d="M35.7,55.6c0.2-0.4,0.1-0.9,0-1.4c-0.2-0.7-0.6-1.3-1.2-1.6c-0.3-0.2-0.7-0.4-1-0.6
			c0.1,0.1,0.1,0.3,0.2,0.4c0.1,0.2,0.1,0.5,0,0.7c-0.4,1.2,0.2,2,0.2,2c-0.1,0-0.9-0.4-1.2-1c-0.2,0.5-0.5,1.9-0.1,3.2
			c0,0-1.5,0.1-2.2-1.9c0,0-0.6,0.9,0,1.8c-0.1,0-1.2-0.6-0.9-3.7c0.1-0.6,0.3-1.2,0.7-1.7c-0.1,0-0.1,0.1-0.2,0.1
			c-0.2,0.1-0.5,0.3-0.8,0.6c-1,1-1.7,2.4-1.8,3.9c-0.6,6.3,1.8,7.4,1.8,7.4c-1.1-1.7,0.1-3.5,0.1-3.5c1.3,3.9,4.3,3.7,4.3,3.7
			c-0.8-2.7-0.2-5.4,0.1-6.4c0.6,1.2,2.1,1.9,2.4,1.9C36.2,59.5,34.9,57.9,35.7,55.6z"/>
	</g>
</g>
</svg>
