<?xml version="1.0" encoding="utf-8"?>
<!-- Generator: Adobe Illustrator 18.0.0, SVG Export Plug-In . SVG Version: 6.00 Build 0)  -->
<!DOCTYPE svg PUBLIC "-//W3C//DTD SVG 1.1//EN" "http://www.w3.org/Graphics/SVG/1.1/DTD/svg11.dtd">
<svg version="1.1" id="Layer_1" xmlns="http://www.w3.org/2000/svg" xmlns:xlink="http://www.w3.org/1999/xlink" x="0px" y="0px"
	 viewBox="0 0 64 64" enable-background="new 0 0 64 64" xml:space="preserve">
<g>
	<g>
		<path fill="#7a029f" d="M44.9,30.8l-1.7-0.3c-0.3,0-0.6-0.3-0.6-0.6c-0.2-0.9-0.6-1.8-1.1-2.6c-0.2-0.3-0.2-0.6,0-0.9l1-1.4
			c0.2-0.3,0.2-0.8-0.1-1l-1.7-1.7c-0.3-0.3-0.7-0.3-1-0.1l-1.4,1c-0.3,0.2-0.6,0.2-0.9,0c-0.8-0.5-1.7-0.8-2.6-1.1
			c-0.3-0.1-0.5-0.3-0.6-0.6L34,19.8c-0.1-0.4-0.4-0.7-0.8-0.7h-2.4c-0.4,0-0.7,0.3-0.8,0.7l-0.3,1.7c0,0.3-0.3,0.6-0.6,0.6
			c-0.9,0.2-1.8,0.6-2.6,1.1c-0.3,0.2-0.6,0.2-0.9,0l-1.4-1c-0.3-0.2-0.8-0.2-1,0.1L21.5,24c-0.3,0.3-0.3,0.7-0.1,1l1,1.4
			c0.2,0.3,0.2,0.6,0,0.9c-0.5,0.8-0.8,1.7-1.1,2.6c-0.1,0.3-0.3,0.5-0.6,0.6l-1.7,0.3c-0.4,0.1-0.7,0.4-0.7,0.8V34
			c0,0.4,0.3,0.7,0.7,0.8l1.7,0.3c0.3,0,0.6,0.3,0.6,0.6c0.2,0.9,0.6,1.8,1.1,2.6c0.2,0.3,0.2,0.6,0,0.9l-1,1.4
			c-0.2,0.3-0.2,0.8,0.1,1l1.7,1.7c0.3,0.3,0.7,0.3,1,0.1l1.4-1c0.3-0.2,0.6-0.2,0.9,0c0.8,0.5,1.7,0.8,2.6,1.1
			c0.3,0.1,0.5,0.3,0.6,0.6l0.3,1.7c0.1,0.4,0.4,0.7,0.8,0.7h2.4c0.4,0,0.7-0.3,0.8-0.7l0.3-1.7c0-0.3,0.3-0.6,0.6-0.6
			c0.9-0.2,1.8-0.6,2.6-1.1c0.3-0.2,0.6-0.2,0.9,0l1.4,1c0.3,0.2,0.8,0.2,1-0.1l1.7-1.7c0.3-0.3,0.3-0.7,0.1-1l-1-1.4
			c-0.2-0.3-0.2-0.6,0-0.9c0.5-0.8,0.8-1.7,1.1-2.6c0.1-0.3,0.3-0.5,0.6-0.6l1.7-0.3c0.4-0.1,0.7-0.4,0.7-0.8v-2.4
			C45.6,31.2,45.3,30.8,44.9,30.8z M32.9,24.3c1.7,0.2,3.3,0.9,4.5,1.9l-1.7,1.7c-0.8-0.6-1.8-1-2.8-1.2V24.3z M31.1,24.3v2.5
			c-1,0.2-2,0.6-2.8,1.2l-1.7-1.7C27.9,25.1,29.4,24.5,31.1,24.3z M25.4,27.4l1.7,1.7c-0.6,0.8-1,1.8-1.1,2.8h-2.5
			C23.7,30.2,24.4,28.6,25.4,27.4z M25.4,38.1c-1-1.3-1.7-2.8-1.9-4.5H26c0.1,1,0.5,2,1.1,2.8L25.4,38.1z M31.1,41.2
			c-1.7-0.2-3.3-0.9-4.5-1.9l1.7-1.7c0.8,0.6,1.8,1,2.8,1.2V41.2z M27.6,32.8c0-2.4,2-4.4,4.4-4.4c2.4,0,4.4,2,4.4,4.4
			c0,2.4-2,4.4-4.4,4.4C29.6,37.2,27.6,35.2,27.6,32.8z M32.9,41.2v-2.5c1-0.1,2-0.5,2.8-1.2l1.7,1.7C36.1,40.4,34.6,41.1,32.9,41.2
			z M38.6,38.1l-1.7-1.7c0.6-0.8,1-1.8,1.1-2.8h2.5C40.3,35.3,39.6,36.9,38.6,38.1z M38,31.9c-0.1-1-0.5-2-1.1-2.8l1.7-1.7
			c1,1.3,1.7,2.8,1.9,4.5H38z"/>
		<path fill="#7a029f" d="M35.1,32.8c0,1.7-1.4,3.1-3.1,3.1s-3.1-1.4-3.1-3.1c0-1.7,1.4-3.1,3.1-3.1S35.1,31,35.1,32.8z"/>
	</g>
	<g>
		<path fill="#7a029f" d="M48.5,40.2c-2.1,4.7-6.3,8.4-11.3,9.9c0.2,0.5,0.2,1.1,0.1,1.7c0,0,0,0.1,0,0.1c0.1,0,0.2,0,0.2-0.1
			c0,0,0,0,0,0c5.7-1.7,10.3-5.8,12.7-11.2C49.6,40.7,49,40.5,48.5,40.2z M32,51.1l0.1-0.2h-0.1L32,51.1z M15.5,40.2
			c-0.5,0.3-1.1,0.4-1.7,0.5c2.3,5.4,7,9.5,12.7,11.2c0,0,0,0,0,0c0.1,0,0.2,0.1,0.2,0.1c0,0,0-0.1,0-0.1c-0.1-0.6-0.1-1.2,0.1-1.7
			C21.7,48.6,17.6,44.9,15.5,40.2z M24.5,15.1v-0.7c-4.2,1.7-7.6,4.8-9.8,8.7c0.3,0.6,0.4,1.3,0.4,1.9c0.1,0.2,0.2,0.5,0.2,0.7
			c1.8-4.2,5.1-7.6,9.3-9.5C24.5,15.8,24.5,15.4,24.5,15.1z M39.5,14.3v0.7c0,0.4-0.1,0.8-0.2,1.1c4.2,1.9,7.5,5.3,9.3,9.5
			c0-0.2,0.1-0.5,0.2-0.7c0-0.7,0.2-1.3,0.4-1.9C47.1,19.1,43.7,16,39.5,14.3z M31.9,50.9l0.1,0.2l0.1-0.2H31.9z"/>
	</g>
	<path fill="#7a029f" d="M35.4,4.5c-0.1,0.3-0.2,0.6-0.4,0.7l0,0.3C34.8,7,33.5,8.1,32,8.1c-1.5,0-2.8-1.1-2.9-2.6l0-0.3
		c-0.2-0.2-0.4-0.4-0.4-0.7c-0.1-0.4,0-0.7,0.2-0.8l0-0.1C28.6,1.7,30.1,0,32,0c1.8,0,3.2,1.4,3.2,3.2c0,0.1,0,0.2,0,0.4l0,0.1
		C35.4,3.8,35.5,4.1,35.4,4.5z"/>
	<path fill="#7a029f" d="M37.5,10.9v4.2c0,1.1-0.9,2-2,2h-7c-1.1,0-2-0.9-2-2v-4.2c0-1.2,1.9-1.8,4.2-2l1.4,3.9l1.4-3.9
		C35.6,9,37.5,9.7,37.5,10.9z"/>
	<g>
		<polygon fill="#7a029f" points="32.1,50.9 32,51.1 31.9,50.9 		"/>
		<path fill="#7a029f" d="M35.4,51.4c-0.1,0.3-0.2,0.6-0.4,0.7l0,0.3C34.8,53.9,33.5,55,32,55c-1.5,0-2.8-1.1-2.9-2.6l0-0.3
			c-0.2-0.2-0.4-0.4-0.4-0.7c-0.1-0.4,0-0.7,0.2-0.8l0-0.1c-0.2-1.9,1.3-3.5,3.2-3.5c1.8,0,3.2,1.4,3.2,3.2c0,0.1,0,0.2,0,0.4l0,0.1
			C35.4,50.7,35.5,51,35.4,51.4z"/>
		<path fill="#7a029f" d="M37.5,57.7V62c0,1.1-0.9,2-2,2h-7c-1.1,0-2-0.9-2-2v-4.2c0-1.2,1.9-1.8,4.2-2l1.4,3.9l1.4-3.9
			C35.6,55.9,37.5,56.6,37.5,57.7z"/>
	</g>
	<g>
		<g>
			<path fill="#7a029f" d="M57.2,26.3c-0.1,0.3-0.2,0.6-0.4,0.7l0,0.3c-0.2,1.5-1.4,2.6-2.9,2.6c-1.5,0-2.8-1.1-2.9-2.6l0-0.3
				c-0.2-0.2-0.4-0.4-0.4-0.7c-0.1-0.4,0-0.7,0.2-0.8l0-0.1c-0.2-1.9,1.3-3.5,3.2-3.5c1.8,0,3.2,1.4,3.2,3.2c0,0.1,0,0.2,0,0.4
				l0,0.1C57.2,25.6,57.3,25.9,57.2,26.3z"/>
		</g>
		<path fill="#7a029f" d="M59.4,32.7v4.2c0,1.1-0.9,2-2,2h-7c-1.1,0-2-0.9-2-2v-4.2c0-1.2,1.9-1.8,4.2-2l1.4,3.9l1.4-3.9
			C57.4,30.9,59.4,31.5,59.4,32.7z"/>
	</g>
	<g>
		<g>
			<path fill="#7a029f" d="M13.6,26.3c-0.1,0.3-0.2,0.6-0.4,0.7l0,0.3c-0.2,1.5-1.4,2.6-2.9,2.6c-1.5,0-2.8-1.1-2.9-2.6l0-0.3
				c-0.2-0.2-0.4-0.4-0.4-0.7c-0.1-0.4,0-0.7,0.2-0.8l0-0.1c-0.2-1.9,1.3-3.5,3.2-3.5c1.8,0,3.2,1.4,3.2,3.2c0,0.1,0,0.2,0,0.4
				l0,0.1C13.5,25.6,13.7,25.9,13.6,26.3z"/>
		</g>
		<path fill="#7a029f" d="M15.7,32.7v4.2c0,1.1-0.9,2-2,2h-7c-1.1,0-2-0.9-2-2v-4.2c0-1.2,1.9-1.8,4.2-2l1.4,3.9l1.4-3.9
			C13.8,30.9,15.7,31.5,15.7,32.7z"/>
	</g>
</g>
</svg>
