<?xml version="1.0" encoding="utf-8"?>
<!-- Generator: Adobe Illustrator 18.0.0, SVG Export Plug-In . SVG Version: 6.00 Build 0)  -->
<!DOCTYPE svg PUBLIC "-//W3C//DTD SVG 1.1//EN" "http://www.w3.org/Graphics/SVG/1.1/DTD/svg11.dtd">
<svg version="1.1" id="Layer_1" xmlns="http://www.w3.org/2000/svg" xmlns:xlink="http://www.w3.org/1999/xlink" x="0px" y="0px"
	 viewBox="0 0 64 64" enable-background="new 0 0 64 64" xml:space="preserve">
<g>
	<rect x="49" y="46.1" fill="#7a029f" width="3.4" height="1"/>
	<path fill="#7a029f" d="M50.7,38.4c-2.2,0-3.3,0.8-3.3,2.4c0,0.9,0.3,1.9,0.9,2.7c0.4,0.6,0.6,1.2,0.7,1.8c0,0.2,0.2,0.3,0.3,0.3
		h2.8c0.2,0,0.3-0.1,0.3-0.3c0.1-0.6,0.3-1.2,0.7-1.8c0.6-0.8,0.9-1.8,0.9-2.7C54,39.2,52.9,38.4,50.7,38.4z"/>
	<path fill="#7a029f" d="M49,48.1c0,0.2,0.1,0.3,0.3,0.3H50c0.1,0.3,0.4,0.4,0.7,0.4c0.3,0,0.6-0.1,0.7-0.4h0.7
		c0.2,0,0.3-0.1,0.3-0.3v-0.7H49V48.1z"/>
	<path fill="#7a029f" d="M60.8,42.6h-1.2c-0.1,0-0.2-0.1-0.2-0.2c-0.1-0.4-0.1-0.7-0.2-1c0-0.1,0-0.2,0.1-0.3l1.1-0.4
		c0.1-0.1,0.2-0.2,0.1-0.3L60,39c-0.1-0.1-0.2-0.2-0.3-0.1l-1.1,0.5c-0.1,0-0.2,0-0.3-0.1c-0.2-0.3-0.4-0.6-0.6-0.9
		c-0.1-0.1-0.1-0.2,0-0.3l0.8-0.8c0.1-0.1,0.1-0.2,0-0.3l-1-1c-0.1-0.1-0.2-0.1-0.3,0l-0.8,0.8c-0.1,0.1-0.2,0.1-0.3,0L55.1,36
		C55,36,55,35.8,55,35.7l0.5-1.1c0.1-0.1,0-0.3-0.1-0.3L54,33.8c-0.1-0.1-0.3,0-0.3,0.1L53.2,35c0,0.1-0.2,0.2-0.3,0.1
		c-0.3-0.1-0.8-0.2-1.1-0.2c-0.1,0-0.2-0.1-0.2-0.2v-1.2c0-0.1-0.1-0.2-0.2-0.2h-1.5c-0.1,0-0.2,0.1-0.2,0.2v1.2
		c0,0.1-0.1,0.2-0.2,0.2c-0.4,0.1-0.7,0.1-1.1,0.2c-0.1,0-0.2,0-0.3-0.1l-0.5-1.1c0-0.1-0.2-0.2-0.3-0.1L46,34.3
		c-0.1,0.1-0.2,0.2-0.1,0.3l0.5,1.1c0,0.1,0,0.2-0.1,0.3l-0.9,0.6c-0.1,0.1-0.2,0-0.3,0l-0.8-0.8c-0.1-0.1-0.2-0.1-0.3,0l-1,1
		c-0.1,0.1-0.1,0.2,0,0.3l0.8,0.8c0.1,0.1,0.1,0.2,0,0.3c-0.2,0.3-0.4,0.6-0.6,0.9c-0.1,0.1-0.2,0.1-0.3,0.1l-1.1-0.5
		c-0.1,0-0.3,0-0.3,0.1l-0.6,1.4c-0.1,0.1,0,0.3,0.1,0.3l1.1,0.4c0.1,0,0.2,0.2,0.1,0.3c-0.1,0.3-0.2,0.8-0.2,1.1
		c0,0.1-0.1,0.2-0.2,0.2h-1.2c-0.1,0-0.2,0.1-0.2,0.2v1.5c0,0.1,0.1,0.2,0.2,0.2h1.2c0.1,0,0.2,0.1,0.2,0.2c0,0.3,0.1,0.8,0.2,1.1
		c0,0.1,0,0.2-0.1,0.3L41,46.6c-0.1,0.1-0.2,0.2-0.1,0.3l0.6,1.4c0.1,0.1,0.2,0.2,0.3,0.1l1.1-0.4c0.1,0,0.2,0,0.3,0.1
		c0.1,0.2,0.4,0.7,0.6,0.9c0.1,0.1,0.1,0.2,0,0.3l-0.8,0.8c-0.1,0.1-0.1,0.2,0,0.3l1,1c0.1,0.1,0.2,0.1,0.3,0l0.8-0.8
		c0.1-0.1,0.2-0.1,0.3,0l0.9,0.6c0.1,0.1,0.1,0.2,0.1,0.3l-0.5,1.1c-0.1,0.1,0,0.3,0.1,0.3l1.4,0.6c0.1,0,0.3,0,0.3-0.1l0.5-1.1
		c0.1-0.1,0.2-0.2,0.3-0.1c0.3,0.1,0.8,0.2,1.1,0.2c0.1,0,0.2,0.1,0.2,0.2v1.2c0,0.1,0.1,0.2,0.2,0.2h1.5c0.1,0,0.2-0.1,0.2-0.2
		v-1.2c0-0.1,0.1-0.2,0.2-0.2c0.4,0,0.7-0.1,1.1-0.2c0.1,0,0.2,0,0.3,0.1l0.4,1.1c0.1,0.1,0.2,0.2,0.3,0.1l1.4-0.6
		c0.1-0.1,0.2-0.2,0.1-0.3L55,51.5c0-0.1,0-0.2,0.1-0.3c0.3-0.2,0.6-0.4,0.9-0.6c0.1-0.1,0.2-0.1,0.3,0l0.8,0.8
		c0.1,0.1,0.2,0.1,0.3,0l1-1c0.1-0.1,0.1-0.2,0-0.3l-0.8-0.8c-0.1-0.1-0.1-0.2,0-0.3c0.2-0.3,0.4-0.6,0.6-0.9
		c0.1-0.1,0.2-0.1,0.3-0.1l1.1,0.4c0.1,0.1,0.3,0,0.3-0.1l0.6-1.4c0.1-0.1,0-0.3-0.1-0.3l-1.1-0.4c-0.1,0-0.2-0.2-0.1-0.3
		c0.1-0.3,0.2-0.7,0.2-1c0-0.1,0.1-0.2,0.2-0.2h1.2c0.1,0,0.2-0.1,0.2-0.2v-1.5C61,42.7,60.9,42.6,60.8,42.6z M50.7,50.3
		c-3.7,0-6.6-3-6.6-6.6c0-3.7,3-6.7,6.6-6.7c3.7,0,6.7,3,6.7,6.7C57.3,47.3,54.3,50.3,50.7,50.3z"/>
	<path fill="#7a029f" d="M49,5.3c-5.3,0-9.6,4.3-9.6,9.6c0,5.3,4.3,9.6,9.6,9.6c5.3,0,9.6-4.3,9.6-9.6C58.7,9.6,54.4,5.3,49,5.3z
		 M56.8,13.8c0.1,0.4,0.1,0.7,0.1,1.1c0,4.4-3.5,7.9-7.9,7.9c-1.3,0-2.5-0.3-3.6-0.9v0v0c0-0.9-0.1-1.8-0.1-2.8
		c-0.3,0.1-0.7-0.1-0.9-0.4c-0.2-0.3-0.4-0.6-0.5-0.9c-0.1-0.3-0.3-0.6-0.6-0.8c-0.2-0.2-0.6-0.2-0.8-0.4l-0.1,0.1
		c-0.3,0-0.7,0-1,0.1c-0.2-0.6-0.3-1.3-0.3-2c0-2.1,0.8-4,2.2-5.4c0,0,0,0,0.1,0c0.3,0.1,0.7,0.1,1,0.1c0.1,0,0.2,0,0.2-0.1
		c0,0,0-0.1,0-0.2c0.1-0.2,0.3-0.1,0.5,0c0.2,0.1,0.4,0.2,0.5,0c0.1-0.1,0-0.3,0.1-0.4c0-0.2,0.2-0.4,0.5-0.5
		c0.2-0.1,0.5-0.1,0.7-0.2c0.2-0.1,0.4-0.3,0.5-0.6l0.1-0.1c-0.3,0-0.5,0.1-0.8,0.1c-0.3,0-0.6,0-0.9,0c1-0.5,2.1-0.7,3.3-0.7
		c0.5,0,1,0,1.4,0.1c-0.2,0.2-0.4,0.3-0.6,0.5c-0.1,0.1-0.3,0.3-0.2,0.5c0.1,0.2,0.4,0.2,0.6,0.3c0,0.1-0.1,0.3-0.1,0.4
		c0.4-0.1,0.9,0.2,1,0.6c0.2-0.1,0.3-0.2,0.4-0.4C51.6,9,51.8,8.9,51.9,9c0.2,0.2,0.1,0.5,0,0.6c-0.1,0.2-0.4,0.3-0.6,0.3
		c-0.2,0-0.4-0.1-0.6-0.2c-0.2-0.1-0.5-0.1-0.6,0c-0.2,0.2-0.3,0.6-0.5,0.7l0,0C49.3,10.7,49,11,48.7,11c-0.1,0-0.1,0-0.2,0
		c-0.2,0.1-0.2,0.5,0,0.7c0.2,0.2,0.5,0.2,0.7,0.2c0.1,0,0.1,0,0.2,0c0.1-0.1,0.2-0.2,0.3-0.4c0.3-0.5,1-0.6,1.4-0.2
		c0.2,0.2,0.4,0.4,0.6,0.3c-0.2-0.1-0.4-0.3-0.6-0.5c-0.1-0.1-0.1-0.1-0.1-0.2c0-0.2,0.3-0.2,0.4-0.1c0.1,0.1,0.2,0.3,0.3,0.5
		c0.1,0.1,0.2,0.2,0.3,0.3c0.2,0.1,0.4,0.2,0.5,0c0.1-0.1,0.1-0.2,0.1-0.2c0.1-0.1,0.3-0.2,0.4-0.3c0.2-0.1,0.2-0.3,0.4-0.4
		c0.2-0.2,0.6-0.3,0.8-0.2c0.3,0.1,0.5,0.4,0.5,0.7c0,0,0,0.1,0,0.1c0,0.1-0.1,0.1-0.2,0.1l-0.6,0.1c-0.3,0-0.6,0.1-0.7,0.3
		c-0.1,0.2,0,0.4,0.1,0.5c0.2,0.1,0.4,0.1,0.6-0.1c0.1,0,0.1,0.2,0,0.3c0,0.1-0.1,0.2-0.1,0.3c0,0,0,0.1,0.1,0.1
		c0.3,0.5,0.7,1,1,1.5c0.1,0.2,0.3,0.4,0.5,0.5c0.2,0.2,0.4,0.2,0.7,0.2c0.3-0.1,0.5-0.5,0.6-0.8c0,0,0-0.1,0-0.2
		c0-0.1-0.1-0.1-0.2-0.1c-0.4-0.1-0.8-0.6-0.6-1c0.1,0,0.2,0,0.3,0.1C56.4,13.4,56.6,13.6,56.8,13.8z"/>
	<path fill="#7a029f" d="M55.5,15.7c-0.1,0.2-0.5,0.2-0.7,0c-0.2-0.2-0.3-0.4-0.5-0.6c-0.1-0.2-0.3-0.3-0.4-0.5
		c-0.1-0.4,0.1-0.8-0.1-1.1c-0.1-0.2-0.3-0.3-0.4-0.3c-0.4-0.2-0.9-0.4-1.3-0.3c-0.2,0.1-0.4,0.2-0.7,0.3c-0.4,0.1-0.6-0.5-0.5-0.9
		c0-0.1-0.2-0.4-0.4-0.4c-0.2,0-0.3,0.1-0.5,0.2c-0.4,0.2-0.8,0.1-1.1,0.3c-0.3,0.3-0.4,0.9-0.8,1.1c-0.3,0.1-0.7,0.1-0.9,0.3
		c-0.1,0.1-0.1,0.2-0.1,0.3c-0.1,1,0.7,1.8,1.3,2.4c0.1,0.1,0.2,0.2,0.3,0.2c0.4,0.1,0.8-0.7,1.2-0.5c-0.1,0.2,0.1,0.5,0.4,0.5
		c0.1,0,0.2,0,0.2,0c0.1,0,0.1,0.2,0.2,0.3c0.1,0.4,0.1,0.8,0,1.2c-0.1,0.4-0.2,0.7-0.1,1.1c0.1,0.5,0.6,0.9,0.7,1.5
		c0,0.1,0,0.3,0.1,0.4c0.1,0.1,0.2,0.1,0.3,0c0.6-0.1,1.1-0.3,1.5-0.7c0.5-0.5,0.7-1.3,0.8-2c0.1-0.5,0.2-1.1,0.6-1.5
		c0.3-0.2,0.6-0.2,0.9-0.4C55.8,16.3,55.8,15.8,55.5,15.7z"/>
	<path fill="#7a029f" d="M63.7,13.5H62c-0.2,0-0.3-0.1-0.3-0.3c-0.1-0.5-0.2-1-0.3-1.5c0-0.2,0.1-0.3,0.2-0.4l1.6-0.6
		c0.2-0.1,0.3-0.3,0.2-0.4l-0.8-2C62.4,8.1,62.2,8,62,8l-1.6,0.7c-0.1,0.1-0.3,0-0.4-0.1c-0.3-0.4-0.6-0.9-0.9-1.3
		c-0.1-0.1-0.1-0.3,0-0.4l1.2-1.2c0.1-0.1,0.1-0.4,0-0.5l-1.5-1.5c-0.1-0.1-0.4-0.1-0.5,0l-1.2,1.2C57,4.9,56.9,5,56.7,4.9L55.4,4
		c-0.1-0.1-0.2-0.3-0.1-0.4L55.9,2c0.1-0.2,0-0.4-0.2-0.4l-2-0.8c-0.2-0.1-0.4,0-0.4,0.2l-0.6,1.6c-0.1,0.1-0.2,0.2-0.4,0.2
		c-0.4-0.1-1.1-0.3-1.5-0.3c-0.2,0-0.3-0.1-0.3-0.3V0.3c0-0.2-0.1-0.3-0.3-0.3H48c-0.2,0-0.3,0.1-0.3,0.3V2c0,0.2-0.1,0.3-0.3,0.3
		c-0.5,0.1-1,0.2-1.5,0.3c-0.2,0-0.3-0.1-0.4-0.2l-0.7-1.6c-0.1-0.2-0.3-0.3-0.4-0.2l-2,0.8c-0.2,0.1-0.3,0.3-0.2,0.4l0.7,1.6
		c0.1,0.1,0,0.3-0.1,0.4l-1.3,0.9C41.2,5,41,4.9,40.9,4.8l-1.2-1.2c-0.1-0.1-0.4-0.1-0.5,0l-1.5,1.5c-0.1,0.1-0.1,0.4,0,0.5l1.2,1.2
		c0.1,0.1,0.1,0.3,0,0.4c-0.3,0.4-0.6,0.8-0.9,1.3c-0.1,0.1-0.3,0.2-0.4,0.1L36.1,8c-0.2-0.1-0.4,0-0.4,0.2l-0.8,2
		c-0.1,0.2,0,0.4,0.2,0.4l1.6,0.6c0.1,0.1,0.2,0.2,0.2,0.4c-0.1,0.4-0.2,1.1-0.3,1.5c0,0.2-0.2,0.3-0.3,0.3h-1.7
		c-0.2,0-0.3,0.1-0.3,0.3V16c0,0.2,0.2,0.3,0.3,0.3h1.7c0.2,0,0.3,0.1,0.3,0.3c0.1,0.4,0.2,1.1,0.3,1.5c0,0.2-0.1,0.3-0.2,0.4
		L35,19.2c-0.2,0.1-0.3,0.3-0.2,0.5l0.8,2c0.1,0.2,0.3,0.3,0.4,0.2l1.6-0.6c0.1-0.1,0.3,0,0.4,0.1c0.2,0.3,0.6,1,0.9,1.3
		c0.1,0.1,0.1,0.3,0,0.4l-1.2,1.2c-0.1,0.1-0.1,0.3,0,0.5l1.5,1.5c0.1,0.1,0.4,0.1,0.5,0l1.2-1.2c0.1-0.1,0.3-0.1,0.4,0l1.3,0.9
		c0.1,0.1,0.2,0.3,0.1,0.4l-0.7,1.6c-0.1,0.2,0,0.4,0.2,0.5l2,0.8c0.2,0.1,0.4,0,0.4-0.2l0.7-1.6c0.1-0.1,0.2-0.2,0.4-0.2
		c0.4,0.1,1.1,0.3,1.5,0.3c0.2,0,0.3,0.2,0.3,0.3v1.7c0,0.2,0.2,0.3,0.3,0.3h2.1c0.2,0,0.3-0.1,0.3-0.3v-1.7c0-0.2,0.1-0.3,0.3-0.3
		c0.5-0.1,1-0.2,1.5-0.3c0.2-0.1,0.3,0,0.4,0.2l0.6,1.6c0.1,0.2,0.3,0.2,0.4,0.2l2-0.8c0.2-0.1,0.3-0.3,0.2-0.5l-0.7-1.6
		c-0.1-0.2,0-0.3,0.1-0.4c0.4-0.3,0.9-0.6,1.3-0.9c0.1-0.1,0.3-0.1,0.4,0l1.2,1.2c0.1,0.1,0.4,0.1,0.5,0l1.5-1.5
		c0.1-0.1,0.1-0.3,0-0.5l-1.2-1.2c-0.1-0.1-0.1-0.3,0-0.4c0.3-0.4,0.6-0.8,0.9-1.3c0.1-0.1,0.3-0.2,0.4-0.1l1.6,0.6
		c0.2,0.1,0.4,0,0.4-0.2l0.8-2c0.1-0.2,0-0.4-0.2-0.5l-1.6-0.6c-0.1-0.1-0.2-0.2-0.2-0.4c0.1-0.5,0.2-1,0.3-1.5
		c0-0.2,0.2-0.3,0.3-0.3h1.7c0.2,0,0.3-0.1,0.3-0.3v-2.1C64,13.7,63.9,13.5,63.7,13.5z M49,25.6c-5.9,0-10.7-4.8-10.7-10.7
		c0-5.9,4.8-10.7,10.7-10.7S59.7,9.1,59.7,15C59.7,20.8,54.9,25.6,49,25.6z"/>
	<path fill="#7a029f" d="M26.2,40.2l-4.1,8.4l-0.7-4.1c0-0.1-0.1-0.3-0.1-0.4c0,0,0.1-0.1,0.1-0.1l1.1-1.8c0.1-0.1,0.1-0.3,0-0.4
		l-1.1-1.8c-0.1-0.1-0.2-0.2-0.4-0.2h-2.1c-0.2,0-0.3,0.1-0.4,0.2l-1.1,1.8c-0.1,0.1-0.1,0.3,0,0.4l1.1,1.8c0,0,0.1,0.1,0.1,0.1
		c0,0.1-0.1,0.2-0.1,0.4l-0.8,4.4l-4.1-8.6C5.6,40.8,0,42.8,0,46.3V64h40V46.3C40,42.8,34.3,40.8,26.2,40.2z M37.4,54.2h-1v4.9h-7.6
		v-4.9h-1v-1.4h9.6V54.2z"/>
	<path fill="#7a029f" d="M9.7,26.1c-0.4,0.5-0.5,1.6-0.2,2.7c0.3,1.3,1.1,2.6,1.9,2.9c0.8,4,4.4,7,8.5,7c4.1,0,7.7-3,8.5-7
		c0.9-0.3,1.6-1.6,1.9-2.9l0,0c0.3-1.2,0.3-2.2-0.2-2.7c-0.2-0.3-0.5-0.4-0.8-0.4c-0.2,0-0.4,0.1-0.6,0.1c4.7-11.9-4-11.3-4-11.3
		c-1.4-3.9-5.8-3.5-8.5-2.7c-2.1,0.6-3.9,1.7-5.2,3.5c-2.7,3.7-1.3,8.1-0.1,10.6c-0.2-0.1-0.4-0.2-0.6-0.2
		C10.2,25.7,9.9,25.9,9.7,26.1z M11,26.8c0.1,0,0.5,0.2,0.9,0.9l0.8,1.5c0,0,0.1,0,0.1,0v-2.7c0-2.2,1.7-4.1,3.9-4.2
		c0.1,0,0.1,0,0.1,0c6.2-0.5,6.8-4,6.8-4c1.3,0.4,2.1,1.3,2.7,2.3c0.6,1,0.9,2.2,0.9,3.5l0,5.2c0,0,0.1,0.1,0.1,0l0.8-1.5
		c0.4-0.7,0.7-0.9,0.8-0.9c0.1,0.1,0.3,0.7,0,1.8c-0.1,0.5-0.5,1.1-0.9,1.5c-0.6,0.7-1,1.6-1.4,2.5c-1.1,2.7-3.8,4.6-6.8,4.6
		c-3,0-5.7-1.9-6.8-4.6c-0.4-1-0.9-1.9-1.5-2.8c-0.3-0.4-0.5-0.8-0.7-1.3C10.6,27.4,10.7,26.8,11,26.8z"/>
</g>
</svg>
