<?xml version="1.0" encoding="utf-8"?>
<!-- Generator: Adobe Illustrator 18.0.0, SVG Export Plug-In . SVG Version: 6.00 Build 0)  -->
<!DOCTYPE svg PUBLIC "-//W3C//DTD SVG 1.1//EN" "http://www.w3.org/Graphics/SVG/1.1/DTD/svg11.dtd">
<svg version="1.1" id="Layer_1" xmlns="http://www.w3.org/2000/svg" xmlns:xlink="http://www.w3.org/1999/xlink" x="0px" y="0px"
	 viewBox="0 0 64 64" enable-background="new 0 0 64 64" xml:space="preserve">
<g>
	<path fill="#7a029f" d="M56.2,19.2h-4.9v2.9h4.2v27.1h-47V22.2h4.2v-2.9H7.8c-1.2,0-2.2,1-2.2,2.2v32.3c0,1.2,1,2.2,2.2,2.2h16.2
		l-1.3,4h-2.7c-0.6,0-1.1,0.2-1.4,0.6c-0.4,0.4-0.6,0.9-0.6,1.4c0,1.1,0.9,2,2,2h24.3c0.6,0,1.1-0.2,1.4-0.6
		c0.4-0.4,0.6-0.9,0.6-1.4c0-1.1-0.9-2-2-2h-2.7l-1.3-4h16.2c1.2,0,2.2-1,2.2-2.2V21.4C58.4,20.2,57.5,19.2,56.2,19.2z M10.3,53.9
		c-0.7,0-1.3-0.6-1.3-1.3c0-0.7,0.6-1.3,1.3-1.3c0.7,0,1.3,0.6,1.3,1.3C11.6,53.3,11,53.9,10.3,53.9z M15.2,53.9
		c-0.7,0-1.3-0.6-1.3-1.3c0-0.7,0.6-1.3,1.3-1.3c0.7,0,1.3,0.6,1.3,1.3C16.5,53.3,15.9,53.9,15.2,53.9z"/>
	<path fill="#7a029f" d="M48.6,10.2l-9.5-9.5C38.6,0.3,38,0,37.3,0H17.2c-1.4,0-2.5,1.1-2.5,2.5v40.6c0,1.4,1.1,2.5,2.5,2.5h29.6
		c1.4,0,2.5-1.1,2.5-2.5V12C49.3,11.4,49.1,10.7,48.6,10.2z M46.8,43.1H17.2V2.5h19.5v8.3c0,0.9,0.8,1.7,1.7,1.7h8.3V43.1z"/>
	<path fill="#7a029f" d="M42.5,23l-1.8-3.7c-0.2-0.5-0.9-0.7-1.3-0.4c-0.5,0.2-0.7,0.8-0.4,1.3l0.7,1.3c-5.9-1.5-12.2,1.2-15.3,6.6
		C23.9,28.1,23.5,28,23,28c-2.2,0-4,1.8-4,4c0,2.2,1.8,4,4,4c2.2,0,4-1.8,4-4c0-1-0.4-1.9-1-2.6c2.6-4.7,8.1-7.1,13.2-5.7l-1.7,0.8
		c-0.5,0.2-0.7,0.8-0.4,1.3c0.3,0.5,0.9,0.7,1.3,0.4l3.7-1.8C42.6,24.1,42.8,23.5,42.5,23z M23,34c-1.1,0-2-0.9-2-2s0.9-2,2-2
		c1.1,0,2,0.9,2,2S24.1,34,23,34z"/>
	<g>
		<path fill="#7a029f" d="M27,15.5c-0.4-0.4-1-0.4-1.4,0l-1.7,1.7l-1.7-1.7c-0.4-0.4-1-0.4-1.4,0c-0.4,0.4-0.4,1,0,1.4l1.7,1.7
			l-1.7,1.7c-0.4,0.4-0.4,1,0,1.4s1,0.4,1.4,0l1.7-1.7l1.7,1.7c0.4,0.4,1,0.4,1.4,0c0.4-0.4,0.4-1,0-1.4l-1.7-1.7L27,17
			C27.4,16.6,27.4,15.9,27,15.5z"/>
		<path fill="#7a029f" d="M35.4,34l1.7-1.7c0.4-0.4,0.4-1,0-1.4c-0.4-0.4-1-0.4-1.4,0L34,32.5l-1.7-1.7c-0.4-0.4-1-0.4-1.4,0
			c-0.4,0.4-0.4,1,0,1.4l1.7,1.7l-1.7,1.7c-0.4,0.4-0.4,1,0,1.4c0.4,0.4,1,0.4,1.4,0l1.7-1.7l1.7,1.7c0.4,0.4,1,0.4,1.4,0
			c0.4-0.4,0.4-1,0-1.4L35.4,34z"/>
	</g>
</g>
</svg>
