<?xml version="1.0" encoding="utf-8"?>
<!-- Generator: Adobe Illustrator 18.0.0, SVG Export Plug-In . SVG Version: 6.00 Build 0)  -->
<!DOCTYPE svg PUBLIC "-//W3C//DTD SVG 1.1//EN" "http://www.w3.org/Graphics/SVG/1.1/DTD/svg11.dtd">
<svg version="1.1" id="Layer_1" xmlns="http://www.w3.org/2000/svg" xmlns:xlink="http://www.w3.org/1999/xlink" x="0px" y="0px"
	 viewBox="0 0 64 64" enable-background="new 0 0 64 64" xml:space="preserve">
<g>
	<g>
		<g>
			<g>
				<path fill="#7a029f" d="M13.7,45c-0.2,0.6-0.6,1.1-0.9,1.2C12.1,48.2,10.6,50,9,50c-1.7,0-3.1-1.8-3.9-3.7
					c-0.3-0.1-0.7-0.6-0.9-1.2c-0.2-0.7-0.1-1.2,0.2-1.2h0c0-0.2,0-0.4,0-0.5c0-2.5,2.1-4.6,4.6-4.6c2.5,0,4.6,2.1,4.6,4.6
					c0,0.2,0,0.3,0,0.5c0,0,0,0,0,0C13.9,43.8,14,44.4,13.7,45z"/>
			</g>
			<path fill="#7a029f" d="M14.8,52.5c-1.1,2-1.7,4.2-1.7,6.6v0H0c0.1-4.4,3.2-8,7.4-8.7L9,54.5l1.5-4.1
				C12.1,50.7,13.6,51.5,14.8,52.5z"/>
		</g>
		<g>
			<g>
				<path fill="#7a029f" d="M33.6,40.2c-0.3,0.8-0.8,1.5-1.2,1.6c-1.1,2.6-3,5-5.3,5c-2.2,0-4.2-2.4-5.3-5c-0.4-0.1-0.9-0.8-1.2-1.6
					c-0.3-0.9-0.2-1.7,0.3-1.7h0c0-0.2,0-0.5,0-0.7c0-3.4,2.8-6.2,6.2-6.2c3.4,0,6.2,2.8,6.2,6.2c0,0.2,0,0.5,0,0.7c0,0,0,0,0,0
					C33.8,38.5,33.9,39.2,33.6,40.2z"/>
			</g>
			<path fill="#7a029f" d="M34.2,49.5c-1.9,2.8-3,6.1-3.1,9.6v0h-16c0.1-5.9,4.4-10.7,10-11.7l2.1,5.5l2.1-5.5
				C31.1,47.7,32.7,48.5,34.2,49.5z"/>
		</g>
		<path fill="#7a029f" d="M56.8,34.9c-0.3,1-1,1.9-1.5,2.1c-1.4,3.3-3.9,6.4-6.8,6.4c-2.9,0-5.4-3.1-6.8-6.4c-0.5-0.1-1.2-1-1.5-2.1
			c-0.4-1.2-0.2-2.1,0.4-2.1h0c0-0.3,0-0.6,0-0.9c0-4.4,3.6-7.9,7.9-7.9c4.4,0,7.9,3.5,7.9,7.9c0,0.3,0,0.6,0,0.9c0,0,0,0,0,0
			C57,32.7,57.2,33.7,56.8,34.9z"/>
		<path fill="#7a029f" d="M64,59.1H33.1c0.1-7.5,5.6-13.7,12.8-15l2.7,7l2.7-7C58.4,45.4,63.9,51.6,64,59.1z"/>
	</g>
	<path fill="#7a029f" d="M50.8,17.9l-2.1-3.7l-39.8,22c-0.2,0.1-0.5,0-0.7-0.2l-2.2-4c-0.1-0.2,0-0.5,0.2-0.7l39.8-22L44,5.5
		c-0.2-0.3,0.1-0.7,0.5-0.6l9.6,2.8c0.2,0.1,0.4,0.3,0.3,0.5l-2.8,9.6C51.5,18.1,51,18.2,50.8,17.9z"/>
	<g>
		<g>
			<path fill="#7a029f" d="M17.6,16.4l4-2.5c-0.4-1.5-0.4-2.7-0.1-3.8c0.4-1,1.1-1.9,2.1-2.5c1-0.6,2.1-0.9,3.3-0.6
				C28.1,7.3,29,7.9,29.8,9l0.9-0.6l0.9,1.4l-0.9,0.6c0.5,1.1,0.7,2.1,0.4,3.1c-0.2,1-0.7,1.8-1.6,2.6l-1.8-2.2
				c0.7-0.6,0.9-1.3,0.8-2.1L24.8,14c0.5,1.8,0.6,3.2,0.3,4.1c-0.3,1-1,1.8-2,2.4c-1.2,0.7-2.4,1-3.6,0.7c-1.2-0.2-2.3-0.9-3.3-2
				l-1.8,1.1l-0.9-1.4l1.8-1.1c-0.5-1.2-0.7-2.3-0.4-3.5c0.3-1.1,1-2.2,2.1-3.1l1.8,2.3c-0.4,0.4-0.8,0.9-1,1.4
				C17.7,15.5,17.6,16,17.6,16.4z M27.7,10.3c-0.4-0.3-0.8-0.5-1.2-0.5c-0.4,0-0.9,0.1-1.2,0.3c-0.3,0.2-0.6,0.5-0.8,0.9
				c-0.2,0.4-0.2,0.8-0.1,1.4L27.7,10.3z M18.3,17.9c0.4,0.4,0.8,0.7,1.4,0.8c0.5,0.1,1.1,0,1.5-0.3c0.4-0.3,0.7-0.6,0.9-1.1
				c0.2-0.4,0.1-1,0-1.7L18.3,17.9z"/>
		</g>
	</g>
</g>
</svg>
