<?xml version="1.0" encoding="utf-8"?>
<!-- Generator: Adobe Illustrator 18.0.0, SVG Export Plug-In . SVG Version: 6.00 Build 0)  -->
<!DOCTYPE svg PUBLIC "-//W3C//DTD SVG 1.1//EN" "http://www.w3.org/Graphics/SVG/1.1/DTD/svg11.dtd">
<svg version="1.1" id="Layer_1" xmlns="http://www.w3.org/2000/svg" xmlns:xlink="http://www.w3.org/1999/xlink" x="0px" y="0px"
	 viewBox="0 0 64 64" enable-background="new 0 0 64 64" xml:space="preserve">
<g>
	<g>
		<rect x="16.9" y="8.8" fill="#7a029f" width="8.6" height="4.2"/>
		<rect x="27.7" y="8.8" fill="#7a029f" width="8.6" height="4.2"/>
		<rect x="38.5" y="8.8" fill="#7a029f" width="8.6" height="4.2"/>
	</g>
	<g>
		<path fill="#7a029f" d="M45.7,32.7l-0.6-0.2c-0.4-0.1-0.9-0.2-1.3-0.2h-0.5c-0.1-0.6-0.2-1.1-0.3-1.6l0.4-0.2
			c0.4-0.2,0.8-0.4,1.1-0.7l0.5-0.4c0.2-0.1,0.2-0.3,0.1-0.5l-0.5-1.1c-0.1-0.2-0.3-0.3-0.5-0.3l-0.6,0.1c-0.4,0-0.9,0.2-1.3,0.3
			l-0.4,0.2c-0.3-0.5-0.6-0.9-0.9-1.4l0.3-0.3c0.3-0.3,0.6-0.7,0.8-1l0.3-0.6c0.1-0.2,0.1-0.4-0.1-0.5l-0.9-0.9
			c-0.1-0.1-0.4-0.2-0.5-0.1l-0.5,0.3c-0.4,0.2-0.7,0.5-1.1,0.8L39,24.8c-0.4-0.3-0.9-0.6-1.4-0.9l0.2-0.4c0.2-0.4,0.3-0.8,0.3-1.3
			l0.1-0.6c0-0.2-0.1-0.4-0.3-0.5l-1.2-0.5c-0.2-0.1-0.4,0-0.5,0.1l-0.4,0.5c-0.3,0.3-0.5,0.7-0.7,1.1L35,22.8
			c-0.5-0.1-1.1-0.3-1.6-0.3V22c0-0.4-0.1-0.9-0.2-1.3l-0.2-0.6c-0.1-0.2-0.2-0.3-0.4-0.3h-1.3c-0.2,0-0.4,0.1-0.4,0.3l-0.2,0.6
			c-0.1,0.4-0.2,0.9-0.2,1.3v0.5c-0.5,0.1-1.1,0.2-1.6,0.3l-0.2-0.4c-0.2-0.4-0.4-0.8-0.7-1.1l-0.4-0.5c-0.1-0.2-0.3-0.2-0.5-0.1
			l-1.2,0.5c-0.2,0.1-0.3,0.3-0.3,0.5l0.1,0.6c0,0.4,0.2,0.9,0.3,1.3l0.2,0.4c-0.5,0.3-0.9,0.6-1.4,0.9l-0.3-0.3
			c-0.3-0.3-0.7-0.6-1.1-0.8l-0.5-0.3c-0.2-0.1-0.4-0.1-0.5,0.1l-0.9,0.9c-0.2,0.1-0.2,0.4-0.1,0.5l0.3,0.6c0.2,0.4,0.5,0.7,0.8,1
			l0.3,0.3c-0.3,0.4-0.6,0.9-0.9,1.4L21.7,28c-0.4-0.2-0.8-0.3-1.3-0.3l-0.6-0.1c-0.2,0-0.4,0.1-0.5,0.3L18.8,29
			c-0.1,0.2,0,0.4,0.1,0.5l0.5,0.4c0.3,0.3,0.7,0.5,1.1,0.7l0.4,0.2c-0.1,0.5-0.3,1.1-0.3,1.6h-0.5c-0.4,0-0.9,0.1-1.3,0.2l-0.6,0.2
			c-0.2,0-0.3,0.2-0.3,0.4v1.2c0,0.2,0.1,0.4,0.3,0.4l0.6,0.2c0.4,0.1,0.9,0.2,1.3,0.2h0.5c0.1,0.5,0.2,1.1,0.3,1.6L20.6,37
			c-0.4,0.2-0.8,0.4-1.1,0.7L19,38.1c-0.2,0.1-0.2,0.3-0.1,0.5l0.5,1.1c0.1,0.2,0.3,0.3,0.5,0.3l0.6-0.1c0.4,0,0.9-0.2,1.3-0.3
			l0.5-0.2c0.3,0.5,0.6,0.9,0.9,1.4l-0.3,0.3c-0.3,0.3-0.6,0.7-0.8,1.1l-0.3,0.5c-0.1,0.2-0.1,0.4,0.1,0.5l0.9,0.9
			c0.1,0.1,0.4,0.2,0.5,0.1l0.5-0.3c0.4-0.2,0.7-0.5,1.1-0.8l0.3-0.3c0.4,0.3,0.9,0.6,1.4,0.9l-0.2,0.4c-0.2,0.4-0.3,0.8-0.3,1.3
			L25.8,46c0,0.2,0.1,0.4,0.3,0.5l1.2,0.5c0.2,0.1,0.4,0,0.5-0.1l0.4-0.5c0.3-0.3,0.5-0.7,0.7-1.1l0.2-0.4c0.5,0.1,1.1,0.3,1.6,0.3
			v0.5c0,0.4,0.1,0.9,0.2,1.3l0.2,0.6c0.1,0.2,0.2,0.3,0.4,0.3h1.3c0.2,0,0.4-0.1,0.4-0.3l0.2-0.6c0.1-0.4,0.2-0.8,0.2-1.3v-0.5
			c0.5-0.1,1.1-0.2,1.6-0.3l0.2,0.4c0.2,0.4,0.4,0.8,0.7,1.1l0.4,0.5c0.1,0.2,0.3,0.2,0.5,0.1l1.2-0.5c0.2-0.1,0.3-0.3,0.3-0.5
			l-0.1-0.6c0-0.4-0.2-0.9-0.3-1.3l-0.2-0.4c0.5-0.3,0.9-0.6,1.4-0.9l0.3,0.3c0.3,0.3,0.7,0.6,1.1,0.8l0.5,0.3
			c0.2,0.1,0.4,0.1,0.5-0.1l0.9-0.9c0.2-0.1,0.2-0.4,0.1-0.5l-0.3-0.5c-0.2-0.4-0.5-0.7-0.8-1.1L41,40.8c0.3-0.4,0.6-0.9,0.9-1.4
			l0.5,0.2c0.4,0.2,0.8,0.3,1.3,0.3l0.6,0.1c0.2,0,0.4-0.1,0.5-0.3l0.5-1.1c0.1-0.2,0-0.4-0.1-0.5l-0.5-0.4
			c-0.3-0.3-0.7-0.5-1.1-0.7L43,36.8c0.1-0.5,0.3-1,0.3-1.6h0.5c0.4,0,0.9-0.1,1.3-0.2l0.6-0.2c0.2-0.1,0.3-0.2,0.3-0.4v-1.2
			C46,33,45.9,32.8,45.7,32.7z M31.2,25.7v1.5c-3.1,0.3-5.5,2.8-5.9,5.9h-1.5C24.2,29.1,27.3,26,31.2,25.7z M31.2,41.9
			c-3.9-0.4-7-3.5-7.4-7.4h1.5c0.3,3.1,2.8,5.5,5.9,5.9V41.9z M32,39.1c-2.9,0-5.3-2.4-5.3-5.3c0-2.9,2.4-5.3,5.3-5.3
			c2.9,0,5.3,2.4,5.3,5.3C37.3,36.7,34.9,39.1,32,39.1z M32.8,41.9v-1.5c3.1-0.3,5.5-2.8,5.9-5.9h1.5C39.8,38.5,36.7,41.6,32.8,41.9
			z M38.6,33c-0.3-3.1-2.8-5.5-5.9-5.9v-1.5c3.9,0.4,7,3.5,7.4,7.4H38.6z"/>
		<g>
			<path fill="#7a029f" d="M58.1,15.8h-3.4v3h3.4v33.8H5.9V18.8h3.4v-3H5.9c-1.6,0-3,1.3-3,3v33.8c0,1.7,1.4,3,3,3h52.1
				c1.7,0,3-1.3,3-3V18.8C61.1,17.2,59.7,15.8,58.1,15.8z"/>
			<path fill="#7a029f" d="M63.5,57.3h-63c-0.3,0-0.5,0.2-0.5,0.5V60c0,2.2,1.8,4,4,4H60c2.2,0,4-1.8,4-4v-2.3
				C64,57.5,63.8,57.3,63.5,57.3z M40.5,60.6c0,0.7-0.6,1.2-1.3,1.2H24.7c-0.7,0-1.3-0.6-1.3-1.2v0c0-0.7,0.6-1.2,1.3-1.2h14.6
				C40,59.4,40.5,59.9,40.5,60.6L40.5,60.6z"/>
		</g>
		<path fill="#7a029f" d="M49.6,0H14.4c-1.7,0-3,1.3-3,3v26.4c0,1.7,1.3,3,3,3h1.7c0.2-0.7,0.7-1.2,1.4-1.5
			c-0.4-0.4-0.6-0.9-0.7-1.5h-2.4V6.3h35.2v23.1h-2.4c0,0.5-0.3,1.1-0.7,1.5c0.7,0.3,1.2,0.8,1.4,1.5h1.7c1.7,0,3-1.3,3-3V3
			C52.6,1.3,51.3,0,49.6,0z M40.6,4.3c-0.6,0-1.2-0.5-1.2-1.2C39.5,2.5,40,2,40.6,2c0.6,0,1.2,0.5,1.2,1.1
			C41.8,3.8,41.3,4.3,40.6,4.3z M44.3,4.3c-0.6,0-1.2-0.5-1.2-1.2c0-0.6,0.5-1.1,1.2-1.1c0.6,0,1.1,0.5,1.1,1.1
			C45.5,3.8,45,4.3,44.3,4.3z M48,4.3c-0.6,0-1.2-0.5-1.2-1.2C46.8,2.5,47.3,2,48,2c0.6,0,1.1,0.5,1.1,1.1C49.1,3.8,48.6,4.3,48,4.3
			z"/>
	</g>
</g>
</svg>
