<?xml version="1.0" encoding="utf-8"?>
<!-- Generator: Adobe Illustrator 18.0.0, SVG Export Plug-In . SVG Version: 6.00 Build 0)  -->
<!DOCTYPE svg PUBLIC "-//W3C//DTD SVG 1.1//EN" "http://www.w3.org/Graphics/SVG/1.1/DTD/svg11.dtd">
<svg version="1.1" id="Layer_1" xmlns="http://www.w3.org/2000/svg" xmlns:xlink="http://www.w3.org/1999/xlink" x="0px" y="0px"
	 viewBox="0 0 64 64" enable-background="new 0 0 64 64" xml:space="preserve">
<g>
	<path fill="#7a029f" d="M6.9,53.6V14.7h31.9v13.7c0.5-0.4,1-0.6,1.7-0.6h1.4V8.6c0-1.7-1.4-3.1-3.1-3.1h-4.6c0.1,0.3,0.1,0.6,0.1,1
		c0,1.4-0.5,2.6-1.5,3.6c-0.9,0.9-2.2,1.5-3.6,1.5H16.8c-2.5,0-4.8-1.7-5.2-4.2c-0.1-0.6-0.1-1.3,0-1.9H6.9c-1.7,0-3.1,1.4-3.1,3.1
		v45c0,1.7,1.4,3.1,3.1,3.1h21c-0.6-0.9-0.5-2.1,0.2-3.1H6.9z"/>
	<path fill="#7a029f" d="M16.5,9.5h12.6c0.8,0,1.6-0.3,2.1-0.9c0.5-0.5,0.9-1.3,0.9-2.1c0-1.6-1.3-3-3-3h-2.9V3.4
		c0-1.9-1.5-3.4-3.4-3.4c-1.9,0-3.4,1.5-3.4,3.4v0.1h-2.9c-0.8,0-1.6,0.3-2.1,0.9c-0.5,0.5-0.9,1.3-0.9,2.1
		C13.5,8.1,14.9,9.5,16.5,9.5z M22.8,1.6c1,0,1.8,0.8,1.8,1.8c0,1-0.8,1.8-1.8,1.8S21,4.4,21,3.4C21,2.4,21.8,1.6,22.8,1.6z"/>
	<path fill="#7a029f" d="M16.1,20.6l2-1.5c0.2-0.2,0.3-0.5,0.1-0.7c-0.2-0.2-0.5-0.3-0.7-0.1l-1.3,1v-1.2c0-0.3-0.2-0.5-0.5-0.5H9.8
		c-0.3,0-0.5,0.2-0.5,0.5V24c0,0.3,0.2,0.5,0.5,0.5h5.8c0.3,0,0.5-0.2,0.5-0.5V20.6z M15,20.1l-1.6,1.2l-1.1-1.1
		c-0.2-0.2-0.5-0.2-0.7,0c-0.2,0.2-0.2,0.5,0,0.7l1.4,1.4c0.1,0.1,0.2,0.2,0.4,0.2c0.1,0,0.2,0,0.3-0.1l1.4-1v2h-4.8v-4.8H15V20.1z"
		/>
	<path fill="#7a029f" d="M35.2,18.7H19.3c-0.3,0-0.5,0.2-0.5,0.5c0,0.3,0.2,0.5,0.5,0.5h15.9c0.3,0,0.5-0.2,0.5-0.5
		C35.7,18.9,35.5,18.7,35.2,18.7z"/>
	<path fill="#7a029f" d="M35.2,20.5H19.3c-0.3,0-0.5,0.2-0.5,0.5c0,0.3,0.2,0.5,0.5,0.5h15.9c0.3,0,0.5-0.2,0.5-0.5
		C35.7,20.8,35.5,20.5,35.2,20.5z"/>
	<path fill="#7a029f" d="M19.3,23.5h8.2c0.3,0,0.5-0.2,0.5-0.5c0-0.3-0.2-0.5-0.5-0.5h-8.2c-0.3,0-0.5,0.2-0.5,0.5
		C18.7,23.2,19,23.5,19.3,23.5z"/>
	<path fill="#7a029f" d="M15.6,27.2H9.8c-0.3,0-0.5,0.2-0.5,0.5v5.8c0,0.3,0.2,0.5,0.5,0.5h5.8c0.3,0,0.5-0.2,0.5-0.5v-5.8
		C16.1,27.4,15.8,27.2,15.6,27.2z M15,33h-4.8v-4.8H15V33z"/>
	<path fill="#7a029f" d="M35.2,28.2H19.3c-0.3,0-0.5,0.2-0.5,0.5c0,0.3,0.2,0.5,0.5,0.5h15.9c0.3,0,0.5-0.2,0.5-0.5
		C35.7,28.4,35.5,28.2,35.2,28.2z"/>
	<path fill="#7a029f" d="M35.7,30.6c0-0.3-0.2-0.5-0.5-0.5H19.3c-0.3,0-0.5,0.2-0.5,0.5c0,0.3,0.2,0.5,0.5,0.5h15.9
		C35.5,31.1,35.7,30.9,35.7,30.6z"/>
	<path fill="#7a029f" d="M19.3,32c-0.3,0-0.5,0.2-0.5,0.5c0,0.3,0.2,0.5,0.5,0.5h8.2c0.3,0,0.5-0.2,0.5-0.5c0-0.3-0.2-0.5-0.5-0.5
		H19.3z"/>
	<path fill="#7a029f" d="M59.7,59.8l-4.9-3.4L54,55.7c0.1-0.2,0.1-0.5,0-0.7L52.6,53c-0.2-0.2-0.2-0.5,0-0.8
		c0.7-1.2,1.3-2.5,1.6-3.8c0.1-0.3,0.3-0.5,0.6-0.5l2.3-0.4c0.3-0.1,0.6-0.4,0.6-0.7l0-2.5c0-0.3-0.3-0.6-0.6-0.7l-2.3-0.4
		c-0.3-0.1-0.5-0.3-0.6-0.5c-0.3-1.3-0.8-2.6-1.5-3.8c-0.2-0.2-0.2-0.5,0-0.8l1.2-1.7c0.3-0.4,0.3-0.8,0.1-1.1l-1.8-1.8
		c-0.2-0.2-0.6-0.3-0.9-0.1l-1.9,1.3c-0.2,0.2-0.5,0.2-0.8,0c-1.2-0.7-2.5-1.2-3.8-1.6c-0.3-0.1-0.5-0.3-0.5-0.6l-0.4-2.3
		c-0.1-0.3-0.4-0.6-0.7-0.6h-2.5c-0.4,0-0.6,0.2-0.7,0.6l-0.4,2.3c-0.1,0.3-0.3,0.5-0.5,0.6c-1.3,0.3-2.6,0.8-3.8,1.6
		c-0.2,0.1-0.6,0.2-0.8,0l-1.9-1.3c-0.3-0.2-0.7-0.2-0.9,0.1l-1.8,1.8c-0.2,0.2-0.3,0.6-0.1,0.9l1.3,1.9c0.2,0.2,0.2,0.5,0,0.8
		c-0.7,1.2-1.3,2.5-1.6,3.8c-0.1,0.3-0.3,0.5-0.6,0.5l-2.3,0.4c-0.3,0.1-0.6,0.4-0.6,0.7v2.5c0,0.3,0.3,0.6,0.6,0.7l2.3,0.4
		c0.3,0.1,0.5,0.3,0.6,0.5c0.3,1.3,0.8,2.6,1.6,3.8c0.2,0.2,0.2,0.5,0,0.8l-1.2,1.7c-0.3,0.4-0.3,0.8-0.1,1.1l1.8,1.8
		c0.2,0.2,0.6,0.3,0.9,0.1l1.9-1.3c0.2-0.2,0.5-0.2,0.8,0c1.2,0.7,2.5,1.2,3.8,1.5c0.3,0.1,0.5,0.3,0.5,0.6l0.4,2.3
		c0.1,0.3,0.4,0.6,0.7,0.6l2.5,0c0.4,0,0.7-0.3,0.7-0.6l0.4-2.3c0.1-0.3,0.3-0.5,0.5-0.6c1.3-0.3,2.6-0.8,3.8-1.6
		c0.3-0.2,0.6-0.2,0.8,0l1.9,1.3c0.2,0.2,0.5,0.2,0.7,0l0.8,0.8l3.4,4.9c0.5,0.7,1.5,0.7,2.1,0.1l1.6-1.6
		C60.4,61.3,60.4,60.4,59.7,59.8z M48.1,51.9c-3.5,3.5-9.2,3.5-12.7,0c-3.5-3.5-3.5-9.2,0-12.7c3.5-3.5,9.1-3.5,12.6,0
		C51.6,42.7,51.6,48.4,48.1,51.9z"/>
</g>
</svg>
