<?xml version="1.0" encoding="utf-8"?>
<!-- Generator: Adobe Illustrator 18.0.0, SVG Export Plug-In . SVG Version: 6.00 Build 0)  -->
<!DOCTYPE svg PUBLIC "-//W3C//DTD SVG 1.1//EN" "http://www.w3.org/Graphics/SVG/1.1/DTD/svg11.dtd">
<svg version="1.1" id="Layer_1" xmlns="http://www.w3.org/2000/svg" xmlns:xlink="http://www.w3.org/1999/xlink" x="0px" y="0px"
	 viewBox="0 0 64 64" enable-background="new 0 0 64 64" xml:space="preserve">
<g>
	<polygon fill="#f6fafe" points="21.9,23.1 17.6,23.1 17.6,24 19.2,24 19.2,28.5 20.3,28.5 20.3,24 21.9,24 	"/>
	<path fill="#f6fafe" d="M25.2,27.2l0-1.2c0-0.5,0-0.8-0.1-0.9c-0.1-0.2-0.3-0.3-0.5-0.4c-0.2-0.1-0.6-0.2-1-0.2
		c-0.5,0-0.9,0.1-1.2,0.3c-0.3,0.2-0.4,0.5-0.5,0.8l0.9,0.2c0.1-0.2,0.1-0.3,0.3-0.4c0.1-0.1,0.2-0.1,0.4-0.1c0.3,0,0.5,0,0.6,0.1
		c0.1,0.1,0.1,0.2,0.1,0.4v0.1c-0.2,0.1-0.5,0.2-1,0.3c-0.4,0.1-0.6,0.1-0.8,0.2c-0.2,0.1-0.3,0.2-0.4,0.4c-0.1,0.2-0.2,0.4-0.2,0.6
		c0,0.3,0.1,0.6,0.3,0.8c0.2,0.2,0.6,0.3,1,0.3c0.2,0,0.4,0,0.6-0.1c0.2-0.1,0.4-0.2,0.6-0.4c0,0,0,0.1,0,0.1c0,0.1,0.1,0.2,0.1,0.3
		h1c-0.1-0.2-0.2-0.4-0.2-0.5C25.2,27.8,25.2,27.6,25.2,27.2z M24.2,26.8c0,0.2,0,0.4,0,0.5c0,0.1-0.1,0.3-0.2,0.3
		c-0.2,0.1-0.3,0.2-0.5,0.2c-0.2,0-0.3-0.1-0.4-0.2c-0.1-0.1-0.2-0.2-0.2-0.4c0-0.1,0.1-0.3,0.2-0.4c0.1-0.1,0.3-0.1,0.6-0.2
		c0.3-0.1,0.5-0.1,0.6-0.2V26.8z"/>
	<path fill="#f6fafe" d="M28.1,26c-0.6-0.1-0.9-0.2-1-0.3C27,25.7,27,25.6,27,25.6c0-0.1,0-0.2,0.1-0.2c0.1-0.1,0.3-0.1,0.6-0.1
		c0.2,0,0.4,0,0.5,0.1c0.1,0.1,0.2,0.2,0.2,0.4l1-0.2c-0.1-0.3-0.3-0.6-0.5-0.8c-0.3-0.2-0.7-0.3-1.2-0.3c-0.6,0-1,0.1-1.2,0.3
		c-0.3,0.2-0.4,0.5-0.4,0.9c0,0.4,0.2,0.7,0.5,0.9c0.2,0.2,0.8,0.3,1.6,0.5c0.2,0,0.3,0.1,0.3,0.1c0,0.1,0.1,0.1,0.1,0.2
		c0,0.1,0,0.2-0.1,0.3c-0.1,0.1-0.3,0.1-0.6,0.1c-0.2,0-0.4-0.1-0.6-0.2c-0.1-0.1-0.2-0.3-0.3-0.5l-1,0.2c0.1,0.4,0.3,0.7,0.6,0.9
		c0.3,0.2,0.7,0.3,1.3,0.3c0.6,0,1-0.1,1.3-0.4c0.3-0.3,0.5-0.6,0.5-0.9c0-0.3-0.1-0.6-0.3-0.8C29,26.3,28.6,26.2,28.1,26z"/>
	<polygon fill="#f6fafe" points="32.7,24.6 31.5,26 31.5,23.1 30.4,23.1 30.4,28.5 31.5,28.5 31.5,27.2 32,26.7 32.9,28.5 
		34.1,28.5 32.6,26 34,24.6 	"/>
	<path fill="#f6fafe" d="M43.3,23.1l-2.7-0.4c-0.4-0.1-0.8-0.4-0.9-0.8c-0.3-1.2-0.8-2.2-1.3-3.2c-0.2-0.4-0.2-0.8,0.1-1.2l1.6-2.2
		c0.3-0.4,0.3-1-0.1-1.4l-2.4-2.4c-0.4-0.4-0.9-0.4-1.4-0.1l-2.2,1.6c-0.4,0.3-0.8,0.3-1.2,0.1c-1-0.6-2.1-1-3.2-1.3
		C29.3,11.8,29,11.4,29,11l-0.4-2.7c-0.1-0.5-0.5-0.9-1-0.9h-3.4c-0.5,0-1,0.4-1,0.9L22.7,11c-0.1,0.4-0.4,0.8-0.8,0.9
		c-1.1,0.3-2.2,0.8-3.2,1.3c-0.4,0.2-0.8,0.2-1.2-0.1l-2.2-1.6c-0.4-0.3-1-0.3-1.4,0.1L11.6,14c-0.4,0.4-0.4,0.9-0.1,1.4l1.6,2.2
		c0.3,0.3,0.3,0.8,0.1,1.2c-0.6,1-1,2.1-1.3,3.2c-0.1,0.4-0.4,0.7-0.9,0.8l-2.7,0.4c-0.5,0.1-0.9,0.5-0.9,1v3.4c0,0.5,0.4,1,0.9,1
		l2.7,0.4c0.4,0.1,0.7,0.4,0.9,0.8c0.3,1.2,0.8,2.2,1.3,3.2c0.2,0.4,0.2,0.8-0.1,1.2l-1.6,2.2c-0.3,0.4-0.3,1,0.1,1.4l2.4,2.4
		c0.4,0.4,0.9,0.4,1.4,0.1l2.2-1.6c0.4-0.3,0.8-0.3,1.2-0.1c1,0.6,2.1,1,3.2,1.3c0.4,0.1,0.7,0.5,0.8,0.9l0.4,2.7
		c0.1,0.5,0.5,0.9,1,0.9h3.4c0.5,0,1-0.4,1-0.9l0.4-2.7c0.1-0.4,0.4-0.8,0.8-0.9c1.1-0.3,2.2-0.8,3.2-1.3c0.4-0.2,0.8-0.2,1.2,0.1
		l2.2,1.6c0.4,0.3,1,0.3,1.4-0.1l2.4-2.4c0.4-0.4,0.4-0.9,0.1-1.4l-1.6-2.2c-0.3-0.3-0.3-0.8-0.1-1.2c0.6-1,1-2.1,1.3-3.2
		c0.1-0.4,0.5-0.7,0.9-0.8l2.7-0.4c0.5-0.1,0.9-0.5,0.9-1v-3.4C44.2,23.6,43.9,23.2,43.3,23.1z M25.8,36.8c-6,0-10.9-4.9-10.9-10.9
		s4.9-11,10.9-11c6.1,0,11,4.9,11,11S31.9,36.8,25.8,36.8z"/>
	<path fill="#f6fafe" d="M61.6,54c-2.9-2-5.5-4.5-7.4-7.4c-1.3-1.9-3.5-2.7-5.6-2.3l-2.5-2.5c8-10.1,7.4-24.9-2-34.3
		C34-2.5,17.7-2.5,7.6,7.6S-2.5,34,7.6,44.1c9.4,9.4,24.2,10,34.3,2l2.5,2.5c-0.4,2.1,0.4,4.3,2.3,5.6c2.9,2,5.5,4.5,7.4,7.4
		c1.9,2.8,5.9,3.2,8.3,0.8l0.1-0.1C64.8,59.9,64.4,55.9,61.6,54z M40.7,40.7c-8.2,8.2-21.5,8.2-29.7,0C2.8,32.5,2.8,19.2,11,11
		c8.2-8.2,21.5-8.2,29.7,0S48.8,32.5,40.7,40.7z"/>
</g>
</svg>
