<?xml version="1.0" encoding="utf-8"?>
<!-- Generator: Adobe Illustrator 18.0.0, SVG Export Plug-In . SVG Version: 6.00 Build 0)  -->
<!DOCTYPE svg PUBLIC "-//W3C//DTD SVG 1.1//EN" "http://www.w3.org/Graphics/SVG/1.1/DTD/svg11.dtd">
<svg version="1.1" id="Layer_1" xmlns="http://www.w3.org/2000/svg" xmlns:xlink="http://www.w3.org/1999/xlink" x="0px" y="0px"
	 viewBox="0 0 64 64" enable-background="new 0 0 64 64" xml:space="preserve">
<g>
	<g>
		<path fill="#7a029f" d="M46.5,31.8c0,0.5-0.4,1-1,1H24.9c-0.5,0-1-0.4-1-1c0-0.5,0.4-1,1-1h20.7C46.1,30.9,46.5,31.3,46.5,31.8z"
			/>
		<path fill="#7a029f" d="M38.8,36.1c0,0.5-0.4,1-1,1h-13c-0.5,0-1-0.4-1-1c0-0.5,0.4-1,1-1h13C38.4,35.1,38.8,35.5,38.8,36.1z"/>
		<path fill="#7a029f" d="M46.5,43.9c0,0.5-0.4,1-1,1H24.9c-0.5,0-1-0.4-1-1c0-0.5,0.4-1,1-1h20.7C46.1,42.9,46.5,43.4,46.5,43.9z"
			/>
		<path fill="#7a029f" d="M46.5,51.7c0,0.5-0.4,1-1,1H24.9c-0.5,0-1-0.4-1-1c0-0.5,0.4-1,1-1h20.7C46.1,50.7,46.5,51.2,46.5,51.7z"
			/>
		<path fill="#7a029f" d="M40.4,55.6c0,0.5-0.4,1-1,1H24.9c-0.5,0-1-0.4-1-1c0-0.5,0.4-1,1-1h14.5C40,54.6,40.4,55.1,40.4,55.6z"/>
		<g>
			<path fill="#7a029f" d="M33.2,47.8c0,0.5-0.4,1-1,1h-7.3c-0.5,0-1-0.4-1-1c0-0.5,0.4-1,1-1h7.3C32.8,46.8,33.2,47.3,33.2,47.8z"
				/>
			<path fill="#7a029f" d="M46.5,47.8c0,0.5-0.4,1-1,1h-8.7c-0.5,0-1-0.4-1-1c0-0.5,0.4-1,1-1h8.7C46.1,46.8,46.5,47.3,46.5,47.8z"
				/>
		</g>
		<path fill="#7a029f" d="M51.8,17.6H1.9c-1.1,0-1.9,0.9-1.9,1.9v40.2c0,1.1,0.9,1.9,1.9,1.9h49.9c1.1,0,1.9-0.9,1.9-1.9V19.5
			C53.8,18.4,52.9,17.6,51.8,17.6z M27.6,20.7c0.3-0.3,0.7-0.5,1.2-0.5H47c0.9,0,1.6,0.7,1.6,1.6c0,0.5-0.2,0.9-0.5,1.2
			c-0.3,0.3-0.7,0.5-1.2,0.5H28.8c-0.9,0-1.6-0.7-1.6-1.7C27.1,21.4,27.3,21,27.6,20.7z M16.7,20.2c0.9,0,1.6,0.7,1.6,1.6
			c0,0.9-0.7,1.7-1.6,1.7c-0.9,0-1.7-0.7-1.7-1.7C15,21,15.8,20.2,16.7,20.2z M11.7,20.2c0.9,0,1.7,0.7,1.7,1.6
			c0,0.9-0.7,1.7-1.7,1.7c-0.9,0-1.6-0.7-1.6-1.7C10.1,21,10.8,20.2,11.7,20.2z M6.8,20.2c0.9,0,1.7,0.7,1.7,1.6
			c0,0.9-0.8,1.7-1.7,1.7c-0.9,0-1.7-0.7-1.7-1.7C5.2,21,5.9,20.2,6.8,20.2z M50.4,58.8H3.3l0-32.6l47.2,0L50.4,58.8z"/>
		<g>
			<path fill="#7a029f" d="M20.7,53.6v-7.8c0-2.2-1.8-4-4-4h-1.2l-1.1,3.4l-0.2-2.3l0.5-1.5c0-0.1,0-0.2-0.1-0.2h-2.3
				c-0.1,0-0.2,0.1-0.1,0.2l0.5,1.5l-0.2,2.3l-1.1-3.4h-1.2c-2.2,0-4,1.8-4,4v7.8H20.7z"/>
			<path fill="#7a029f" d="M9.4,36.4c-0.1-0.4,0.1-0.8,0.4-0.9c0,0,0,0,0.1,0c0-0.2,0-0.3,0-0.5c0-2.4,1.6-3.7,3.6-3.7
				c2,0,3.6,1.2,3.6,3.7c0,0.2,0,0.3,0,0.5c0,0,0.1,0,0.1,0c0.3,0.1,0.5,0.5,0.4,0.9c-0.1,0.4-0.4,0.6-0.8,0.6
				c-0.6,1.8-1.8,3.3-3.3,3.3c-1.5,0-2.7-1.5-3.3-3.3C9.8,37,9.5,36.7,9.4,36.4z"/>
		</g>
	</g>
	<g>
		<path fill="#7a029f" d="M62.1,2.3H12.2c-1.1,0-1.9,0.9-1.9,1.9v11.3h3.3l0-4.6l47.2,0l-0.1,32.5h-4.9v2.9h6.3
			c1.1,0,1.9-0.9,1.9-1.9V4.3C64,3.2,63.1,2.3,62.1,2.3z M17.1,8.3c-0.9,0-1.6-0.7-1.6-1.7c0-0.9,0.7-1.6,1.6-1.6
			c0.9,0,1.7,0.7,1.7,1.6C18.7,7.6,18,8.3,17.1,8.3z M22,8.3c-0.9,0-1.6-0.7-1.6-1.7C20.3,5.7,21.1,5,22,5c0.9,0,1.7,0.7,1.7,1.6
			C23.6,7.6,22.9,8.3,22,8.3z M26.9,8.3c-0.9,0-1.7-0.7-1.7-1.7C25.3,5.7,26,5,26.9,5c0.9,0,1.6,0.7,1.6,1.6
			C28.6,7.6,27.8,8.3,26.9,8.3z M58.4,7.8c-0.3,0.3-0.7,0.5-1.2,0.5H39c-0.9,0-1.6-0.7-1.6-1.7c0-0.4,0.2-0.9,0.5-1.2
			C38.1,5.2,38.5,5,39,5h18.2c0.9,0,1.6,0.7,1.6,1.6C58.8,7.1,58.7,7.5,58.4,7.8z"/>
	</g>
</g>
</svg>
