<?xml version="1.0" encoding="utf-8"?>
<!-- Generator: Adobe Illustrator 18.0.0, SVG Export Plug-In . SVG Version: 6.00 Build 0)  -->
<!DOCTYPE svg PUBLIC "-//W3C//DTD SVG 1.1//EN" "http://www.w3.org/Graphics/SVG/1.1/DTD/svg11.dtd">
<svg version="1.1" id="Layer_1" xmlns="http://www.w3.org/2000/svg" xmlns:xlink="http://www.w3.org/1999/xlink" x="0px" y="0px"
	 viewBox="0 0 64 64" enable-background="new 0 0 64 64" xml:space="preserve">
<g>
	<path fill="#7a029f" d="M62.7,57.1l-8.3-8.3c-0.1-0.1-0.4-0.1-0.5,0l-0.5,0.5l-2.1-2.1c4-5,6.5-11.3,6.5-18.2
		C57.8,12.9,44.9,0,28.9,0C12.9,0,0,12.9,0,28.9c0,16,12.9,28.9,28.9,28.9c6.9,0,13.2-2.4,18.2-6.5l2.1,2.1l-0.4,0.4
		c-0.1,0.1-0.1,0.4,0,0.5l8.4,8.4c1.5,1.6,4.1,1.6,5.7,0C64.3,61.3,64.5,58.9,62.7,57.1z M5.3,28.9c0-13.1,10.6-23.7,23.7-23.7
		c13.1,0,23.7,10.6,23.7,23.7C52.6,42,42,52.6,28.9,52.6C15.8,52.6,5.3,42,5.3,28.9z"/>
	<path fill="#7a029f" d="M12.2,31.9h-2c1.3,8.1,7.7,14.5,15.8,15.8v-2C18.9,44.4,13.4,38.9,12.2,31.9z"/>
	<path fill="#7a029f" d="M25.9,12.2v-2c-8.1,1.3-14.5,7.7-15.8,15.8h2C13.4,18.9,18.9,13.4,25.9,12.2z"/>
	<path fill="#7a029f" d="M45.7,31.9c-1.2,7-6.8,12.5-13.8,13.8v2C40,46.4,46.4,40,47.7,31.9H45.7z"/>
	<path fill="#7a029f" d="M45.7,25.9h2c-1.3-8.1-7.7-14.5-15.8-15.8v2C38.9,13.4,44.4,18.9,45.7,25.9z"/>
	<path fill="#7a029f" d="M43.6,31.9h-2c-1.1,4.8-4.9,8.5-9.7,9.7v2C37.8,42.4,42.4,37.8,43.6,31.9z"/>
	<path fill="#7a029f" d="M25.9,14.2C20,15.4,15.4,20,14.2,25.9h2.1c1.1-4.8,4.9-8.5,9.7-9.7V14.2z"/>
	<path fill="#7a029f" d="M41.6,25.9h2c-1.2-5.9-5.8-10.5-11.7-11.7v2C36.7,17.4,40.4,21.1,41.6,25.9z"/>
	<path fill="#7a029f" d="M16.2,31.9h-2.1c1.2,5.9,5.8,10.5,11.7,11.7v-2C21.1,40.4,17.4,36.7,16.2,31.9z"/>
	<path fill="#7a029f" d="M19.9,28.9c0-0.5-0.4-1-1-1H7c-0.6,0-1,0.5-1,1c0,0.6,0.4,1,1,1h11.9C19.4,29.9,19.9,29.5,19.9,28.9z"/>
	<path fill="#7a029f" d="M37.9,28.9c0,0.6,0.5,1,1,1h11.9c0.5,0,1-0.4,1-1c0-0.5-0.5-1-1-1H38.9C38.4,27.9,37.9,28.4,37.9,28.9z"/>
	<path fill="#7a029f" d="M28.9,19.9c0.5,0,1-0.4,1-1V7c0-0.6-0.5-1-1-1c-0.6,0-1,0.4-1,1v11.9C27.9,19.4,28.4,19.9,28.9,19.9z"/>
	<path fill="#7a029f" d="M28.9,37.9c-0.6,0-1,0.5-1,1v11.9c0,0.5,0.4,1,1,1c0.5,0,1-0.5,1-1V38.9C29.9,38.4,29.5,37.9,28.9,37.9z"/>
	<path fill="#7a029f" d="M28.9,28.9c1.8,0,3.2-1.5,3.2-3.3c0-1.8-1.5-3.3-3.2-3.3c-1.8,0-3.3,1.5-3.3,3.3
		C25.7,27.5,27.1,28.9,28.9,28.9z"/>
	<path fill="#7a029f" d="M31.7,30.1c-0.8,0.5-1.8,0.8-2.8,0.8s-2-0.3-2.8-0.8c-2.1,1-3.6,3-3.8,5.3h13.2C35.3,33,33.8,31,31.7,30.1z
		"/>
</g>
</svg>
