<?xml version="1.0" encoding="utf-8"?>
<!-- Generator: Adobe Illustrator 18.0.0, SVG Export Plug-In . SVG Version: 6.00 Build 0)  -->
<!DOCTYPE svg PUBLIC "-//W3C//DTD SVG 1.1//EN" "http://www.w3.org/Graphics/SVG/1.1/DTD/svg11.dtd">
<svg version="1.1" id="Layer_1" xmlns="http://www.w3.org/2000/svg" xmlns:xlink="http://www.w3.org/1999/xlink" x="0px" y="0px"
	 viewBox="0 0 64 64" enable-background="new 0 0 64 64" xml:space="preserve">
<g>
	<g>
		<path fill="#7a029f" d="M42.9,23.9c0-1.7,2-3.1,4.8-3.5c-0.4-1.9-1.2-3.7-2.3-5.3c-2.2,1.7-4.6,2.1-5.8,0.9
			c-1.2-1.2-0.8-3.6,0.8-5.7c-1.6-1-3.4-1.7-5.3-2.1c-0.4,2.6-1.8,4.5-3.4,4.5c-1.6,0-3-1.8-3.4-4.4c-1.9,0.4-3.6,1.2-5.1,2.2
			c1.4,2.1,1.7,4.3,0.6,5.4c-1.1,1.1-3.3,0.8-5.4-0.6c-1,1.6-1.7,3.3-2.1,5.1c2.4,0.5,4.1,1.8,4.1,3.4c0,1.6-1.7,2.9-4.1,3.4
			c0.4,1.8,1.1,3.6,2.1,5.1c2.1-1.4,4.2-1.7,5.4-0.6c1.1,1.1,0.8,3.4-0.6,5.4c1.5,1,3.3,1.8,5.1,2.2c0.4-2.5,1.8-4.4,3.4-4.4
			c1.7,0,3,1.9,3.4,4.5c1.9-0.4,3.7-1.1,5.3-2.1c-1.6-2.1-2-4.5-0.8-5.7c1.2-1.2,3.6-0.8,5.8,0.9c1.1-1.6,1.8-3.4,2.3-5.3
			C45,27,42.9,25.6,42.9,23.9z M32.8,32.1v-4v-6.8c0-0.4-0.3-0.8-0.8-0.8c-0.4,0-0.8,0.3-0.8,0.8v6.9v3.9c-4.2-0.4-7.5-3.9-7.5-8.2
			c0-4.6,3.7-8.3,8.3-8.3c4.6,0,8.3,3.7,8.3,8.3C40.3,28.2,37,31.7,32.8,32.1z"/>
		<path fill="#7a029f" d="M39,21.8c-3.5,0-6.3,2.8-6.3,6.3c1.7,0,3.3-0.7,4.4-1.8C38.3,25.1,39,23.5,39,21.8z"/>
		<path fill="#7a029f" d="M25,21.9c0,1.7,0.7,3.3,1.8,4.4c1.1,1.1,2.7,1.8,4.4,1.8C31.3,24.7,28.4,21.9,25,21.9z"/>
	</g>
	<path fill="#7a029f" d="M58.6,2.5H5.3C2.4,2.5,0,4.9,0,7.9v41.3c0,3,2.4,5.4,5.3,5.4h19.8v3.2H20c-1,0-1.8,0.8-1.8,1.9
		c0,1,0.8,1.8,1.8,1.8h24c1,0,1.9-0.8,1.9-1.8c0-1-0.8-1.9-1.9-1.9h-5.2v-3.2h19.8c3,0,5.4-2.4,5.4-5.4V7.9
		C64,4.9,61.6,2.5,58.6,2.5z M32,50.4c-1.3,0-2.3-1-2.3-2.3c0-1.3,1-2.3,2.3-2.3c1.3,0,2.3,1,2.3,2.3C34.3,49.4,33.3,50.4,32,50.4z
		 M60.7,41.7H3.3V9.1c0-1.7,1.4-3,3-3h51.3c1.7,0,3,1.4,3,3V41.7z"/>
</g>
</svg>
