<?xml version="1.0" encoding="utf-8"?>
<!-- Generator: Adobe Illustrator 18.0.0, SVG Export Plug-In . SVG Version: 6.00 Build 0)  -->
<!DOCTYPE svg PUBLIC "-//W3C//DTD SVG 1.1//EN" "http://www.w3.org/Graphics/SVG/1.1/DTD/svg11.dtd">
<svg version="1.1" id="Layer_1" xmlns="http://www.w3.org/2000/svg" xmlns:xlink="http://www.w3.org/1999/xlink" x="0px" y="0px"
	 viewBox="0 0 64 64" enable-background="new 0 0 64 64" xml:space="preserve">
<g>
	<path fill="#7a029f" d="M50,2.5H17.5C17.5,1.1,16.4,0,15,0H6.8C5.5,0,4.3,1.1,4.3,2.5H2.8C1.2,2.5,0,3.8,0,5.3v36.5
		c0,1.5,1.2,2.8,2.8,2.8h29.4c-0.1-0.5-0.1-1,0.1-1.5l0.5-1.3h-30v-31H50v20.6c0.8,0.1,1.5,0.6,1.9,1.3c0.3-0.2,0.6-0.4,0.9-0.5V5.3
		C52.8,3.8,51.6,2.5,50,2.5z M6.5,8C5.8,8,5.2,7.4,5.2,6.7c0-0.7,0.6-1.3,1.3-1.3c0.7,0,1.3,0.6,1.3,1.3C7.7,7.4,7.2,8,6.5,8z
		 M10.7,8C10,8,9.4,7.4,9.4,6.7c0-0.7,0.6-1.3,1.3-1.3C11.4,5.4,12,6,12,6.7C12,7.4,11.4,8,10.7,8z M14.9,8c-0.7,0-1.3-0.6-1.3-1.3
		c0-0.7,0.6-1.3,1.3-1.3c0.7,0,1.3,0.6,1.3,1.3C16.2,7.4,15.6,8,14.9,8z"/>
	<g>
		<g>
			<g>
				<path fill="#7a029f" d="M44.1,31.7l-0.5,0.5c-0.2,0-0.4,0.1-0.6,0.1l-2,0.8c-0.8,0.3-1.4,1.1-1.4,2C39.4,35,39.1,35,38.9,35
					c-0.6,0-1.3,0.3-1.7,0.7L36,37c-0.2-0.1-0.3-0.4-0.2-0.6l0.5-2.8l-2-1.9C34,31.5,34,31.2,34,31c0.1-0.2,0.3-0.4,0.5-0.5l2.8-0.4
					l1.2-2.5c0.2-0.4,1-0.4,1.2,0l1.2,2.5l2.8,0.4c0.3,0,0.5,0.2,0.5,0.5C44.4,31.2,44.3,31.5,44.1,31.7z"/>
			</g>
			<g>
				<path fill="#7a029f" d="M16.2,31.7l-2,1.9l0.5,2.7c0,0.2-0.1,0.5-0.3,0.7c-0.2,0.2-0.5,0.2-0.7,0.1l-2.5-1.3l-2.5,1.3
					c-0.2,0.1-0.5,0.1-0.7-0.1c-0.2-0.1-0.3-0.4-0.3-0.7l0.5-2.7l-2-1.9c-0.2-0.2-0.2-0.4-0.2-0.7c0.1-0.2,0.3-0.4,0.5-0.5l2.8-0.4
					l1.2-2.5c0.2-0.5,1-0.5,1.2,0l1.2,2.5l2.8,0.4c0.3,0,0.5,0.2,0.5,0.5C16.5,31.2,16.4,31.5,16.2,31.7z"/>
			</g>
		</g>
		<g>
			<path fill="#7a029f" d="M32.2,20.9l-3,2.9l0.7,4.2c0.1,0.4-0.1,0.8-0.4,1c-0.3,0.2-0.8,0.2-1.1,0.1l-3.7-2l-3.7,2
				c-0.3,0.2-0.8,0.2-1.1-0.1c-0.3-0.2-0.5-0.6-0.4-1l0.7-4.2l-3-2.9c-0.3-0.3-0.4-0.7-0.3-1c0.1-0.4,0.4-0.6,0.8-0.7l4.2-0.6
				l1.9-3.8c0.3-0.7,1.5-0.7,1.8,0l1.9,3.8l4.2,0.6c0.4,0.1,0.7,0.3,0.8,0.7C32.5,20.2,32.4,20.6,32.2,20.9z"/>
		</g>
	</g>
	<path fill="#7a029f" d="M57,38.3c-0.1,0.1-0.3,0.1-0.4,0l-1.3-0.9c-0.1-0.1-0.2-0.3-0.1-0.4l0.7-1.6c0.1-0.2,0-0.4-0.2-0.5l-2-0.8
		c-0.2-0.1-0.4,0-0.5,0.2l-0.7,1.6c-0.1,0.2-0.2,0.3-0.4,0.2c-0.4-0.1-1.1-0.3-1.6-0.3c-0.2,0-0.3-0.2-0.3-0.3v-1.7
		c0-0.2-0.2-0.3-0.4-0.3h-2.2c-0.2,0-0.4,0.2-0.4,0.3v1.7c0,0.2-0.1,0.3-0.3,0.3c-0.5,0.1-1.1,0.2-1.6,0.3c-0.2,0-0.3,0-0.4-0.2
		l-0.7-1.6c-0.1-0.2-0.3-0.3-0.5-0.2l-2,0.8c-0.2,0.1-0.3,0.3-0.2,0.5l0.7,1.6c0.1,0.2,0,0.3-0.1,0.4l-1.3,0.9
		c-0.1,0.1-0.3,0.1-0.4,0l-1.2-1.2c-0.1-0.1-0.4-0.1-0.5,0l-1.6,1.5c-0.1,0.1-0.1,0.4,0,0.5l1.2,1.2c0.1,0.1,0.1,0.3,0,0.5
		c-0.3,0.4-0.6,0.9-0.9,1.3c-0.1,0.2-0.3,0.2-0.4,0.2l-1.6-0.7c-0.2-0.1-0.4,0-0.5,0.2l-0.8,2c-0.1,0.2,0,0.4,0.2,0.5l1.6,0.7
		c0.2,0.1,0.3,0.2,0.2,0.4c-0.1,0.4-0.3,1.1-0.3,1.6c0,0.2-0.2,0.3-0.3,0.3h-1.7c-0.2,0-0.4,0.2-0.4,0.4v2.2c0,0.2,0.2,0.3,0.4,0.3
		h1.7c0.2,0,0.3,0.1,0.3,0.3c0.1,0.4,0.2,1.2,0.3,1.6c0,0.2,0,0.3-0.2,0.4l-1.6,0.7c-0.2,0.1-0.3,0.3-0.2,0.5l0.8,2
		c0.1,0.2,0.3,0.3,0.5,0.2l1.6-0.7c0.2-0.1,0.3,0,0.4,0.1c0.2,0.4,0.6,1,0.9,1.3c0.1,0.1,0.1,0.3,0,0.5l-1.2,1.2
		c-0.1,0.1-0.1,0.4,0,0.5l1.6,1.5c0.1,0.1,0.4,0.1,0.5,0l1.2-1.2c0.1-0.1,0.3-0.1,0.4,0l1.3,0.9c0.1,0.1,0.2,0.3,0.1,0.4L41.6,62
		c-0.1,0.2,0,0.4,0.2,0.5l2,0.8c0.2,0.1,0.4,0,0.5-0.2l0.7-1.6c0.1-0.2,0.2-0.3,0.4-0.2c0.4,0.1,1.1,0.3,1.6,0.3
		c0.2,0,0.3,0.2,0.3,0.4v1.7c0,0.2,0.2,0.3,0.4,0.3h2.2c0.2,0,0.4-0.2,0.4-0.3v-1.7c0-0.2,0.1-0.3,0.3-0.3c0.5-0.1,1-0.2,1.6-0.3
		c0.2,0,0.3,0,0.4,0.2l0.7,1.6c0.1,0.2,0.3,0.3,0.5,0.2l2-0.8c0.2-0.1,0.3-0.3,0.2-0.5l-0.7-1.6c-0.1-0.2,0-0.3,0.2-0.4
		c0.5-0.3,0.9-0.6,1.3-0.9c0.1-0.1,0.3-0.1,0.5,0l1.2,1.2c0.1,0.1,0.4,0.1,0.5,0l1.6-1.5c0.1-0.1,0.1-0.4,0-0.5L59.1,57
		c-0.1-0.1-0.1-0.3,0-0.5c0.3-0.4,0.6-0.9,0.9-1.3c0.1-0.2,0.3-0.2,0.4-0.2l1.6,0.7c0.2,0.1,0.4,0,0.5-0.2l0.8-2
		c0.1-0.2,0-0.4-0.2-0.5l-1.6-0.7c-0.2-0.1-0.3-0.2-0.2-0.4c0.1-0.5,0.2-1,0.3-1.6c0-0.2,0.2-0.3,0.3-0.3h1.7c0.2,0,0.3-0.2,0.3-0.3
		v-2.2c0-0.2-0.2-0.4-0.3-0.4h-1.7c-0.2,0-0.3-0.1-0.3-0.3c-0.1-0.5-0.2-1.1-0.3-1.6c0-0.2,0-0.3,0.2-0.4l1.6-0.7
		c0.2-0.1,0.3-0.3,0.2-0.5l-0.8-2c-0.1-0.2-0.3-0.3-0.5-0.2l-1.6,0.7c-0.2,0.1-0.3,0-0.4-0.2c-0.3-0.5-0.6-0.9-0.9-1.3
		c-0.1-0.1-0.1-0.3,0-0.5l1.2-1.2c0.1-0.1,0.1-0.4,0-0.5l-1.6-1.5c-0.1-0.1-0.4-0.1-0.5,0L57,38.3z M40,46.6
		c0.8-3.2,3.3-5.8,6.6-6.6c0.6-0.1,1.2,0.3,1.2,0.9v1.7c0,0.4-0.3,0.8-0.6,0.9c-1.7,0.5-3,1.8-3.5,3.5c-0.1,0.4-0.5,0.7-0.9,0.7
		h-1.7C40.3,47.7,39.8,47.2,40,46.6z M47.7,56.5c0,0.6-0.6,1.1-1.2,0.9c-3.2-0.8-5.8-3.3-6.6-6.6c-0.1-0.6,0.3-1.2,0.9-1.2h1.7
		c0.4,0,0.8,0.3,0.9,0.6c0.5,1.7,1.8,3,3.5,3.5c0.4,0.1,0.6,0.5,0.6,0.9V56.5z M45.6,48.7c0-1.7,1.4-3.1,3.1-3.1
		c1.7,0,3.1,1.4,3.1,3.1c0,1.7-1.4,3.1-3.1,3.1C47,51.8,45.6,50.4,45.6,48.7z M57.4,50.8c-0.8,3.2-3.3,5.8-6.6,6.6
		c-0.6,0.1-1.2-0.3-1.2-0.9v-1.7c0-0.4,0.3-0.8,0.7-0.9c1.7-0.5,3-1.8,3.5-3.5c0.1-0.4,0.5-0.6,0.9-0.6h1.7
		C57.1,49.7,57.6,50.2,57.4,50.8z M56.5,47.7h-1.7c-0.4,0-0.8-0.3-0.9-0.7c-0.5-1.7-1.8-3-3.5-3.5c-0.4-0.1-0.7-0.5-0.7-0.9v-1.7
		c0-0.6,0.6-1.1,1.2-0.9c3.2,0.8,5.8,3.3,6.6,6.6C57.6,47.2,57.1,47.7,56.5,47.7z"/>
</g>
</svg>
