<?xml version="1.0" encoding="utf-8"?>
<!-- Generator: Adobe Illustrator 18.0.0, SVG Export Plug-In . SVG Version: 6.00 Build 0)  -->
<!DOCTYPE svg PUBLIC "-//W3C//DTD SVG 1.1//EN" "http://www.w3.org/Graphics/SVG/1.1/DTD/svg11.dtd">
<svg version="1.1" id="Layer_1" xmlns="http://www.w3.org/2000/svg" xmlns:xlink="http://www.w3.org/1999/xlink" x="0px" y="0px"
	 viewBox="0 0 64 64" enable-background="new 0 0 64 64" xml:space="preserve">
<g>
	<path fill="#7a029f" d="M45.9,30.2v19H5.6V21.1h29.4c-0.8-1-1.5-2.1-1.9-3.2H4c-0.9,0-1.6,0.7-1.6,1.6v31.3c0,0.9,0.7,1.6,1.6,1.6
		h43.5c0.9,0,1.6-0.7,1.6-1.6V27.6L45.9,30.2z"/>
	<path fill="#7a029f" d="M51.5,54.7c0,1.8-0.7,3.3-1.9,4.5c-1.1,1.1-2.7,1.9-4.5,1.9H6.4c-3.5,0-6.4-2.9-6.4-6.4h18.6
		c0.6,0,1.1,0.4,1.1,1c0.1,0.6,0.6,1,1.1,1h9.6c0.6,0,1.1-0.4,1.1-1c0.1-0.6,0.6-1,1.1-1H51.5z"/>
	<path fill="#7a029f" d="M49.2,2.9c-8.2,0-14.9,5-14.9,11.1c0,4,2.9,7.5,7.2,9.5v6.8c0,0.3,0.4,0.5,0.6,0.3l7-5.5c0,0,0.1,0,0.1,0
		c8.2,0,14.8-5,14.8-11.1S57.4,2.9,49.2,2.9z M49.2,12c1.1,0,2.1,0.9,2.1,2.1s-0.9,2.1-2.1,2.1c-1.1,0-2.1-0.9-2.1-2.1
		S48,12,49.2,12z M38.3,14.1c0-1.2,0.9-2.1,2.1-2.1c1.1,0,2.1,0.9,2.1,2.1s-0.9,2.1-2.1,2.1C39.2,16.1,38.3,15.2,38.3,14.1z
		 M58,16.1c-1.1,0-2.1-0.9-2.1-2.1S56.8,12,58,12c1.1,0,2.1,0.9,2.1,2.1S59.1,16.1,58,16.1z"/>
	<g>
		<g>
			<path fill="#7a029f" d="M24.5,46.6H7.1c0-4.2,3-7.8,7-8.6l1.7,4.7l1.7-4.7C21.5,38.8,24.5,42.4,24.5,46.6z"/>
			<g>
				<path fill="#7a029f" d="M20.9,32.5c-0.1,0.6-0.5,1-0.8,1.2c-0.7,1.9-2.4,3.6-4.3,3.6c-1.9,0-3.6-1.7-4.3-3.6
					c-0.4-0.1-0.7-0.6-0.8-1.2c-0.2-0.7,0-1.4,0.4-1.5c0.3-2.4,2.3-4.2,4.7-4.2c2.4,0,4.4,1.8,4.7,4.2
					C20.9,31.2,21.1,31.8,20.9,32.5z"/>
			</g>
		</g>
		<path fill="#7a029f" d="M44.5,33c0,0.7-0.5,1.2-1.2,1.2H24.9c-0.6,0-1.2-0.5-1.2-1.2c0-0.7,0.5-1.2,1.2-1.2h18.4
			C43.9,31.8,44.5,32.3,44.5,33z"/>
		<path fill="#7a029f" d="M44.5,38c0,0.7-0.5,1.2-1.2,1.2H24.9c-0.6,0-1.2-0.5-1.2-1.2c0-0.7,0.5-1.2,1.2-1.2h18.4
			C43.9,36.9,44.5,37.4,44.5,38z"/>
		<path fill="#7a029f" d="M44.5,43.1c0,0.7-0.5,1.2-1.2,1.2H29.4c-0.6,0-1.2-0.5-1.2-1.2c0-0.7,0.5-1.2,1.2-1.2h13.9
			C43.9,41.9,44.5,42.5,44.5,43.1z"/>
	</g>
</g>
</svg>
