<?xml version="1.0" encoding="utf-8"?>
<!-- Generator: Adobe Illustrator 18.0.0, SVG Export Plug-In . SVG Version: 6.00 Build 0)  -->
<!DOCTYPE svg PUBLIC "-//W3C//DTD SVG 1.1//EN" "http://www.w3.org/Graphics/SVG/1.1/DTD/svg11.dtd">
<svg version="1.1" id="Layer_1" xmlns="http://www.w3.org/2000/svg" xmlns:xlink="http://www.w3.org/1999/xlink" x="0px" y="0px"
	 viewBox="0 0 64 64" enable-background="new 0 0 64 64" xml:space="preserve">
<g>
	<g>
		<path fill="#7a029f" d="M63.2,44l-2.5-0.4c-0.4-0.1-0.7-0.4-0.8-0.7c-0.3-1.1-0.7-2.1-1.3-3.1c-0.2-0.4-0.2-0.8,0.1-1.1l1.5-2.1
			c0.3-0.4,0.3-0.9-0.1-1.3l-2.3-2.3c-0.4-0.4-0.9-0.4-1.3-0.1l-2.1,1.5c-0.3,0.3-0.8,0.3-1.1,0.1c-0.9-0.5-2-1-3.1-1.3
			c-0.4-0.1-0.7-0.4-0.7-0.8L49.2,30c-0.1-0.5-0.5-0.9-1-0.9h-3.2c-0.5,0-0.9,0.4-1,0.9l-0.4,2.5c-0.1,0.4-0.4,0.7-0.7,0.8
			c-1.1,0.3-2.1,0.7-3.1,1.3c-0.4,0.2-0.8,0.2-1.1-0.1L36.7,33c-0.4-0.3-0.9-0.3-1.3,0.1l-2.3,2.3c-0.4,0.4-0.4,0.9-0.1,1.3l1.6,2.1
			c0.2,0.3,0.2,0.7,0.1,1.1c-0.5,0.9-1,2-1.3,3.1c-0.1,0.4-0.4,0.7-0.8,0.7L30,44c-0.5,0.1-0.8,0.5-0.8,1v3.2c0,0.5,0.4,0.9,0.8,1
			l2.6,0.4c0.4,0.1,0.7,0.4,0.8,0.7c0.3,1.1,0.7,2.1,1.3,3.1c0.2,0.4,0.2,0.8-0.1,1.1L33,56.5c-0.3,0.4-0.2,0.9,0.1,1.3l2.3,2.3
			c0.4,0.3,0.9,0.4,1.3,0.1l2.1-1.5c0.3-0.3,0.8-0.3,1.1-0.1c0.9,0.5,2,1,3.1,1.3c0.4,0.1,0.7,0.4,0.7,0.8l0.4,2.5
			c0.1,0.5,0.5,0.9,1,0.9h3.2c0.5,0,0.9-0.4,1-0.9l0.4-2.5c0.1-0.4,0.4-0.7,0.7-0.8c1.1-0.3,2.1-0.7,3.1-1.3
			c0.4-0.2,0.8-0.2,1.1,0.1l2.1,1.5c0.4,0.3,0.9,0.3,1.3-0.1l2.3-2.3c0.4-0.4,0.4-0.9,0.1-1.3l-1.5-2.1c-0.3-0.3-0.3-0.7-0.1-1.1
			c0.5-0.9,1-2,1.3-3.1c0.1-0.4,0.4-0.7,0.8-0.7l2.6-0.4c0.5-0.1,0.8-0.5,0.8-1v-3.2C64,44.5,63.7,44,63.2,44z M46.6,57.7
			c-6.2,0-11.2-5-11.2-11.2c0-6.2,5-11.2,11.2-11.2c6.2,0,11.2,5,11.2,11.2C57.8,52.7,52.8,57.7,46.6,57.7z"/>
	</g>
	<g>
		<path fill="#7a029f" d="M50.1,5.3h-3.5v2.5c0,1.9-1.5,3.4-3.4,3.4s-3.4-1.5-3.4-3.4V5.3H12.3v2.5c0,1.9-1.5,3.4-3.4,3.4
			S5.5,9.8,5.5,7.9V5.3H2c-1.1,0-2,0.9-2,2v36.5c0,1.1,0.9,2,2,2h25.1V45c0-0.8,0.3-1.5,0.8-2.1H3V13.3h46v13.9
			c1.1,0.3,1.9,1.3,2.1,2.5l0.3,1.9c0.2,0.1,0.4,0.1,0.6,0.2V7.3C52.1,6.2,51.2,5.3,50.1,5.3z"/>
		<g>
			<path fill="#7a029f" d="M10.3,0.6c0.3,0.3,0.6,0.8,0.6,1.4v5.9c0,1.1-0.9,1.9-1.9,1.9S7,8.9,7,7.9V1.9C7,0.9,7.8,0,8.9,0
				C9.4,0,9.9,0.2,10.3,0.6z"/>
			<path fill="#7a029f" d="M45.1,1.9v5.9c0,1.1-0.9,1.9-1.9,1.9s-1.9-0.9-1.9-1.9V1.9c0-1.1,0.9-1.9,1.9-1.9c0.5,0,1,0.2,1.4,0.6
				C44.9,0.9,45.1,1.4,45.1,1.9z"/>
		</g>
		<g>
			<rect x="5.8" y="17.1" fill="#7a029f" width="4.9" height="4.9"/>
			<rect x="14.7" y="17.1" fill="#7a029f" width="4.9" height="4.9"/>
			<rect x="23.5" y="17.1" fill="#7a029f" width="4.9" height="4.9"/>
			<rect x="32.4" y="17.1" fill="#7a029f" width="4.9" height="4.9"/>
			<rect x="41.3" y="17.1" fill="#7a029f" width="4.9" height="4.9"/>
		</g>
		<g>
			<rect x="5.8" y="25.2" fill="#7a029f" width="4.9" height="4.9"/>
			<rect x="14.7" y="25.2" fill="#7a029f" width="4.9" height="4.9"/>
			<rect x="23.5" y="25.2" fill="#7a029f" width="4.9" height="4.9"/>
			<rect x="32.4" y="25.2" fill="#7a029f" width="4.9" height="4.9"/>
			<path fill="#7a029f" d="M46.3,25.2v1.9h-1.3c-1.5,0-2.8,1.1-3,2.6l-0.1,0.4h-0.6v-5H46.3z"/>
		</g>
		<g>
			<rect x="5.8" y="33.2" fill="#7a029f" width="4.9" height="4.9"/>
			<rect x="14.7" y="33.2" fill="#7a029f" width="4.9" height="4.9"/>
			<rect x="23.5" y="33.2" fill="#7a029f" width="4.9" height="4.9"/>
		</g>
	</g>
	<g>
		<g>
			<path fill="#7a029f" d="M47.1,36.7v0.7c0,0.3-0.2,0.5-0.5,0.5c-0.3,0-0.5-0.2-0.5-0.5v-0.7c0-0.3,0.2-0.5,0.5-0.5
				C46.8,36.2,47.1,36.4,47.1,36.7z"/>
		</g>
		<g>
			<path fill="#7a029f" d="M46.6,56.9c-0.3,0-0.5-0.2-0.5-0.5v-0.7c0-0.3,0.2-0.5,0.5-0.5c0.3,0,0.5,0.2,0.5,0.5v0.7
				C47.1,56.7,46.8,56.9,46.6,56.9z"/>
		</g>
	</g>
	<g>
		<g>
			<path fill="#7a029f" d="M56.4,47h-0.7c-0.3,0-0.5-0.2-0.5-0.5c0-0.3,0.2-0.5,0.5-0.5h0.7c0.3,0,0.5,0.2,0.5,0.5
				C56.9,46.8,56.7,47,56.4,47z"/>
		</g>
		<g>
			<path fill="#7a029f" d="M36.2,46.5c0-0.3,0.2-0.5,0.5-0.5h0.7c0.3,0,0.5,0.2,0.5,0.5c0,0.3-0.2,0.5-0.5,0.5h-0.7
				C36.4,47,36.2,46.8,36.2,46.5z"/>
		</g>
	</g>
	<g>
		<path fill="#7a029f" d="M47.9,46.6c0,0.8-0.6,1.4-1.4,1.4c-0.6,0-1.1-0.4-1.3-0.9h-3.9c-0.3,0-0.5-0.2-0.5-0.5
			c0-0.3,0.2-0.5,0.5-0.5h3.9c0.1-0.4,0.4-0.6,0.8-0.8v-5c0-0.3,0.2-0.5,0.5-0.5c0.3,0,0.5,0.2,0.5,0.5v5
			C47.6,45.5,47.9,46,47.9,46.6z"/>
	</g>
</g>
</svg>
