<?xml version="1.0" encoding="utf-8"?>
<!-- Generator: Adobe Illustrator 18.0.0, SVG Export Plug-In . SVG Version: 6.00 Build 0)  -->
<!DOCTYPE svg PUBLIC "-//W3C//DTD SVG 1.1//EN" "http://www.w3.org/Graphics/SVG/1.1/DTD/svg11.dtd">
<svg version="1.1" id="Layer_1" xmlns="http://www.w3.org/2000/svg" xmlns:xlink="http://www.w3.org/1999/xlink" x="0px" y="0px"
	 viewBox="0 0 64 64" enable-background="new 0 0 64 64" xml:space="preserve">
<g>
	<path fill="#7a029f" d="M58.6,0.5H5.4C2.4,0.5,0,2.9,0,5.9v41.3c0,3,2.4,5.4,5.3,5.4h20.4c0.2,1.6-0.1,3.3-1,4.9H20
		c-3.3,0-6,2.7-6,6H50c0-3.3-2.7-6-6-6h-4.8c-0.8-1.6-1.1-3.3-1-4.9h20.4c3,0,5.4-2.4,5.4-5.4V5.9C64,2.9,61.6,0.5,58.6,0.5z
		 M29.7,46.1c0-1.3,1-2.3,2.3-2.3c1.3,0,2.3,1,2.3,2.3c0,1.3-1,2.3-2.3,2.3C30.7,48.4,29.7,47.4,29.7,46.1z M60.7,39.7H3.3V7.1
		c0-1.7,1.4-3,3-3h51.3c1.7,0,3,1.4,3,3V39.7z"/>
	<path fill="#7a029f" d="M46.8,19.3l6.4,6.4c1.6,1.6,1.6,4.2,0,5.8l-6,6c-1.1,1.1-2.7,1.5-4.1,1c-10.6-3.3-8.6-2.7-9.8-3
		c-1.2-0.3-1.8-1.1-1.7-2.1c0.1-1.2,1.2-2,2.5-1.6l5.8,1.8l-11-11c-0.8-0.8-0.8-2.1,0-2.8c0.4-0.3,0.8-0.5,1.3-0.5
		c0.5,0,1,0.2,1.3,0.5l6,6c-0.7-0.7-0.7-1.9,0-2.7c0.7-0.7,1.9-0.7,2.7,0l0.7,0.7c-0.7-0.7-0.7-1.9,0-2.7c0.7-0.7,1.9-0.7,2.7,0
		l0.7,0.7c-0.7-0.7-0.7-1.9,0-2.7C44.9,18.6,46,18.6,46.8,19.3z"/>
	<path fill="#7a029f" d="M28.5,8.2c-6.3,0-11.4,5.1-11.4,11.4s5.1,11.4,11.4,11.4c0.9,0,1.7-0.1,2.5-0.3c0.6-0.5,1.4-0.8,2.2-0.8
		l-2.4-2.4c-0.7,0.2-1.5,0.3-2.2,0.3c-4.5,0-8.2-3.7-8.2-8.2s3.6-8.2,8.2-8.2c4.5,0,8.2,3.7,8.2,8.2c0,0.8-0.1,1.5-0.3,2.2
		c0.7-0.6,1.5-0.9,2.4-0.9c0.2-0.3,0.4-0.6,0.7-0.9c0.1-0.1,0.3-0.3,0.5-0.4c0,0,0,0,0,0C39.8,13.2,34.8,8.2,28.5,8.2z"/>
</g>
</svg>
