<?xml version="1.0" encoding="utf-8"?>
<!-- Generator: Adobe Illustrator 18.0.0, SVG Export Plug-In . SVG Version: 6.00 Build 0)  -->
<!DOCTYPE svg PUBLIC "-//W3C//DTD SVG 1.1//EN" "http://www.w3.org/Graphics/SVG/1.1/DTD/svg11.dtd">
<svg version="1.1" id="Layer_1" xmlns="http://www.w3.org/2000/svg" xmlns:xlink="http://www.w3.org/1999/xlink" x="0px" y="0px"
	 viewBox="0 0 64 64" enable-background="new 0 0 64 64" xml:space="preserve">
<g>
	<path fill="#f6fafe" d="M31.5,12.9C21,12.9,12.4,21.4,12.4,32c0,10.6,8.6,19.1,19.1,19.1c10.6,0,19.1-8.6,19.1-19.1
		C50.7,21.4,42.1,12.9,31.5,12.9z M42.2,42.2V40c0-1.8-3.9-2.9-8.4-3.1c1.6-0.8,2.7-2.4,3-4.3l0.1-1c0.4-0.2,0.7-0.7,0.9-1.3
		c0.2-0.9,0-1.7-0.6-1.8h0l0.1-1c0.3-1.7-0.9-3.2-2.5-3.5v-1.5c0-0.1-0.1-0.2-0.3-0.1c-0.9,0.7-1.9,1.3-3,1.6H28
		c-1.9,0-3.3,1.7-3.1,3.5l0.1,1c0,0,0,0,0,0c-0.6,0.1-0.8,1-0.6,1.8c0.2,0.6,0.5,1.1,0.9,1.3l0.1,1c0.3,1.9,1.5,3.5,3.1,4.3
		c-4.2,0.3-7.7,1.3-7.7,3.1v2.3c-2.5-2.7-4.1-6.3-4.1-10.3c0-8.2,6.6-14.8,14.8-14.8c8.2,0,14.8,6.6,14.8,14.8
		C46.4,36,44.8,39.6,42.2,42.2z"/>
	<path fill="#f6fafe" d="M64,32c0-2.7-2.1-4.9-4.8-5C57.2,15.6,48.3,6.6,37,4.4C36.7,1.9,34.6,0,32,0c-2.5,0-4.6,1.8-5,4.2
		C15.2,6.1,5.9,15.4,3.8,27.1C1.6,27.7,0,29.6,0,32c0,2.4,1.6,4.3,3.8,4.9c2.1,11.7,11.4,21,23.2,22.9c0.4,2.4,2.5,4.2,5,4.2
		c2.6,0,4.7-1.9,5-4.4c11.3-2.2,20.2-11.2,22.2-22.6C61.9,36.9,64,34.7,64,32z M36.7,57.1c-0.7-1.9-2.6-3.3-4.8-3.3
		c-2.2,0-4.1,1.5-4.8,3.5c-10.5-1.8-18.8-10-20.9-20.4c2.2-0.6,3.8-2.5,3.8-4.9c0-2.4-1.6-4.3-3.8-4.9c2-10.4,10.4-18.6,20.9-20.4
		c0.7,2,2.6,3.5,4.8,3.5c2.2,0,4-1.4,4.8-3.3c10.2,2.1,18.2,10.3,20,20.5c-1.7,0.8-3,2.6-3,4.6c0,2,1.2,3.8,3,4.6
		C54.9,46.9,46.9,55,36.7,57.1z"/>
</g>
</svg>
