<?xml version="1.0" encoding="utf-8"?>
<!-- Generator: Adobe Illustrator 18.0.0, SVG Export Plug-In . SVG Version: 6.00 Build 0)  -->
<!DOCTYPE svg PUBLIC "-//W3C//DTD SVG 1.1//EN" "http://www.w3.org/Graphics/SVG/1.1/DTD/svg11.dtd">
<svg version="1.1" id="Layer_1" xmlns="http://www.w3.org/2000/svg" xmlns:xlink="http://www.w3.org/1999/xlink" x="0px" y="0px"
	 viewBox="0 0 64 64" enable-background="new 0 0 64 64" xml:space="preserve">
<g>
	<path fill="#f6fafe" d="M59.2,33.2V9.6c0-2-1.6-3.6-3.6-3.6H6.5c-2,0-3.6,1.6-3.6,3.6v34.3c0,2,1.6,3.6,3.6,3.6h49.1
		c2,0,3.6-1.6,3.6-3.6v-1.7l-3.6-1.4v3.1H6.5V9.6h49.1v22.2L59.2,33.2z"/>
	<path fill="#f6fafe" d="M62,50.3c0,2.1-0.9,4-2.2,5.4c-1.4,1.4-3.3,2.2-5.4,2.2H7.7C3.4,58,0,54.6,0,50.3h22.5
		c0.7,0,1.3,0.5,1.4,1.2c0.1,0.7,0.7,1.2,1.4,1.2h11.6c0.7,0,1.3-0.5,1.4-1.2c0.1-0.7,0.7-1.2,1.4-1.2H62z"/>
	<g>
		<path fill="#f6fafe" d="M62.8,37.2L48,31.5c1-3.3,0.9-6.9-0.6-10.3c-3.3-7.7-12.2-11.3-19.9-8c-7.7,3.3-11.3,12.2-8,19.9
			c3.3,7.7,12.2,11.3,19.9,8c3.1-1.3,5.5-3.6,7.1-6.3l15,5.8c0.9,0.4,2-0.1,2.3-1C64.2,38.6,63.8,37.5,62.8,37.2z M38.1,37.9
			c-6,2.6-12.9-0.2-15.5-6.2c-2.6-6,0.2-12.9,6.2-15.5c6-2.6,12.9,0.2,15.4,6.2C46.8,28.4,44.1,35.4,38.1,37.9z"/>
		<path fill="#f6fafe" d="M33.4,28.3h8.9c-0.6,4.4-4.4,7.8-8.9,7.8c-5,0-9-4-9-9c0-4.6,3.4-8.3,7.8-8.9v8.9
			C32.2,27.8,32.8,28.3,33.4,28.3z"/>
		<path fill="#f6fafe" d="M42.4,25.9h-7.7v-7.7C38.7,18.7,41.8,21.9,42.4,25.9z"/>
	</g>
</g>
</svg>
