<?xml version="1.0" encoding="utf-8"?>
<!-- Generator: Adobe Illustrator 18.0.0, SVG Export Plug-In . SVG Version: 6.00 Build 0)  -->
<!DOCTYPE svg PUBLIC "-//W3C//DTD SVG 1.1//EN" "http://www.w3.org/Graphics/SVG/1.1/DTD/svg11.dtd">
<svg version="1.1" id="Layer_1" xmlns="http://www.w3.org/2000/svg" xmlns:xlink="http://www.w3.org/1999/xlink" x="0px" y="0px"
	 viewBox="0 0 64 64" enable-background="new 0 0 64 64" xml:space="preserve">
<g>
	<path fill="#7a029f" d="M6,57.2H58c1.8,0,3.4-1.5,3.4-3.3V21.2c0-1.8-1.5-3.3-3.4-3.3h-6.3v2.3H58c0.6,0,1.1,0.5,1.1,1.1v32.7
		c0,0.6-0.5,1.1-1.1,1.1H6c-0.6,0-1.1-0.5-1.1-1.1V21.2c0-0.6,0.5-1.1,1.1-1.1h6.3v-2.3H6c-1.9,0-3.4,1.5-3.4,3.3v32.7
		C2.6,55.7,4.1,57.2,6,57.2z"/>
	<path fill="#7a029f" d="M62.9,58.2H41v1.8H23v-1.8H1.1c-0.4,0-0.7,0.3-0.7,0.7v0c0,2.8,2.3,5.1,5.1,5.1h53c2.8,0,5.1-2.3,5.1-5.1
		C63.6,58.5,63.2,58.2,62.9,58.2z"/>
	<path fill="#7a029f" d="M14.6,39.1h34.8c0.5,0,0.9-0.4,0.9-0.9V15.4l-5.7,4.3V6.2c0-0.5-0.4-0.9-0.9-0.9H20.4
		c-0.5,0-0.9,0.4-0.9,0.9v13.5l-5.7-4.3v22.7C13.7,38.7,14.1,39.1,14.6,39.1z M20.8,6.7h22.4v14.1l-10.1,7.5
		c-0.3,0.2-0.7,0.4-1.1,0.4c-0.4,0-0.8-0.1-1.1-0.4l-10.1-7.5V6.7z"/>
	<path fill="#7a029f" d="M18.5,17.9V9.8l-4.4,3.3c-0.5,0.4-0.5,1.1,0,1.5L18.5,17.9z"/>
	<path fill="#7a029f" d="M32.6,0.2c-0.3-0.3-0.8-0.3-1.2,0l-5.6,4.2h12.4L32.6,0.2z"/>
	<path fill="#7a029f" d="M49.9,13.1l-4.5-3.3v8.1l4.5-3.3C50.4,14.2,50.4,13.5,49.9,13.1z"/>
	<path fill="#7a029f" d="M23.4,10.6h17.2c0.4,0,0.7-0.3,0.7-0.6c0-0.4-0.3-0.7-0.7-0.7H23.4c-0.4,0-0.7,0.3-0.7,0.7
		C22.8,10.3,23.1,10.6,23.4,10.6z"/>
	<path fill="#7a029f" d="M23.4,14.5h17.2c0.4,0,0.7-0.3,0.7-0.6c0-0.4-0.3-0.7-0.7-0.7H23.4c-0.4,0-0.7,0.3-0.7,0.7
		C22.8,14.2,23.1,14.5,23.4,14.5z"/>
	<path fill="#7a029f" d="M23.4,18.3h17.2c0.4,0,0.7-0.3,0.7-0.6c0-0.4-0.3-0.7-0.7-0.7H23.4c-0.4,0-0.7,0.3-0.7,0.7
		C22.8,18,23.1,18.3,23.4,18.3z"/>
	<path fill="#7a029f" d="M34,21.5c0-0.4-0.3-0.7-0.7-0.7h-9.9c-0.4,0-0.7,0.3-0.7,0.7c0,0.4,0.3,0.6,0.7,0.6h9.9
		C33.7,22.2,34,21.9,34,21.5z"/>
</g>
</svg>
