<?xml version="1.0" encoding="utf-8"?>
<!-- Generator: Adobe Illustrator 18.0.0, SVG Export Plug-In . SVG Version: 6.00 Build 0)  -->
<!DOCTYPE svg PUBLIC "-//W3C//DTD SVG 1.1//EN" "http://www.w3.org/Graphics/SVG/1.1/DTD/svg11.dtd">
<svg version="1.1" id="Layer_1" xmlns="http://www.w3.org/2000/svg" xmlns:xlink="http://www.w3.org/1999/xlink" x="0px" y="0px"
	 viewBox="0 0 64 64" enable-background="new 0 0 64 64" xml:space="preserve">
<g>
	<path fill="#7a029f" d="M46.8,18.5c0,0.5-0.4,1-1,1H25c-0.5,0-1-0.4-1-1c0-0.5,0.4-1,1-1h20.8C46.4,17.5,46.8,17.9,46.8,18.5z"/>
	<path fill="#7a029f" d="M39.1,22.7c0,0.5-0.4,1-1,1H25c-0.5,0-1-0.4-1-1c0-0.5,0.4-1,1-1h13C38.6,21.8,39.1,22.2,39.1,22.7z"/>
	<path fill="#7a029f" d="M35.9,29.9c0,0.5-0.4,1-1,1H25c-0.5,0-1-0.4-1-1c0-0.5,0.4-1,1-1h9.9C35.5,28.9,35.9,29.3,35.9,29.9z"/>
	<path fill="#7a029f" d="M35.9,34.2c0,0.5-0.4,1-1,1H25c-0.5,0-1-0.4-1-1c0-0.5,0.4-1,1-1h9.9C35.5,33.3,35.9,33.7,35.9,34.2z"/>
	<path fill="#7a029f" d="M52.1,4.1H2C0.9,4.1,0,5,0,6.1v40.4c0,1.1,0.9,1.9,2,1.9H33c-0.4-0.9-0.6-1.9-0.8-2.9H3.3l0-32.8l47.4,0
		l0,15.4c1.2,0.3,2.3,0.7,3.3,1.2V6.1C54.1,5,53.2,4.1,52.1,4.1z M6.9,10.1c-0.9,0-1.7-0.7-1.7-1.7c0-0.9,0.8-1.6,1.7-1.6
		s1.7,0.7,1.7,1.6C8.5,9.4,7.8,10.1,6.9,10.1z M11.8,10.1c-0.9,0-1.7-0.7-1.7-1.7c0-0.9,0.8-1.6,1.7-1.6c0.9,0,1.7,0.7,1.7,1.6
		C13.5,9.4,12.7,10.1,11.8,10.1z M16.8,10.1c-0.9,0-1.7-0.7-1.7-1.7c0-0.9,0.8-1.6,1.7-1.6c0.9,0,1.6,0.7,1.6,1.6
		C18.4,9.4,17.7,10.1,16.8,10.1z M48.4,9.7c-0.3,0.3-0.7,0.5-1.2,0.5H28.9c-0.9,0-1.6-0.7-1.6-1.7c0-0.5,0.2-0.9,0.5-1.2
		c0.3-0.3,0.7-0.5,1.2-0.5h18.3c0.9,0,1.7,0.7,1.7,1.6C48.9,8.9,48.7,9.4,48.4,9.7z"/>
	<g>
		<path fill="#7a029f" d="M20.8,35v-2.5c0-2.2-1.8-4.1-4.1-4.1h-1.2l-1.1,3.4l-0.2-2.4l0.5-1.5c0-0.1,0-0.2-0.1-0.2h-2.4
			c-0.1,0-0.2,0.1-0.1,0.2l0.5,1.5l-0.2,2.4l-1.1-3.4h-1.2c-2.2,0-4.1,1.8-4.1,4.1V35c0,1.1,0.9,1.9,1.9,1.9h10.9
			C20,36.9,20.8,36.1,20.8,35z"/>
		<path fill="#7a029f" d="M9.4,23c-0.1-0.4,0.1-0.8,0.4-0.9c0,0,0,0,0.1,0c0-0.2,0-0.3,0-0.5c0-2.5,1.6-3.7,3.6-3.7
			c2,0,3.6,1.2,3.6,3.7c0,0.2,0,0.3,0,0.5c0,0,0.1,0,0.1,0c0.3,0.1,0.5,0.5,0.4,0.9c-0.1,0.4-0.4,0.6-0.8,0.6
			c-0.6,1.8-1.8,3.3-3.3,3.3c-1.5,0-2.7-1.5-3.3-3.3C9.9,23.7,9.5,23.4,9.4,23z"/>
	</g>
	<path fill="#7a029f" d="M63.3,55.6l-3.4-3.4c-0.2-0.2-0.5-0.2-0.8-0.1l-1.3-1.3l0,0c1.6-2.2,2.6-4.9,2.6-7.8
		c0-7.3-5.9-13.2-13.2-13.2C39.9,29.9,34,35.8,34,43c0,7.3,5.9,13.2,13.2,13.2c2.9,0,5.6-1,7.8-2.6l0,0l1.3,1.3
		c-0.2,0.2-0.1,0.6,0.1,0.8l3.4,3.4c0.5,0.5,1.1,0.7,1.8,0.7c0.6,0,1.3-0.3,1.8-0.7C64.2,58.1,64.2,56.5,63.3,55.6z M36.6,43
		c0-5.8,4.7-10.6,10.6-10.6c5.8,0,10.6,4.7,10.6,10.6S53,53.6,47.2,53.6C41.4,53.6,36.6,48.9,36.6,43z"/>
	<g>
		<path fill="#7a029f" d="M55.9,39.7c0,0.8-0.7,1.5-1.5,1.5c-0.2,0-0.4,0-0.5-0.1l-3.5,3.5c0.2,0.2,0.2,0.5,0.2,0.8
			c0,0.8-0.7,1.5-1.5,1.5c-0.8,0-1.5-0.7-1.5-1.5c0-0.3,0.1-0.7,0.3-0.9l-1.9-1.9c-0.2,0.1-0.3,0.1-0.5,0.1c-0.3,0-0.5-0.1-0.8-0.2
			l-2.3,2.3c0.1,0.2,0.2,0.4,0.2,0.6c0,0.8-0.7,1.5-1.5,1.5c-0.8,0-1.5-0.7-1.5-1.5s0.7-1.5,1.5-1.5c0.2,0,0.5,0.1,0.6,0.2l2.4-2.3
			c-0.1-0.2-0.1-0.4-0.1-0.5c0-0.8,0.7-1.5,1.5-1.5c0.8,0,1.5,0.7,1.5,1.5c0,0.3-0.1,0.6-0.2,0.8l2,2c0.1,0,0.2,0,0.3,0
			c0.2,0,0.3,0,0.5,0.1l3.6-3.6c-0.1-0.2-0.2-0.5-0.2-0.8c0-0.8,0.7-1.5,1.5-1.5C55.2,38.2,55.9,38.8,55.9,39.7z"/>
	</g>
	<path fill="#7a029f" d="M21.1,38.9v3.8c0,0.4-0.4,0.8-0.8,0.8H6.7c-0.4,0-0.8-0.3-0.8-0.8v-3.8c0-0.4,0.3-0.8,0.8-0.8h13.6
		C20.7,38.2,21.1,38.5,21.1,38.9z"/>
</g>
</svg>
