<?xml version="1.0" encoding="utf-8"?>
<!-- Generator: Adobe Illustrator 18.0.0, SVG Export Plug-In . SVG Version: 6.00 Build 0)  -->
<!DOCTYPE svg PUBLIC "-//W3C//DTD SVG 1.1//EN" "http://www.w3.org/Graphics/SVG/1.1/DTD/svg11.dtd">
<svg version="1.1" id="Layer_1" xmlns="http://www.w3.org/2000/svg" xmlns:xlink="http://www.w3.org/1999/xlink" x="0px" y="0px"
	 viewBox="0 0 64 64" enable-background="new 0 0 64 64" xml:space="preserve">
<g>
	<path fill="#7a029f" d="M50.3,8.2H28.1V7.1c0-0.6-0.2-1.1-0.6-1.4c-0.4-0.4-0.9-0.6-1.4-0.6c-1.1,0-2,0.9-2,2v1.1H1.8
		c-0.5,0-1,0.2-1.3,0.5C0.2,9.1,0,9.5,0,10c0,1,0.8,1.8,1.8,1.8H2v31.4c0,1.1,0.9,2,2,2h21.4v1c-1.5,0.3-2.6,1.6-2.6,3.3
		c0,1.8,1.5,3.3,3.3,3.3c1.8,0,3.3-1.5,3.3-3.3c0-1.6-1.1-3-2.6-3.3v-1h1.2c-0.3-0.6-0.5-1.3-0.7-2H4V12.4h44.2v9.7
		c0.7,0.2,1.4,0.4,2,0.6V11.9h0.1c1,0,1.8-0.8,1.8-1.8C52.1,9,51.3,8.2,50.3,8.2z M28.1,49.5c0,1.1-0.9,2-2,2c-1.1,0-2-0.9-2-2
		c0-1.1,0.9-2,2-2C27.2,47.5,28.1,48.4,28.1,49.5z"/>
	<g>
		<path fill="#7a029f" d="M43.9,36.4c-0.4,0-0.7,0.1-1,0.2c0.1,0.1,0.2,0.3,0.2,0.5c0,0.4-0.3,0.7-0.7,0.7c-0.2,0-0.4-0.1-0.5-0.2
			c-0.2,0.4-0.4,0.8-0.4,1.3c0,1.4,1.1,2.5,2.5,2.5c1.4,0,2.5-1.1,2.5-2.5C46.4,37.5,45.3,36.4,43.9,36.4z"/>
		<path fill="#7a029f" d="M43.9,33.9c-4.3,0-8.6,1.6-11.8,4.9c6.5,6.5,17.1,6.5,23.6,0C52.5,35.6,48.2,33.9,43.9,33.9z M43.9,42.5
			c-2,0-3.7-1.7-3.7-3.7c0-2,1.6-3.7,3.7-3.7c2,0,3.7,1.6,3.7,3.7C47.6,40.9,46,42.5,43.9,42.5z"/>
	</g>
	<path fill="#7a029f" d="M54.6,28.1c-3-3-6.8-4.4-10.7-4.4c-3.9,0-7.7,1.5-10.7,4.4c-5.9,5.9-5.9,15.5,0,21.4
		c5.4,5.4,13.8,5.8,19.8,1.4c0.8,1.1,1.8,2.4,3,3.6c3.3,3.3,6.7,5.1,7.7,4.1c1-1-0.9-4.5-4.1-7.7c-1.2-1.2-2.5-2.2-3.6-3
		c2-2.7,3-5.9,3-9.1C59.1,35,57.6,31.1,54.6,28.1z M52.8,47.7c-4.9,4.9-12.8,4.9-17.7,0c-4.9-4.9-4.9-12.8,0-17.7
		c4.9-4.9,12.8-4.9,17.7,0S57.6,42.8,52.8,47.7z"/>
	<path fill="#7a029f" d="M14.7,17.1v5.8c0,0.6-0.5,1.1-1.1,1.1H7.8c-0.6,0-1.1-0.5-1.1-1.1v-5.8c0-0.6,0.5-1.1,1.1-1.1h5.8
		C14.3,16,14.7,16.5,14.7,17.1z"/>
	<path fill="#7a029f" d="M45.1,17.5c0,0.4-0.3,0.8-0.8,0.8H17.2c-0.4,0-0.8-0.3-0.8-0.8c0-0.4,0.3-0.8,0.8-0.8h27.1
		C44.7,16.7,45.1,17,45.1,17.5z"/>
	<path fill="#7a029f" d="M34.3,21.6c0,0.4-0.3,0.8-0.8,0.8H17.2c-0.4,0-0.8-0.3-0.8-0.8c0-0.4,0.3-0.8,0.8-0.8h16.3
		C33.9,20.8,34.3,21.1,34.3,21.6z"/>
	<path fill="#7a029f" d="M34.3,25.7c0,0.4-0.3,0.8-0.8,0.8H17.2c-0.4,0-0.8-0.3-0.8-0.8c0-0.4,0.3-0.8,0.8-0.8h16.3
		C33.9,24.9,34.3,25.3,34.3,25.7z"/>
	<path fill="#7a029f" d="M26.7,29.8c0,0.4-0.3,0.8-0.8,0.8h-8.7c-0.4,0-0.8-0.3-0.8-0.8c0-0.4,0.3-0.8,0.8-0.8h8.7
		C26.4,29,26.7,29.4,26.7,29.8z"/>
	<path fill="#7a029f" d="M26.7,33.9c0,0.4-0.3,0.8-0.8,0.8h-8.7c-0.4,0-0.8-0.3-0.8-0.8c0-0.4,0.3-0.8,0.8-0.8h8.7
		C26.4,33.1,26.7,33.5,26.7,33.9z"/>
</g>
</svg>
