<?xml version="1.0" encoding="utf-8"?>
<!-- Generator: Adobe Illustrator 18.0.0, SVG Export Plug-In . SVG Version: 6.00 Build 0)  -->
<!DOCTYPE svg PUBLIC "-//W3C//DTD SVG 1.1//EN" "http://www.w3.org/Graphics/SVG/1.1/DTD/svg11.dtd">
<svg version="1.1" id="Layer_1" xmlns="http://www.w3.org/2000/svg" xmlns:xlink="http://www.w3.org/1999/xlink" x="0px" y="0px"
	 viewBox="0 0 64 64" enable-background="new 0 0 64 64" xml:space="preserve">
<g>
	<path fill="#7a029f" d="M47.8,36.5c-3.6,0-6.5,2.9-6.5,6.5c0,3.6,2.9,6.5,6.5,6.5c3.6,0,6.5-2.9,6.5-6.5
		C54.3,39.5,51.4,36.5,47.8,36.5z M50,42.6v1h-1.6v0.5H50v1h-1.6v1.2h-1.2v-1.2h-1.6v-1h1.6v-0.5h-1.6v-1h1.1l-1.4-2.8h1.3l0.9,1.9
		c0.1,0.2,0.2,0.4,0.2,0.6c0.1-0.2,0.1-0.4,0.2-0.6l0.9-1.9h1.3l-1.4,2.8H50z"/>
	<path fill="#7a029f" d="M4.9,13.8l41,0l0,16.8c0.6-0.1,1.2-0.1,1.8-0.1c0.3,0,0.6,0,0.9,0V8.3c0-0.9-0.7-1.6-1.6-1.6H3.8
		c-0.9,0-1.6,0.7-1.6,1.6v32.8c0,0.9,0.7,1.6,1.6,1.6h31.3c0-0.8,0.1-1.6,0.3-2.3H4.9L4.9,13.8z M25.1,9.3c0.2-0.2,0.6-0.4,0.9-0.4
		h17.4c0.7,0,1.3,0.6,1.3,1.3c0,0.4-0.2,0.7-0.4,0.9c-0.3,0.3-0.6,0.4-0.9,0.4H26c-0.7,0-1.3-0.6-1.3-1.3
		C24.7,9.9,24.8,9.6,25.1,9.3z M11.6,9.7h1l0.3-0.9c0.1-0.2,0.4-0.2,0.5,0l0.3,0.9h1c0.1,0,0.2,0.1,0.2,0.2c0,0.1,0,0.2-0.1,0.3
		l-0.8,0.6l0.3,0.9c0,0.1,0,0.2-0.1,0.3c0,0-0.1,0-0.1,0c0,0-0.1,0-0.1,0l-0.8-0.6l-0.8,0.6c-0.1,0.1-0.2,0.1-0.3,0
		c-0.1-0.1-0.1-0.2-0.1-0.3l0.3-0.9l-0.8-0.6c-0.1-0.1-0.1-0.2-0.1-0.3C11.4,9.8,11.5,9.7,11.6,9.7z M6.3,9.7h1l0.3-0.9
		c0.1-0.2,0.4-0.2,0.5,0l0.3,0.9h1c0.1,0,0.2,0.1,0.2,0.2c0,0.1,0,0.2-0.1,0.3l-0.8,0.6l0.3,0.9c0,0.1,0,0.2-0.1,0.3
		c0,0-0.1,0-0.1,0s-0.1,0-0.1,0l-0.8-0.6L7,11.9c-0.1,0.1-0.2,0.1-0.3,0c-0.1-0.1-0.1-0.2-0.1-0.3l0.3-0.9l-0.8-0.6
		C6,10.1,6,10,6,9.9C6.1,9.8,6.2,9.7,6.3,9.7z"/>
	<path fill="#7a029f" d="M59.7,52.4c-1-1-2.3-2.1-3.5-3c1.3-1.8,2.1-3.9,2.1-6.3c0-5.9-4.7-10.6-10.6-10.6
		c-5.9,0-10.6,4.7-10.6,10.6c0,5.9,4.7,10.6,10.6,10.6c2.4,0,4.5-0.8,6.3-2.1c0.9,1.2,2,2.5,3,3.5c2.6,2.6,3.6,2.3,4.3,1.6
		C62,56,62.3,54.9,59.7,52.4z M47.7,51.1c-4.4,0-8.1-3.6-8.1-8.1c0-4.5,3.6-8.1,8.1-8.1c4.4,0,8.1,3.6,8.1,8.1
		C55.7,47.5,52.1,51.1,47.7,51.1z"/>
	<path fill="#7a029f" d="M11.8,27.4c0,0.2,0,0.4,0,0.6h3c0-0.2,0-0.4,0-0.6c0-3.5,2.6-6.4,6-6.8v-3C15.8,18,11.8,22.2,11.8,27.4z"/>
	<path fill="#7a029f" d="M21.6,37.2c5.4,0,9.8-4.4,9.8-9.8c0-2-0.6-3.9-1.7-5.4l-2.2,2.2c0.5,1,0.8,2.1,0.8,3.3
		c0,3.8-3.1,6.8-6.8,6.8c-2.9,0-5.4-1.9-6.4-4.5h-3.1C13.2,34,17,37.2,21.6,37.2z"/>
	<path fill="#7a029f" d="M28.7,20.6c-1.6-1.7-3.8-2.8-6.2-3v3c1.6,0.2,3.1,1,4.1,2.1L28.7,20.6z"/>
	<rect x="18.5" y="25.7" fill="#7a029f" width="1" height="5.3"/>
	<rect x="20.3" y="27.4" fill="#7a029f" width="1" height="3.7"/>
	<rect x="22" y="23.8" fill="#7a029f" width="1" height="7.3"/>
	<rect x="23.8" y="25.7" fill="#7a029f" width="1" height="5.3"/>
</g>
</svg>
