<?xml version="1.0" encoding="utf-8"?>
<!-- Generator: Adobe Illustrator 18.0.0, SVG Export Plug-In . SVG Version: 6.00 Build 0)  -->
<!DOCTYPE svg PUBLIC "-//W3C//DTD SVG 1.1//EN" "http://www.w3.org/Graphics/SVG/1.1/DTD/svg11.dtd">
<svg version="1.1" id="Layer_1" xmlns="http://www.w3.org/2000/svg" xmlns:xlink="http://www.w3.org/1999/xlink" x="0px" y="0px"
	 viewBox="0 0 64 64" enable-background="new 0 0 64 64" xml:space="preserve">
<g>
	<path fill="#f6fafe" d="M57.3,34.2h-0.4l-1.7,1.7c1.7,2.5,2.8,5.5,2.8,8.7c0,8.3-6.8,15.1-15.1,15.1c-8.3,0-15.1-6.8-15.1-15.1
		c0-8.3,6.8-15.1,15.1-15.1c3.3,0,6.3,1,8.7,2.8l1.7-1.7v-0.4c-2.9-2.1-6.5-3.4-10.4-3.4c-9.8,0-17.8,7.9-17.8,17.8
		c0,9.8,7.9,17.8,17.8,17.8c9.8,0,17.8-7.9,17.8-17.8C60.7,40.7,59.4,37.2,57.3,34.2z"/>
	<path fill="#f6fafe" d="M48.1,36.1l1.9-1.9c-2-1.4-4.4-2.2-7-2.2c-6.9,0-12.6,5.6-12.6,12.5c0,6.9,5.6,12.5,12.6,12.5
		c6.9,0,12.6-5.6,12.6-12.5c0-2.6-0.8-5-2.2-7l-1.9,1.9c0.9,1.5,1.4,3.3,1.4,5.1c0,5.5-4.5,9.9-10,9.9c-5.5,0-10-4.5-10-9.9
		c0-5.5,4.5-9.9,10-9.9C44.8,34.7,46.6,35.2,48.1,36.1L48.1,36.1z"/>
	<path fill="#f6fafe" d="M42.9,39.9c0.4,0,0.8,0.1,1.2,0.2l2-2c-1-0.5-2.1-0.8-3.2-0.8c-4,0-7.3,3.3-7.3,7.3c0,4,3.3,7.3,7.3,7.3
		c4,0,7.3-3.3,7.3-7.3c0-1.2-0.3-2.3-0.8-3.2l-2,2c0.1,0.4,0.2,0.8,0.2,1.2c0,2.6-2.1,4.7-4.7,4.7c-2.6,0-4.7-2.1-4.7-4.7
		C38.2,42,40.3,39.9,42.9,39.9z"/>
	<path fill="#f6fafe" d="M63.4,28.3l-3.2,0l1.3-1.3c0.3-0.3,0.3-0.7,0-0.9c-0.2-0.2-0.7-0.3-0.9,0l-1.3,1.3v-3.2
		c0-0.4-0.3-0.6-0.6-0.6c-0.3,0-0.6,0.3-0.6,0.6v4.5l-1.5,1.5V27c0-0.4-0.3-0.6-0.6-0.6c-0.4,0-0.6,0.3-0.6,0.6v4.5L43.9,42.8
		c-0.3-0.2-0.6-0.2-1-0.2c-0.3,0-0.7,0.1-1,0.2c-0.7,0.4-1.2,1.1-1.2,1.9c0,1.2,1,2.1,2.1,2.1c0.8,0,1.5-0.5,1.9-1.1
		c0.1-0.3,0.2-0.6,0.2-1c0-0.4-0.1-0.7-0.3-1l11.3-11.3h4.5c0.4,0,0.6-0.3,0.6-0.6c0-0.4-0.3-0.6-0.6-0.6l-3.2,0l1.5-1.5h4.5
		c0.3,0,0.6-0.3,0.6-0.6C64,28.6,63.7,28.3,63.4,28.3z"/>
	<path fill="#f6fafe" d="M38.4,11.7l-9.3-9.3c-0.5-0.5-1.2-0.8-1.9-0.8H2.8C1.2,1.6,0,2.9,0,4.4v43.1c0,1.5,1.2,2.8,2.8,2.8h21.3
		c-0.3-0.9-0.5-1.8-0.6-2.8H2.8V4.4h24.4l0.2,7.4c0,0.7,0.6,1.3,1.3,1.3l7.7,0.6v12.4c0.9-0.3,1.8-0.6,2.8-0.7V13.6
		C39.2,12.9,38.9,12.2,38.4,11.7z"/>
	<path fill="#f6fafe" d="M31.3,19.9H7.9c-0.5,0-0.8-0.4-0.8-0.8l0,0c0-0.5,0.4-0.8,0.8-0.8h23.5c0.5,0,0.8,0.4,0.8,0.8l0,0
		C32.2,19.6,31.8,19.9,31.3,19.9z"/>
	<path fill="#f6fafe" d="M31.3,25.1H7.9c-0.5,0-0.8-0.4-0.8-0.8l0,0c0-0.5,0.4-0.8,0.8-0.8h23.5c0.5,0,0.8,0.4,0.8,0.8l0,0
		C32.2,24.8,31.8,25.1,31.3,25.1z"/>
	<path fill="#f6fafe" d="M31.4,28.7c-0.7,0.5-1.4,1-2,1.6H7.9c-0.5,0-0.8-0.4-0.8-0.8c0-0.4,0.4-0.8,0.8-0.8L31.4,28.7
		C31.4,28.7,31.4,28.7,31.4,28.7z"/>
	<path fill="#f6fafe" d="M26.5,33.9c-0.4,0.5-0.7,1.1-1,1.7H7.9c-0.5,0-0.8-0.4-0.8-0.8c0-0.5,0.4-0.8,0.8-0.8H26.5z"/>
	<path fill="#f6fafe" d="M24.1,39.1c-0.2,0.5-0.3,1.1-0.4,1.6H7.9c-0.5,0-0.8-0.4-0.8-0.8c0-0.5,0.4-0.8,0.8-0.8H24.1z"/>
</g>
</svg>
