<?xml version="1.0" encoding="utf-8"?>
<!-- Generator: Adobe Illustrator 18.0.0, SVG Export Plug-In . SVG Version: 6.00 Build 0)  -->
<!DOCTYPE svg PUBLIC "-//W3C//DTD SVG 1.1//EN" "http://www.w3.org/Graphics/SVG/1.1/DTD/svg11.dtd">
<svg version="1.1" id="Layer_1" xmlns="http://www.w3.org/2000/svg" xmlns:xlink="http://www.w3.org/1999/xlink" x="0px" y="0px"
	 viewBox="0 0 64 64" enable-background="new 0 0 64 64" xml:space="preserve">
<g>
	<rect x="11.1" y="34.1" fill="#f6fafe" width="3.8" height="8.4"/>
	<path fill="#f6fafe" d="M60.8,13h-1.6L57,15.5v30.6H7V15.1h41.7l3.5-3.8H6.1c-1.6,0-2.9,1.3-2.9,2.9V50h57.6V13z"/>
	<path fill="#f6fafe" d="M0,51.8v4.4c0,1.6,1.3,2.9,2.9,2.9h58.2c1.6,0,2.9-1.3,2.9-2.9v-4.4H0z M6,56.9c-0.8,0-1.4-0.6-1.4-1.4
		C4.6,54.7,5.3,54,6,54s1.4,0.6,1.4,1.4C7.5,56.3,6.8,56.9,6,56.9z M11.5,56.9c-0.8,0-1.4-0.6-1.4-1.4c0-0.8,0.6-1.4,1.4-1.4
		c0.8,0,1.4,0.6,1.4,1.4C12.9,56.3,12.3,56.9,11.5,56.9z M58,56.9H43.5c-0.8,0-1.4-0.6-1.4-1.4c0-0.8,0.6-1.4,1.4-1.4H58
		c0.8,0,1.4,0.6,1.4,1.4C59.4,56.3,58.7,56.9,58,56.9z"/>
	<rect x="18.7" y="30.4" fill="#f6fafe" width="3.8" height="12.1"/>
	<rect x="26.3" y="33.3" fill="#f6fafe" width="3.8" height="9.2"/>
	<rect x="33.9" y="29.2" fill="#f6fafe" width="3.8" height="13.3"/>
	<rect x="41.5" y="32.5" fill="#f6fafe" width="3.8" height="10"/>
	<rect x="49.1" y="25.9" fill="#f6fafe" width="3.8" height="16.6"/>
	<path fill="#f6fafe" d="M56.6,7H59L42.8,24.7l-6.3-5.6c-0.4-0.4-1.1-0.4-1.5,0.1l-6.9,7l-8.7-8.1c-0.2-0.2-0.5-0.3-0.8-0.3
		c-0.3,0-0.6,0.2-0.8,0.4L8.5,29.9c-0.4,0.5-0.3,1.1,0.2,1.5c0.5,0.4,1.1,0.3,1.5-0.2l8.7-10.8l8.7,8c0.4,0.4,1.1,0.4,1.5,0l6.9-7.1
		l6.3,5.6c0.4,0.4,1.1,0.4,1.5-0.1L60.4,8.7v2.1c0,0.6,0.5,1.1,1.1,1.1c0.6,0,1.1-0.5,1.1-1.1V5.9c0-0.6-0.5-1.1-1.1-1.1h-4.8
		c-0.6,0-1.1,0.5-1.1,1.1C55.6,6.5,56,7,56.6,7z"/>
</g>
</svg>
