<?xml version="1.0" encoding="utf-8"?>
<!-- Generator: Adobe Illustrator 18.0.0, SVG Export Plug-In . SVG Version: 6.00 Build 0)  -->
<!DOCTYPE svg PUBLIC "-//W3C//DTD SVG 1.1//EN" "http://www.w3.org/Graphics/SVG/1.1/DTD/svg11.dtd">
<svg version="1.1" id="Layer_1" xmlns="http://www.w3.org/2000/svg" xmlns:xlink="http://www.w3.org/1999/xlink" x="0px" y="0px"
	 viewBox="0 0 64 64" enable-background="new 0 0 64 64" xml:space="preserve">
<g>
	<path fill="#f6fafe" d="M53.3,6.1H2.6C1.2,6.1,0,7.3,0,8.7v38.5c0,1.4,1.2,2.6,2.6,2.6h50.7c1.5,0,2.6-1.2,2.6-2.6V8.7
		C55.9,7.3,54.8,6.1,53.3,6.1z M32.3,8.9h17.8c0.7,0,1.2,0.5,1.2,1.2c0,0.7-0.5,1.2-1.2,1.2H32.3c-0.7,0-1.2-0.5-1.2-1.2
		C31.1,9.4,31.7,8.9,32.3,8.9z M11.7,8.6c0.8,0,1.4,0.6,1.4,1.4c0,0.8-0.6,1.4-1.4,1.4c-0.8,0-1.4-0.6-1.4-1.4
		C10.3,9.3,10.9,8.6,11.7,8.6z M6.1,8.6c0.8,0,1.4,0.6,1.4,1.4c0,0.8-0.6,1.4-1.4,1.4s-1.4-0.6-1.4-1.4C4.6,9.3,5.3,8.6,6.1,8.6z
		 M53.3,47.3H2.6V14h50.7V47.3z"/>
	<path fill="#f6fafe" d="M20.9,36.7c-1.4,1.1-3.1,1.8-5,1.8c-1.9,0-3.6-0.7-5-1.8L8.6,39c2,1.7,4.5,2.7,7.3,2.7c2.8,0,5.3-1,7.3-2.7
		L20.9,36.7z M24.4,23.1l-2.3,2.3c1.1,1.4,1.8,3.1,1.8,5c0,1.9-0.7,3.6-1.8,5l2.3,2.3c1.7-2,2.7-4.5,2.7-7.3
		C27.1,27.7,26.1,25.1,24.4,23.1z M4.7,29.6h3.2c0.4-3.7,3.4-6.7,7.1-7.1v-3.2C9.5,19.7,5.1,24.1,4.7,29.6z M4.7,31.3
		c0.2,2.5,1.2,4.7,2.7,6.4l2.3-2.3c-0.9-1.2-1.5-2.6-1.7-4.2H4.7z M16.7,19.3v3.2c1.6,0.2,3,0.8,4.2,1.7l2.3-2.3
		C21.4,20.4,19.2,19.4,16.7,19.3z"/>
	<g>
		<path fill="#f6fafe" d="M22.6,27.8c0,0.7-0.6,1.3-1.3,1.4l-2,2.3c0,0.1,0,0.1,0,0.2c0,0.8-0.6,1.4-1.4,1.4c-0.7,0-1.2-0.5-1.4-1.1
			L14.9,31c-0.2,0.1-0.5,0.2-0.7,0.2c0,0,0,0,0,0L12,33.3c-0.1,0.7-0.7,1.1-1.4,1.1c-0.8,0-1.4-0.6-1.4-1.4c0-0.8,0.6-1.4,1.4-1.4
			c0.2,0,0.4,0,0.5,0.1l1.6-1.7c0-0.1,0-0.2,0-0.3c0-0.8,0.6-1.4,1.4-1.4c0.6,0,1.1,0.4,1.3,0.9l1.8,1.2c0.2-0.1,0.4-0.2,0.6-0.2
			c0.1,0,0.1,0,0.2,0l1.8-2.1c-0.1-0.1-0.1-0.3-0.1-0.4c0-0.8,0.6-1.4,1.4-1.4C21.9,26.4,22.6,27.1,22.6,27.8z"/>
	</g>
	<path fill="#f6fafe" d="M52.8,33.3c0,0.7-0.6,1.3-1.3,1.3H29.1c-0.7,0-1.3-0.6-1.3-1.3c0-0.7,0.6-1.3,1.3-1.3h1.3v-4.7
		c0-0.7,0.6-1.3,1.3-1.3c0.7,0,1.3,0.6,1.3,1.3v4.7h1.7v-8.2c0-0.7,0.6-1.3,1.3-1.3c0.7,0,1.3,0.6,1.3,1.3v8.2H39V21.1
		c0-0.7,0.6-1.3,1.3-1.3c0.7,0,1.3,0.6,1.3,1.3v10.8h1.7V18.5c0-0.7,0.6-1.3,1.3-1.3c0.7,0,1.3,0.6,1.3,1.3v13.5h1.7V16.3
		c0-0.7,0.6-1.3,1.3-1.3c0.7,0,1.3,0.6,1.3,1.3v15.6h1.3C52.2,31.9,52.8,32.5,52.8,33.3z"/>
	<path fill="#f6fafe" d="M41.4,42.6c0,0.5-0.4,0.9-0.9,0.9H29.1c-0.5,0-0.9-0.4-0.9-0.9s0.4-0.9,0.9-0.9h11.5
		C41,41.8,41.4,42.2,41.4,42.6z"/>
	<path fill="#f6fafe" d="M48.9,38.3c0,0.5-0.4,0.9-0.9,0.9H29.1c-0.5,0-0.9-0.4-0.9-0.9c0-0.5,0.4-0.9,0.9-0.9H48
		C48.5,37.4,48.9,37.8,48.9,38.3z"/>
	<path fill="#f6fafe" d="M61.4,14.1H58V22h3.4v33.3H10.7v-3.4H8.1v3.4c0,1.4,1.2,2.6,2.6,2.6h50.7c1.4,0,2.6-1.2,2.6-2.6V16.7
		C64,15.3,62.8,14.1,61.4,14.1z"/>
</g>
</svg>
