<svg id="Layer_1" data-name="Layer 1" xmlns="http://www.w3.org/2000/svg" viewBox="0 0 119.26 98.05">
  <defs>
    <style>
      .cls-1 {
        fill: #7a029f;
      }

      .cls-2 {
        fill: #fff;
      }

      .cls-3 {
        fill: #efefe4;
      }
    </style>
  </defs>
  <title>icon-3</title>
  <polygon class="cls-1" points="13.24 53.59 12.39 53.59 12.39 18.78 103.49 18.78 103.49 34.11 102.64 34.11 102.64 19.63 13.24 19.63 13.24 53.59"/>
  <rect class="cls-1" x="12.39" y="70.13" width="0.85" height="6.39"/>
  <rect class="cls-1" x="102.64" y="50.45" width="0.85" height="26.07"/>
  <rect class="cls-1" x="99.36" y="25.84" width="0.85" height="8.15"/>
  <rect class="cls-1" x="15.67" y="25.84" width="0.85" height="28.01"/>
  <polygon class="cls-1" points="70.12 72.83 15.6 72.83 15.6 70.13 16.45 70.13 16.45 71.98 70.12 71.98 70.12 72.83"/>
  <polygon class="cls-1" points="100.21 72.83 97.01 72.83 97.01 71.98 99.36 71.98 99.36 50.45 100.21 50.45 100.21 72.83"/>
  <path class="cls-1" d="M-63.47,191.48H-148v-4.32h84.54v4.32Zm-83.69-.85h82.84V188h-82.84v2.62Z" transform="translate(163.68 -164.44)"/>
  <rect class="cls-1" x="75.6" y="81.22" width="16.4" height="0.85"/>
  <path class="cls-1" d="M-60.34,246.51h-2.41v-0.85h2.41a1,1,0,0,0,.94-0.95v-3.33H-65.3v-0.85h6.75v4.18A1.8,1.8,0,0,1-60.34,246.51Z" transform="translate(163.68 -164.44)"/>
  <rect class="cls-1" x="76.53" y="76.09" width="14.53" height="0.85"/>
  <path class="cls-1" d="M-98.26,246.51h-52.92a1.78,1.78,0,0,1-1.77-1.8v-4.18h57.46v0.85h-56.61v3.33a0.93,0.93,0,0,0,.91.95h52.92v0.85Z" transform="translate(163.68 -164.44)"/>
  <path class="cls-1" d="M-80.43,260.88a16,16,0,0,1-16-16,16,16,0,0,1,16-16,16.05,16.05,0,0,1,16,16A16.05,16.05,0,0,1-80.43,260.88Zm0-31.21a15.2,15.2,0,0,0-15.18,15.18A15.2,15.2,0,0,0-80.43,260a15.2,15.2,0,0,0,15.18-15.18A15.2,15.2,0,0,0-80.43,229.66Z" transform="translate(163.68 -164.44)"/>
  <path class="cls-1" d="M-75.83,229.8h-0.85v-1a1,1,0,0,0-.95-0.94h-4.82a1,1,0,0,0-.95.94v0.76h-0.85v-0.76a1.8,1.8,0,0,1,1.79-1.79h4.82a1.8,1.8,0,0,1,1.79,1.79v1Z" transform="translate(163.68 -164.44)"/>
  <path class="cls-1" d="M-77.63,262.49h-4.82a1.8,1.8,0,0,1-1.79-1.79v-0.62h0.85v0.62a1,1,0,0,0,.95.95h4.82a1,1,0,0,0,.95-0.95v-0.81h0.85v0.81A1.8,1.8,0,0,1-77.63,262.49Z" transform="translate(163.68 -164.44)"/>
  <path class="cls-1" d="M-64.12,249H-65.3v-0.85h1.19a1,1,0,0,0,.94-0.94v-4.82a1,1,0,0,0-.94-0.95H-65.3v-0.85h1.19a1.8,1.8,0,0,1,1.79,1.79v4.82A1.8,1.8,0,0,1-64.12,249Z" transform="translate(163.68 -164.44)"/>
  <path class="cls-1" d="M-70.48,259.53a1.79,1.79,0,0,1-1.27-.52l-0.74-.74,0.6-.6,0.74,0.74a0.94,0.94,0,0,0,1.33,0l3.41-3.41a0.94,0.94,0,0,0,0-1.33l-0.81-.81,0.6-.6,0.81,0.81a1.8,1.8,0,0,1,0,2.54L-69.22,259A1.79,1.79,0,0,1-70.48,259.53Z" transform="translate(163.68 -164.44)"/>
  <path class="cls-1" d="M-66.63,237.31l-0.6-.6,0.82-.82a1,1,0,0,0,0-1.34l-3.41-3.41a1,1,0,0,0-1.33,0l-0.74.74-0.6-.6,0.74-.74a1.84,1.84,0,0,1,2.54,0l3.41,3.41a1.8,1.8,0,0,1,0,2.54Z" transform="translate(163.68 -164.44)"/>
  <path class="cls-1" d="M-95.79,249H-97a1.8,1.8,0,0,1-1.79-1.79v-4.82A1.8,1.8,0,0,1-97,240.57h1.19v0.85H-97a1,1,0,0,0-.95.95v4.82a1,1,0,0,0,.95.94h1.19V249Z" transform="translate(163.68 -164.44)"/>
  <path class="cls-1" d="M-90.61,259.53a1.79,1.79,0,0,1-1.27-.52l-3.41-3.41a1.8,1.8,0,0,1,0-2.54l0.81-.81,0.6,0.6-0.81.81a0.94,0.94,0,0,0,0,1.33l3.41,3.41a0.94,0.94,0,0,0,1.33,0l0.74-.74,0.6,0.6-0.74.74A1.79,1.79,0,0,1-90.61,259.53Z" transform="translate(163.68 -164.44)"/>
  <path class="cls-1" d="M-94.47,237.31l-0.82-.82a1.8,1.8,0,0,1,0-2.54l3.41-3.41a1.84,1.84,0,0,1,2.54,0l0.74,0.74-0.6.6-0.74-.74a1,1,0,0,0-1.33,0l-3.41,3.41a1,1,0,0,0,0,1.34l0.82,0.82Z" transform="translate(163.68 -164.44)"/>
  <path class="cls-1" d="M-80,253.4a8.63,8.63,0,0,1-8.62-8.62A8.63,8.63,0,0,1-80,236.15a8.63,8.63,0,0,1,8.62,8.62A8.63,8.63,0,0,1-80,253.4Zm0-16.4a7.78,7.78,0,0,0-7.77,7.77A7.78,7.78,0,0,0-80,252.55a7.78,7.78,0,0,0,7.78-7.77A7.78,7.78,0,0,0-80,237Z" transform="translate(163.68 -164.44)"/>
  <g>
    <path class="cls-1" d="M-83.28,198.42h38.43a0,0,0,0,1,0,0v14.46a2,2,0,0,1-2,2H-83.28a2,2,0,0,1-2-2V200.42A2,2,0,0,1-83.28,198.42Z" transform="translate(33.55 248.87) rotate(180)"/>
    <path class="cls-1" d="M-46.85,215.31H-85.71V200.42A2.43,2.43,0,0,1-83.28,198h36.43a2.43,2.43,0,0,1,2.42,2.43v12.46A2.43,2.43,0,0,1-46.85,215.31Zm-38-.85h38a1.58,1.58,0,0,0,1.58-1.57V200.42a1.58,1.58,0,0,0-1.58-1.57H-83.28a1.58,1.58,0,0,0-1.58,1.57v14Z" transform="translate(163.68 -164.44)"/>
  </g>
  <g>
    <path class="cls-2" d="M-78.42,203.15v3.48h4.25v-3.48h0.57v7.35h-0.57V207.2h-4.25v3.29H-79v-7.35h0.58Z" transform="translate(163.68 -164.44)"/>
    <path class="cls-2" d="M-66.07,203.15V204h-0.58v-0.29H-69v6.76h-0.57v-6.76h-2.33V204h-0.57v-0.88h6.37Z" transform="translate(163.68 -164.44)"/>
    <path class="cls-2" d="M-64.22,203h0.46l3.28,6.95,3.29-6.95h0.46l1,7.49-0.57.08-0.84-6.3-3,6.45h-0.56l-3-6.43-0.77,6.23h-0.8v-0.58h0.28Z" transform="translate(163.68 -164.44)"/>
    <path class="cls-2" d="M-50.05,209.91v-0.28h0.58v0.87h-5v-7.35h0.58v6.76h3.86Z" transform="translate(163.68 -164.44)"/>
  </g>
  <g>
    <path class="cls-1" d="M2.43,53.67H29.54a2,2,0,0,1,2,2V70.13a0,0,0,0,1,0,0H2.43a2,2,0,0,1-2-2V55.67A2,2,0,0,1,2.43,53.67Z"/>
    <path class="cls-1" d="M-131.72,235h-29.54a2.43,2.43,0,0,1-2.43-2.42V220.11a2.43,2.43,0,0,1,2.43-2.43h27.11a2.43,2.43,0,0,1,2.43,2.43V235Zm-29.54-16.46a1.58,1.58,0,0,0-1.57,1.57v12.46a1.58,1.58,0,0,0,1.57,1.58h28.69v-14a1.58,1.58,0,0,0-1.57-1.57h-27.11Z" transform="translate(163.68 -164.44)"/>
  </g>
  <g>
    <path class="cls-1" d="M2.43,0.43H29.54a2,2,0,0,1,2,2V16.89a0,0,0,0,1,0,0H2.43a2,2,0,0,1-2-2V2.43A2,2,0,0,1,2.43.43Z"/>
    <path class="cls-1" d="M-131.72,181.75h-29.54a2.43,2.43,0,0,1-2.43-2.43V166.86a2.43,2.43,0,0,1,2.43-2.43h27.11a2.43,2.43,0,0,1,2.43,2.43v14.89Zm-29.54-16.46a1.58,1.58,0,0,0-1.57,1.57v12.46a1.58,1.58,0,0,0,1.57,1.57h28.69v-14a1.58,1.58,0,0,0-1.57-1.57h-27.11Z" transform="translate(163.68 -164.44)"/>
  </g>
  <g>
    <path class="cls-2" d="M-157.37,226.51a3.86,3.86,0,0,1,3.86-3.86,3.82,3.82,0,0,1,2.14.65l0.17,0.12v0.53h-0.57v-0.22a3.28,3.28,0,0,0-1.74-.51,3.29,3.29,0,0,0-3.29,3.29,3.28,3.28,0,0,0,3.29,3.28,3.18,3.18,0,0,0,1.89-.59l0.34,0.48a3.79,3.79,0,0,1-2.23.7A3.86,3.86,0,0,1-157.37,226.51Z" transform="translate(163.68 -164.44)"/>
    <path class="cls-2" d="M-147.52,223.22c-1.12,0-1.94.57-1.94,1.16,0,0.85,1,1.24,2.19,1.69s2.64,1,2.64,2.47c0,1.1-1.38,1.84-2.89,1.84a4.53,4.53,0,0,1-2.81-1.08l-0.09-.09v-0.48h0.57V229a4,4,0,0,0,2.33.83c1.35,0,2.31-.64,2.31-1.25,0-1-1-1.42-2.28-1.93-1-.4-2.55-0.91-2.55-2.23,0-1,1.22-1.73,2.52-1.73a3.65,3.65,0,0,1,2.42.9l0.09,0.09v0.46h-0.58v-0.22A3.18,3.18,0,0,0-147.52,223.22Z" transform="translate(163.68 -164.44)"/>
    <path class="cls-2" d="M-141,223.22c-1.12,0-1.94.57-1.94,1.16,0,0.85,1,1.24,2.19,1.69s2.64,1,2.64,2.47c0,1.1-1.38,1.84-2.89,1.84a4.53,4.53,0,0,1-2.81-1.08l-0.09-.09v-0.48h0.57V229a4,4,0,0,0,2.33.83c1.35,0,2.31-.64,2.31-1.25,0-1-1-1.42-2.28-1.93-1-.4-2.55-0.91-2.55-2.23,0-1,1.22-1.73,2.52-1.73a3.65,3.65,0,0,1,2.42.9l0.09,0.09v0.46H-139v-0.22A3.18,3.18,0,0,0-141,223.22Z" transform="translate(163.68 -164.44)"/>
  </g>
  <g>
    <path class="cls-2" d="M-158.9,174.72a0.56,0.56,0,0,0-.48-0.67h-0.29v-0.78h0.29a0.55,0.55,0,0,0,.48-0.67v-2.7a1.37,1.37,0,0,1,1.27-1.45V169a0.78,0.78,0,0,0-.68.87v2.7a1.23,1.23,0,0,1-.49,1.06,1.23,1.23,0,0,1,.49,1.06v2.7a0.79,0.79,0,0,0,.68.88v0.57a1.37,1.37,0,0,1-1.27-1.45v-2.7Z" transform="translate(163.68 -164.44)"/>
    <path class="cls-2" d="M-150.31,175.34l-2.79-2v-0.53l2.81-1.91,0.31,0.49-2.5,1.7,2.5,1.77Z" transform="translate(163.68 -164.44)"/>
    <path class="cls-2" d="M-145.42,171.39l0.32-.49,2.8,1.91v0.53l-2.79,2-0.33-.48,2.5-1.77Z" transform="translate(163.68 -164.44)"/>
    <path class="cls-2" d="M-137.75,178.88V178.3a0.79,0.79,0,0,0,.67-0.88v-2.7a1.23,1.23,0,0,1,.49-1.06,1.23,1.23,0,0,1-.49-1.06v-2.7a0.78,0.78,0,0,0-.67-0.87v-0.58a1.36,1.36,0,0,1,1.25,1.45v2.7a0.56,0.56,0,0,0,.49.67h0.28v0.78H-136a0.56,0.56,0,0,0-.49.67v2.7A1.36,1.36,0,0,1-137.75,178.88Z" transform="translate(163.68 -164.44)"/>
  </g>
  <g>
    <rect class="cls-3" x="64.28" y="39.13" width="9.03" height="0.75"/>
    <rect class="cls-1" x="18.18" y="29.03" width="1.26" height="0.85"/>
    <rect class="cls-1" x="21.42" y="29.03" width="4.18" height="0.85"/>
    <rect class="cls-1" x="27.63" y="29.03" width="8.37" height="0.85"/>
    <rect class="cls-1" x="27.63" y="39.08" width="29.49" height="0.85"/>
    <rect class="cls-1" x="27.63" y="34.06" width="12.37" height="0.85"/>
    <rect class="cls-1" x="41.81" y="34.06" width="17.27" height="0.85"/>
    <rect class="cls-1" x="37.05" y="29.03" width="16.03" height="0.85"/>
    <rect class="cls-1" x="56.16" y="29.03" width="4.23" height="0.85"/>
    <rect class="cls-1" x="63.78" y="34.06" width="4.23" height="0.85"/>
    <rect class="cls-1" x="58.49" y="39.08" width="4.23" height="0.85"/>
    <rect class="cls-1" x="33.22" y="36.57" width="6.78" height="0.85"/>
    <rect class="cls-1" x="27.63" y="46.61" width="3.83" height="0.85"/>
    <rect class="cls-1" x="58.69" y="44.1" width="3.83" height="0.85"/>
    <rect class="cls-1" x="63.52" y="44.1" width="10.79" height="0.85"/>
    <rect class="cls-1" x="33.22" y="44.1" width="11.08" height="0.85"/>
    <rect class="cls-1" x="33.22" y="51.7" width="14.44" height="0.85"/>
    <rect class="cls-1" x="33.22" y="54.25" width="12.63" height="0.85"/>
    <rect class="cls-1" x="38.97" y="56.79" width="6.88" height="0.85"/>
    <rect class="cls-1" x="40.55" y="61.88" width="5.3" height="0.85"/>
    <rect class="cls-1" x="47.15" y="56.79" width="11.54" height="0.85"/>
    <rect class="cls-1" x="49.22" y="51.7" width="3.04" height="0.85"/>
    <rect class="cls-1" x="59.8" y="56.79" width="1.88" height="0.85"/>
    <rect class="cls-1" x="54.7" y="51.7" width="8.81" height="0.85"/>
    <rect class="cls-1" x="45.17" y="44.1" width="12.37" height="0.85"/>
    <rect class="cls-1" x="64.28" y="39.08" width="9.03" height="0.85"/>
    <rect class="cls-1" x="63.78" y="29.03" width="5.13" height="0.85"/>
    <rect class="cls-1" x="18.18" y="34.06" width="1.26" height="0.85"/>
    <rect class="cls-1" x="18.18" y="39.08" width="1.26" height="0.85"/>
    <rect class="cls-1" x="18.18" y="46.61" width="1.26" height="0.85"/>
  </g>
</svg>
