<svg id="Layer_1" data-name="Layer 1" xmlns="http://www.w3.org/2000/svg" viewBox="0 0 122.41 78.53">
  <defs>
    <style>
      .cls-1 {
        fill: #7a029f;
      }

      .cls-2 {
        fill: #fff;
      }
    </style>
  </defs>
  <title>icon-4</title>
  <polygon class="cls-1" points="67.32 74.39 39.81 74.39 39.81 61.64 40.66 61.64 40.66 73.54 66.47 73.54 66.47 63.92 67.32 63.92 67.32 74.39"/>
  <rect class="cls-1" x="40.23" y="70.36" width="26.66" height="0.85"/>
  <polygon class="cls-1" points="15.98 20.78 15.13 20.78 15.13 5.79 48.4 5.79 48.4 6.64 15.98 6.64 15.98 20.78"/>
  <polygon class="cls-1" points="64.65 62.1 15.13 62.1 15.13 35.08 15.98 35.08 15.98 61.25 64.65 61.25 64.65 62.1"/>
  <rect class="cls-1" x="67.19" y="61.25" width="13.88" height="0.85"/>
  <polygon class="cls-1" points="94.42 62.1 83.61 62.1 83.61 61.25 93.57 61.25 93.57 37.09 94.42 37.09 94.42 62.1"/>
  <rect class="cls-1" x="93.57" y="12.69" width="0.85" height="15.32"/>
  <path class="cls-1" d="M549,94.85a1.74,1.74,0,1,1,1.74-1.74A1.74,1.74,0,0,1,549,94.85Zm0-2.63a0.89,0.89,0,1,0,.89.89A0.89,0.89,0,0,0,549,92.22Z" transform="translate(-494.22 -34.69)"/>
  <polygon class="cls-1" points="18.99 20.78 18.14 20.78 18.14 8.94 48.57 8.94 48.57 9.79 18.99 9.79 18.99 20.78"/>
  <path class="cls-1" d="M556.55,87.77H514.32a2,2,0,0,1-2-2v-16h0.85v16a1.12,1.12,0,0,0,1.12,1.11h42.22v0.85Z" transform="translate(-494.22 -34.69)"/>
  <rect class="cls-1" x="64.25" y="52.23" width="19.75" height="0.85"/>
  <path class="cls-1" d="M583.81,87.77h-3.67V86.92h3.67a1.12,1.12,0,0,0,1.12-1.11v-14h0.85v14A2,2,0,0,1,583.81,87.77Z" transform="translate(-494.22 -34.69)"/>
  <rect class="cls-1" x="90.72" y="12.88" width="0.85" height="15.13"/>
  <rect class="cls-1" x="35.51" y="22.54" width="55.63" height="0.85"/>
  <rect class="cls-1" x="18.56" y="12.46" width="72.58" height="0.85"/>
  <polygon class="cls-1" points="64.17 48.28 36.52 48.28 36.52 46.68 37.37 46.68 37.37 47.43 64.17 47.43 64.17 48.28"/>
  <polygon class="cls-1" points="73.03 48.28 66.55 48.28 66.55 47.43 72.18 47.43 72.18 46.68 73.03 46.68 73.03 48.28"/>
  <polygon class="cls-1" points="78.52 18.35 60.67 18.35 60.67 17.01 61.52 17.01 61.52 17.5 77.67 17.5 77.67 17.01 78.52 17.01 78.52 18.35"/>
  <polygon class="cls-1" points="72.88 32.68 60.67 32.68 60.67 31.32 61.52 31.32 61.52 31.83 72.03 31.83 72.03 31.32 72.88 31.32 72.88 32.68"/>
  <rect class="cls-1" x="61.1" y="36.89" width="16.99" height="0.85"/>
  <rect class="cls-1" x="86.03" y="54.8" width="7.96" height="0.85"/>
  <rect class="cls-1" x="64.13" y="54.8" width="20" height="0.85"/>
  <rect class="cls-1" x="15.56" y="54.8" width="46.67" height="0.85"/>
  <rect class="cls-1" x="61.1" y="39.75" width="16.99" height="0.85"/>
  <g>
    <rect class="cls-1" x="34.49" y="38.13" width="4.9" height="4.9"/>
    <path class="cls-1" d="M534,78.14h-5.75V72.39H534v5.75Zm-4.9-.85h4.05V73.24h-4.05v4.05Z" transform="translate(-494.22 -34.69)"/>
  </g>
  <g>
    <rect class="cls-1" x="50.23" y="35.77" width="4.9" height="7.26"/>
    <path class="cls-1" d="M549.78,78.14H544V70h5.75v8.11Zm-4.9-.85h4.05V70.89h-4.05v6.41Z" transform="translate(-494.22 -34.69)"/>
  </g>
  <path class="cls-1" d="M541.91,78.14h-5.75V66h5.75V78.14ZM537,77.29h4.06V66.9H537V77.29Z" transform="translate(-494.22 -34.69)"/>
  <g>
    <path class="cls-1" d="M2.43,20.78h31.1a2,2,0,0,1,2,2V35.08a0,0,0,0,1,0,0H2.43a2,2,0,0,1-2-2V22.78A2,2,0,0,1,2.43,20.78Z"/>
    <path class="cls-1" d="M530.16,70.19H496.64a2.43,2.43,0,0,1-2.42-2.43V57.47A2.43,2.43,0,0,1,496.64,55h31.1a2.43,2.43,0,0,1,2.42,2.43V70.19ZM496.64,55.9a1.58,1.58,0,0,0-1.58,1.57V67.76a1.58,1.58,0,0,0,1.58,1.57h32.67V57.47a1.58,1.58,0,0,0-1.58-1.57h-31.1Z" transform="translate(-494.22 -34.69)"/>
  </g>
  <g>
    <path class="cls-2" d="M503.24,58.44c-1.4,0-2.4.71-2.4,1.44,0,1.06,1.29,1.54,2.71,2.09s3.28,1.25,3.28,3.06c0,1.37-1.72,2.28-3.59,2.28A5.62,5.62,0,0,1,499.75,66l-0.11-.11V65.27h0.71v0.28a5,5,0,0,0,2.89,1c1.68,0,2.87-.79,2.87-1.56,0-1.21-1.21-1.76-2.83-2.39-1.28-.5-3.17-1.13-3.17-2.77,0-1.29,1.52-2.15,3.13-2.15a4.53,4.53,0,0,1,3,1.11l0.11,0.11v0.58h-0.72V59.26A4,4,0,0,0,503.24,58.44Z" transform="translate(-494.22 -34.69)"/>
    <path class="cls-2" d="M509,58.68v3.6h2.63V63H509v3.36h4.79V66h0.73v1.07h-6.24V58.68h-0.35V58H514V59H513.3V58.68H509Z" transform="translate(-494.22 -34.69)"/>
    <path class="cls-2" d="M524.57,62.52a4.79,4.79,0,1,1-4.79-4.79A4.8,4.8,0,0,1,524.57,62.52Zm-4.79,4.07a4.08,4.08,0,1,0-4.08-4.07A4.06,4.06,0,0,0,519.77,66.59Z" transform="translate(-494.22 -34.69)"/>
  </g>
  <g>
    <path class="cls-1" d="M576.34,62.7H616.2a0,0,0,0,1,0,0v7.08a2,2,0,0,1-2,2H576.34a2,2,0,0,1-2-2V64.7A2,2,0,0,1,576.34,62.7Z" transform="translate(696.33 99.79) rotate(180)"/>
    <path class="cls-1" d="M614.2,72.21H573.92V64.7a2.43,2.43,0,0,1,2.42-2.43H614.2a2.43,2.43,0,0,1,2.42,2.43v5.08A2.43,2.43,0,0,1,614.2,72.21Zm-39.44-.85H614.2a1.58,1.58,0,0,0,1.58-1.57V64.7a1.58,1.58,0,0,0-1.58-1.57H576.34a1.58,1.58,0,0,0-1.58,1.57v6.66Z" transform="translate(-494.22 -34.69)"/>
  </g>
  <g>
    <path class="cls-2" d="M577.88,65.19v2.69l2.29-2.69h0.36v0.35h-0.2l-1.49,1.75,1.5,1.77a0.41,0.41,0,0,0,.41.16v0.35a0.73,0.73,0,0,1-.68-0.29l-1.46-1.72-0.73.86v1.15h-0.35V65.19h0.35Z" transform="translate(-494.22 -34.69)"/>
    <path class="cls-2" d="M581.78,65.54v1.73H583V67.6h-1.26v1.61h2.3V69h0.35v0.52h-3v-4h-0.17V65.19h2.93v0.52h-0.35V65.54h-2.07Z" transform="translate(-494.22 -34.69)"/>
    <path class="cls-2" d="M586.66,67.9v1.66h-0.34V67.9l-1.43-2.36h-0.12V65.19h0.32l1.4,2.32h0l1.37-2.29v0h0.35v0.14Z" transform="translate(-494.22 -34.69)"/>
    <path class="cls-2" d="M591.1,65.19L592.52,69l1-2.77v-0.6h0.35v0.6l1,2.77,1.44-3.9,0.32,0.12-1.64,4.43h-0.25l-1.08-2.9-1.08,2.9h-0.25l-1.53-4.14h-0.12V65.19h0.36Z" transform="translate(-494.22 -34.69)"/>
    <path class="cls-2" d="M601.42,67.38a2.3,2.3,0,1,1-2.3-2.3A2.3,2.3,0,0,1,601.42,67.38Zm-2.3,2a2,2,0,1,0-2-2A1.95,1.95,0,0,0,599.12,69.33Z" transform="translate(-494.22 -34.69)"/>
    <path class="cls-2" d="M604.8,69a0.25,0.25,0,0,0,.26.17h0.26v0.35h-0.26a0.58,0.58,0,0,1-.55-0.33l-0.67-1a0.78,0.78,0,0,0-.93-0.47h-0.46v1.84H602.1v-4h-0.17V65.19h1.69a1.24,1.24,0,1,1,.17,2.47h0a1,1,0,0,1,.33.33Zm-0.05-2.59a1,1,0,0,0-1.12-.92h-1.18v1.84h1.18A1,1,0,0,0,604.75,66.46Z" transform="translate(-494.22 -34.69)"/>
    <path class="cls-2" d="M607.5,65.19a2.19,2.19,0,0,1,0,4.37H606v-4h-0.17V65.19h1.67Zm0,4a1.84,1.84,0,0,0,0-3.68h-1.15v3.68h1.15Z" transform="translate(-494.22 -34.69)"/>
    <path class="cls-2" d="M611.87,65.42a1,1,0,0,0-1.15.69c0,0.51.62,0.74,1.3,1s1.57,0.6,1.57,1.47c0,0.66-.82,1.09-1.72,1.09a2.7,2.7,0,0,1-1.67-.64L610.14,69V68.7h0.34v0.14a2.4,2.4,0,0,0,1.38.5,1.23,1.23,0,0,0,1.38-.75c0-.58-0.58-0.84-1.36-1.15-0.61-.24-1.52-0.54-1.52-1.33a1.33,1.33,0,0,1,1.5-1,2.17,2.17,0,0,1,1.44.53l0.05,0.05v0.28H613V65.81A1.89,1.89,0,0,0,611.87,65.42Z" transform="translate(-494.22 -34.69)"/>
  </g>
  <g>
    <path class="cls-1" d="M544.78,35.11h45a0,0,0,0,1,0,0V45.52a2,2,0,0,1-2,2h-43a2,2,0,0,1-2-2V37.11A2,2,0,0,1,544.78,35.11Z" transform="translate(638.35 47.95) rotate(180)"/>
    <path class="cls-1" d="M587.78,47.95H542.36V37.11a2.43,2.43,0,0,1,2.42-2.43h43a2.43,2.43,0,0,1,2.42,2.43v8.41A2.43,2.43,0,0,1,587.78,47.95Zm-44.58-.85h44.58a1.58,1.58,0,0,0,1.58-1.57V37.11a1.58,1.58,0,0,0-1.58-1.57h-43a1.58,1.58,0,0,0-1.58,1.57v10Z" transform="translate(-494.22 -34.69)"/>
  </g>
  <g>
    <path class="cls-2" d="M549.93,38.83h0.3l2.05,5.35-0.39.16L551.39,43h-2.63l-0.49,1.26h-0.48V43.84H548Zm-1,3.76h2.31l-1.14-3Z" transform="translate(-494.22 -34.69)"/>
    <path class="cls-2" d="M552.8,39.38V39h0.59l3.37,4.55h0V39h0.41v5.29H556.8l-3.37-4.55h0v4.55H553V39.38h-0.2Z" transform="translate(-494.22 -34.69)"/>
    <path class="cls-2" d="M559.95,38.83h0.3l2.05,5.35-0.39.16L561.4,43h-2.63l-0.49,1.26H557.8V43.84H558Zm-1,3.76h2.31l-1.14-3Z" transform="translate(-494.22 -34.69)"/>
    <path class="cls-2" d="M566.22,43.84v-0.2h0.42v0.62H563V39h0.42v4.87h2.78Z" transform="translate(-494.22 -34.69)"/>
    <path class="cls-2" d="M567.47,44.26V39h0.42v5.29h-0.42Z" transform="translate(-494.22 -34.69)"/>
    <path class="cls-2" d="M573.32,39v0.63H572.9V39.38h-1.67v4.87h-0.41V39.38h-1.68v0.21h-0.41V39h4.59Z" transform="translate(-494.22 -34.69)"/>
    <path class="cls-2" d="M574.14,44.26V39h0.42v5.29h-0.42Z" transform="translate(-494.22 -34.69)"/>
    <path class="cls-2" d="M575.4,41.61a2.79,2.79,0,0,1,2.78-2.78,2.75,2.75,0,0,1,1.54.47l0.13,0.09v0.38h-0.41V39.61A2.36,2.36,0,1,0,578.18,44a2.29,2.29,0,0,0,1.36-.43l0.24,0.34a2.73,2.73,0,0,1-1.61.51A2.79,2.79,0,0,1,575.4,41.61Z" transform="translate(-494.22 -34.69)"/>
    <path class="cls-2" d="M582.49,39.24a1.24,1.24,0,0,0-1.4.83c0,0.62.75,0.9,1.58,1.22s1.9,0.73,1.9,1.78c0,0.8-1,1.33-2.08,1.33a3.27,3.27,0,0,1-2-.78l-0.06-.06V43.21h0.41v0.16a2.91,2.91,0,0,0,1.68.6c1,0,1.67-.46,1.67-0.9,0-.7-0.7-1-1.65-1.39-0.74-.29-1.84-0.65-1.84-1.61a1.61,1.61,0,0,1,1.82-1.25,2.63,2.63,0,0,1,1.75.65l0.06,0.06v0.34h-0.42V39.72A2.29,2.29,0,0,0,582.49,39.24Z" transform="translate(-494.22 -34.69)"/>
  </g>
  <path class="cls-1" d="M568.35,101.48a12.36,12.36,0,1,1,8.74-21.1h0A12.36,12.36,0,0,1,568.35,101.48Zm0-23.86A11.51,11.51,0,1,0,576.48,81,11.43,11.43,0,0,0,568.35,77.61Z" transform="translate(-494.22 -34.69)"/>
  <path class="cls-1" d="M568.35,99.58a10.46,10.46,0,1,1,7.4-3.06A10.43,10.43,0,0,1,568.35,99.58Zm0-20.06a9.61,9.61,0,1,0,6.8,2.81A9.58,9.58,0,0,0,568.35,79.51Z" transform="translate(-494.22 -34.69)"/>
  <rect class="cls-1" x="576.79" y="97.88" width="0.85" height="4.16" transform="translate(-395.78 402.81) rotate(-45.01)"/>
  <rect class="cls-1" x="578.76" y="95.9" width="0.85" height="4.16" transform="translate(-393.86 403.57) rotate(-45)"/>
  <g>
    <rect class="cls-1" x="582.87" y="98.23" width="4.27" height="15.08" transform="translate(-397.67 409.95) rotate(-45)"/>
    <path class="cls-1" d="M588.82,113.22L577.56,102l3.62-3.62,11.26,11.26ZM578.76,102L588.82,112l2.42-2.42L581.18,99.54Z" transform="translate(-494.22 -34.69)"/>
  </g>
</svg>
