<svg id="Layer_1" data-name="Layer 1" xmlns="http://www.w3.org/2000/svg" viewBox="0 0 111.82 80.01">
  <defs>
    <style>
      .cls-1 {
        fill: #7a029f;
      }
    </style>
  </defs>
  <title>icon-1</title>
  <g>
    <rect class="cls-1" x="88.87" y="55.81" width="18.8" height="18.8"/>
    <path class="cls-1" d="M-47.94,101.63H-67.59V82h19.65v19.65Zm-18.8-.85h18v-18h-18v18Z" transform="translate(156.03 -26.59)"/>
  </g>
  <g>
    <rect class="cls-1" x="0.43" y="74.65" width="110.97" height="4.9"/>
    <path class="cls-1" d="M-44.22,106.6h-0.43L-156,106.53v-5.75h0.43l111.39,0.07v5.75Zm-111-.92,110.11,0.07v-4l-110.11-.07v4Z" transform="translate(156.03 -26.59)"/>
  </g>
  <polygon class="cls-1" points="57.06 75.04 27.02 75.04 27.02 61.11 27.87 61.11 27.87 74.19 56.21 74.19 56.21 61.11 57.06 61.11 57.06 75.04"/>
  <rect class="cls-1" x="27.45" y="70.7" width="29.19" height="0.85"/>
  <path class="cls-1" d="M-69.3,88.17H-156V26.59H-69.3V88.17Zm-85.88-.85h85V27.44h-85V87.32Z" transform="translate(156.03 -26.59)"/>
  <path class="cls-1" d="M-112.67,86a1.87,1.87,0,0,1-1.86-1.86,1.87,1.87,0,0,1,1.86-1.86,1.87,1.87,0,0,1,1.86,1.86A1.87,1.87,0,0,1-112.67,86Zm0-2.88a1,1,0,0,0-1,1,1,1,0,0,0,1,1,1,1,0,0,0,1-1A1,1,0,0,0-112.67,83.17Z" transform="translate(156.03 -26.59)"/>
  <g>
    <circle class="cls-1" cx="21.69" cy="25.27" r="3.68"/>
    <path class="cls-1" d="M-134.35,56a4.11,4.11,0,0,1-4.11-4.11,4.11,4.11,0,0,1,4.11-4.11,4.11,4.11,0,0,1,4.11,4.11A4.11,4.11,0,0,1-134.35,56Zm0-7.36a3.26,3.26,0,0,0-3.26,3.26,3.26,3.26,0,0,0,3.26,3.26,3.26,3.26,0,0,0,3.26-3.26A3.26,3.26,0,0,0-134.35,48.61Z" transform="translate(156.03 -26.59)"/>
  </g>
  <g>
    <circle class="cls-1" cx="43.45" cy="25.27" r="3.68"/>
    <path class="cls-1" d="M-112.58,56a4.11,4.11,0,0,1-4.11-4.11,4.11,4.11,0,0,1,4.11-4.11,4.11,4.11,0,0,1,4.11,4.11A4.11,4.11,0,0,1-112.58,56Zm0-7.36a3.26,3.26,0,0,0-3.26,3.26,3.26,3.26,0,0,0,3.26,3.26,3.26,3.26,0,0,0,3.26-3.26A3.26,3.26,0,0,0-112.58,48.61Z" transform="translate(156.03 -26.59)"/>
  </g>
  <g>
    <circle class="cls-1" cx="65.21" cy="25.27" r="3.68"/>
    <path class="cls-1" d="M-90.82,56a4.11,4.11,0,0,1-4.11-4.11,4.11,4.11,0,0,1,4.11-4.11,4.11,4.11,0,0,1,4.11,4.11A4.11,4.11,0,0,1-90.82,56Zm0-7.36a3.26,3.26,0,0,0-3.26,3.26,3.26,3.26,0,0,0,3.26,3.26,3.26,3.26,0,0,0,3.26-3.26A3.26,3.26,0,0,0-90.82,48.61Z" transform="translate(156.03 -26.59)"/>
  </g>
  <g>
    <rect class="cls-1" x="18.01" y="37.79" width="21.87" height="9.53"/>
    <path class="cls-1" d="M-115.73,74.33h-22.72V64h22.72V74.33Zm-21.87-.85h21V64.81h-21v8.68Z" transform="translate(156.03 -26.59)"/>
  </g>
  <path class="cls-1" d="M-74.54,78.29h-76.09a2.12,2.12,0,0,1-2.12-2.11V30h80.32V76.19A2.12,2.12,0,0,1-74.54,78.29Zm-77.35-47.4V76.19a1.26,1.26,0,0,0,1.27,1.26h76.09a1.26,1.26,0,0,0,1.27-1.26V30.9h-78.62Z" transform="translate(156.03 -26.59)"/>
  <rect class="cls-1" x="3.72" y="18.34" width="79.47" height="0.85"/>
  <rect class="cls-1" x="3.72" y="7.62" width="79.47" height="0.85"/>
  <polygon class="cls-1" points="63.31 32.42 23.42 32.42 23.42 30.71 24.27 30.71 24.27 31.57 62.46 31.57 62.46 30.71 63.31 30.71 63.31 32.42"/>
  <polygon class="cls-1" points="59.07 34.91 27.67 34.91 27.67 33.52 28.52 33.52 28.52 34.06 58.22 34.06 58.22 33.52 59.07 33.52 59.07 34.91"/>
  <polygon class="cls-1" points="69.32 13.67 49.86 13.67 49.86 11.81 50.72 11.81 50.72 12.82 68.47 12.82 68.47 11.81 69.32 11.81 69.32 13.67"/>
  <rect class="cls-1" x="43.2" y="43.32" width="23.37" height="0.85"/>
  <rect class="cls-1" x="43.2" y="46.29" width="23.37" height="0.85"/>
  <rect class="cls-1" x="5.27" y="5.43" width="1.97" height="0.85"/>
  <rect class="cls-1" x="8.51" y="5.43" width="1.97" height="0.85"/>
  <rect class="cls-1" x="11.76" y="5.43" width="1.97" height="0.85"/>
  <rect class="cls-1" x="0.43" y="53.67" width="85.88" height="0.85"/>
  <polygon class="cls-1" points="107.34 55.81 106.49 55.81 106.49 38.22 102.1 38.22 102.1 55.81 101.25 55.81 101.25 37.37 107.34 37.37 107.34 55.81"/>
  <rect class="cls-1" x="103.64" y="42.05" width="3.27" height="0.85"/>
  <rect class="cls-1" x="103.64" y="47.36" width="3.27" height="0.85"/>
  <rect class="cls-1" x="105.28" y="50.27" width="1.64" height="0.85"/>
  <rect class="cls-1" x="103.64" y="52.84" width="3.27" height="0.85"/>
  <polygon class="cls-1" points="92.3 55.81 91.45 55.81 91.45 45.58 90.76 41.73 90.06 45.66 90.07 55.81 89.22 55.81 89.22 45.58 90.76 36.88 92.3 45.51 92.3 55.81"/>
  <polygon class="cls-1" points="97.77 55.81 96.92 55.81 96.92 46.01 95.2 46.01 95.2 55.81 94.35 55.81 94.35 45.16 97.77 45.16 97.77 55.81"/>
  <rect class="cls-1" x="89.64" y="45.16" width="2.23" height="0.85"/>
  <polygon class="cls-1" points="99.68 59.03 98.83 59.03 98.83 47.98 94.77 47.98 94.77 47.13 99.68 47.13 99.68 59.03"/>
  <rect class="cls-1" x="105.28" y="44.74" width="1.64" height="0.85"/>
</svg>
