<svg id="Layer_1" data-name="Layer 1" xmlns="http://www.w3.org/2000/svg" viewBox="0 0 102 92.02">
  <defs>
    <style>
      .cls-1 {
        fill: #7a029f;
      }

      .cls-2 {
        fill: #fff;
      }
    </style>
  </defs>
  <title>icon-2</title>
  <g>
    <path class="cls-1" d="M-139.19,371h-26.27V344.74h26.27V371Zm-25.42-.85H-140V345.59H-164.6v24.57Z" transform="translate(169.17 -332.21)"/>
    <g>
      <rect class="cls-1" x="4.14" y="12.96" width="25.42" height="7.02"/>
      <path class="cls-1" d="M-139.19,352.61h-26.27v-7.87h26.27v7.87Zm-25.42-.85H-140v-6.17H-164.6v6.17Z" transform="translate(169.17 -332.21)"/>
    </g>
    <path class="cls-1" d="M-139.19,371h-26.27v-7.87h26.27V371Zm-25.42-.85H-140V364H-164.6v6.17Z" transform="translate(169.17 -332.21)"/>
    <path class="cls-1" d="M-139.19,401.7h-26.27V375.43h26.27V401.7Zm-25.42-.85H-140V376.28H-164.6v24.57Z" transform="translate(169.17 -332.21)"/>
    <path class="cls-1" d="M-108.7,371H-135V344.74h26.27V371Zm-25.42-.85h24.57V345.59h-24.57v24.57Z" transform="translate(169.17 -332.21)"/>
    <path class="cls-1" d="M-108.7,401.7H-135V375.43h26.27V401.7Zm-25.42-.85h24.57V376.28h-24.57v24.57Z" transform="translate(169.17 -332.21)"/>
    <path d="M-78.21,371h-26.27V344.74h26.27V371Zm-25.42-.85h24.57V345.59h-24.57v24.57Z" transform="translate(169.17 -332.21)"/>
    <path class="cls-1" d="M-78.21,401.7h-26.27V375.43h26.27V401.7Zm-25.42-.85h24.57V376.28h-24.57v24.57Z" transform="translate(169.17 -332.21)"/>
    <g>
      <rect class="cls-1" x="34.62" y="12.96" width="25.42" height="7.02"/>
      <path class="cls-1" d="M-108.7,352.61H-135v-7.87h26.27v7.87Zm-25.42-.85h24.57v-6.17h-24.57v6.17Z" transform="translate(169.17 -332.21)"/>
    </g>
    <path class="cls-1" d="M-108.7,371H-135v-7.87h26.27V371Zm-25.42-.85h24.57V364h-24.57v6.17Z" transform="translate(169.17 -332.21)"/>
    <path class="cls-1" d="M-78.21,371h-26.27v-7.87h26.27V371Zm-25.42-.85h24.57V364h-24.57v6.17Z" transform="translate(169.17 -332.21)"/>
    <path class="cls-1" d="M-108.7,401.7H-135v-7.87h26.27v7.87Zm-25.42-.85h24.57v-6.17h-24.57v6.17Z" transform="translate(169.17 -332.21)"/>
    <g>
      <rect class="cls-1" x="4.14" y="62.05" width="25.42" height="7.02"/>
      <path class="cls-1" d="M-139.19,401.7h-26.27v-7.87h26.27v7.87Zm-25.42-.85H-140v-6.17H-164.6v6.17Z" transform="translate(169.17 -332.21)"/>
    </g>
    <path class="cls-1" d="M-126.64,364H-135V351.76h8.33V364Zm-7.48-.85h6.63V352.61h-6.63v10.54Z" transform="translate(169.17 -332.21)"/>
    <path class="cls-1" d="M-108.7,394.68H-117V382.44h8.33v12.24Zm-7.48-.85h6.63V383.29h-6.63v10.54Z" transform="translate(169.17 -332.21)"/>
    <path class="cls-1" d="M-157.13,394.68h-8.33V375.56h8.33v19.12Zm-7.48-.85H-158V376.41h-6.63v17.42Z" transform="translate(169.17 -332.21)"/>
    <path class="cls-1" d="M-96.15,364h-8.33V351.76h8.33V364Zm-7.48-.85H-97V352.61h-6.63v10.54Z" transform="translate(169.17 -332.21)"/>
    <path class="cls-1" d="M-78.21,364h-8.33V351.76h8.33V364Zm-7.48-.85h6.63V352.61h-6.63v10.54Z" transform="translate(169.17 -332.21)"/>
    <path class="cls-1" d="M-96.15,401.85h-8.33V382.57h8.33v19.28Zm-7.48-.85H-97V383.42h-6.63V401Z" transform="translate(169.17 -332.21)"/>
    <g>
      <rect class="cls-1" x="65.11" y="12.96" width="25.42" height="7.02"/>
      <path class="cls-1" d="M-78.21,352.61h-26.27v-7.87h26.27v7.87Zm-25.42-.85h24.57v-6.17h-24.57v6.17Z" transform="translate(169.17 -332.21)"/>
    </g>
    <g>
      <rect class="cls-1" x="34.62" y="43.64" width="25.42" height="7.02"/>
      <path class="cls-1" d="M-108.7,383.29H-135v-7.87h26.27v7.87Zm-25.42-.85h24.57v-6.17h-24.57v6.17Z" transform="translate(169.17 -332.21)"/>
    </g>
    <g>
      <rect class="cls-1" x="65.11" y="43.77" width="25.42" height="7.02"/>
      <path class="cls-1" d="M-78.21,383.42h-26.27v-7.87h26.27v7.87Zm-25.42-.85h24.57v-6.17h-24.57v6.17Z" transform="translate(169.17 -332.21)"/>
    </g>
  </g>
  <g>
    <g>
      <path class="cls-1" d="M-70.2,405.59a3,3,0,0,1-2.14-.89,3,3,0,0,1-.89-2.14v-2h6.07v2a3,3,0,0,1-3,3h0Zm-2.18-4.18v1.15a2.17,2.17,0,0,0,.64,1.54,2.17,2.17,0,0,0,1.54.64h0A2.18,2.18,0,0,0-68,402.56v-1.15h-4.37Z" transform="translate(169.17 -332.21)"/>
      <path class="cls-1" d="M-73.23,401.45l0-54.19h6.07l0,54.19h-6.07Zm0.83-53.34,0,52.49H-68l0-52.49H-72.4Z" transform="translate(169.17 -332.21)"/>
      <g>
        <rect class="cls-1" x="-72.82" y="347.68" width="5.22" height="50.91" transform="translate(29.14 414.14) rotate(179.94)"/>
        <path class="cls-1" d="M-73.24,399l0-51.76h6.07l0,51.76h-6.07Zm0.84-50.92,0,50.06H-68l0-50.06H-72.4Z" transform="translate(169.17 -332.21)"/>
      </g>
      <polygon class="cls-1" points="96.76 15.6 95.92 15.43 98.96 0 101.97 15.44 101.14 15.6 98.95 4.42 96.76 15.6"/>
    </g>
    <g>
      <rect class="cls-2" x="0.43" y="78.59" width="101.15" height="13.01"/>
      <path class="cls-1" d="M-67.17,424.23h-102V410.37h102v13.85Zm-101.15-.85H-68V411.22h-100.3v12.16Z" transform="translate(169.17 -332.21)"/>
    </g>
    <rect class="cls-1" x="97.81" y="7.63" width="2.27" height="0.85"/>
    <g>
      <rect class="cls-1" x="8.78" y="78.59" width="0.85" height="7.63"/>
      <rect class="cls-1" x="25.17" y="78.59" width="0.85" height="7.63"/>
      <rect class="cls-1" x="14.11" y="78.59" width="0.85" height="5.79"/>
      <rect class="cls-1" x="17.8" y="78.59" width="0.85" height="5.79"/>
      <rect class="cls-1" x="21.48" y="78.59" width="0.85" height="5.79"/>
      <rect class="cls-1" x="41.56" y="78.59" width="0.85" height="7.63"/>
      <rect class="cls-1" x="30.5" y="78.59" width="0.85" height="5.79"/>
      <rect class="cls-1" x="34.19" y="78.59" width="0.85" height="5.79"/>
      <rect class="cls-1" x="37.87" y="78.59" width="0.85" height="5.79"/>
      <rect class="cls-1" x="57.95" y="78.59" width="0.85" height="7.63"/>
      <rect class="cls-1" x="46.89" y="78.59" width="0.85" height="5.79"/>
      <rect class="cls-1" x="50.57" y="78.59" width="0.85" height="5.79"/>
      <rect class="cls-1" x="54.26" y="78.59" width="0.85" height="5.79"/>
      <rect class="cls-1" x="74.34" y="78.59" width="0.85" height="7.63"/>
      <rect class="cls-1" x="63.28" y="78.59" width="0.85" height="5.79"/>
      <rect class="cls-1" x="66.96" y="78.59" width="0.85" height="5.79"/>
      <rect class="cls-1" x="70.65" y="78.59" width="0.85" height="5.79"/>
      <rect class="cls-1" x="90.72" y="78.59" width="0.85" height="7.63"/>
      <rect class="cls-1" x="79.66" y="78.59" width="0.85" height="5.79"/>
      <rect class="cls-1" x="83.35" y="78.59" width="0.85" height="5.79"/>
      <rect class="cls-1" x="87.04" y="78.59" width="0.85" height="5.79"/>
    </g>
  </g>
</svg>
