<?xml version="1.0" encoding="utf-8"?>
<!-- Generator: Adobe Illustrator 18.0.0, SVG Export Plug-In . SVG Version: 6.00 Build 0)  -->
<!DOCTYPE svg PUBLIC "-//W3C//DTD SVG 1.1//EN" "http://www.w3.org/Graphics/SVG/1.1/DTD/svg11.dtd">
<svg version="1.1" id="Layer_1" xmlns="http://www.w3.org/2000/svg" xmlns:xlink="http://www.w3.org/1999/xlink" x="0px" y="0px"
	 viewBox="0 0 64 64" enable-background="new 0 0 64 64" xml:space="preserve">
<g>
	<path fill="#7a029f" d="M61,7.7h-5v3h5v34H3v-34h5v-3H3c-1.7,0-3,1.4-3,3v40.1c0,1.7,1.3,3,3,3h17.9c0.9,0,1.7,0.8,1.7,1.7
		c0,0.8-0.6,1.5-1.3,1.7c-4.3,1-7.6,2.7-9.2,5.3C11.7,63.1,12.2,64,13,64h38c0.8,0,1.3-0.9,0.9-1.6c-1.6-2.6-4.9-4.3-9.2-5.3
		c-0.8-0.2-1.3-0.9-1.3-1.7c0-0.9,0.8-1.7,1.7-1.7H61c1.7,0,3-1.3,3-3V10.7C64,9,62.7,7.7,61,7.7z M32,51.6c-1.3,0-2.4-1.1-2.4-2.4
		c0-1.3,1.1-2.4,2.4-2.4c1.3,0,2.4,1.1,2.4,2.4C34.4,50.5,33.3,51.6,32,51.6z"/>
	<path fill="#7a029f" d="M51,0H13c-1.7,0-3,1.3-3,3v28.8c0,1.7,1.3,3,3,3h9.5l0.4-0.7c-0.8-0.5-1.4-1.4-1.5-2.3H13V7.7h38v24.1h-8.4
		c-0.1,0.9-0.7,1.8-1.5,2.4l0.4,0.6H51c1.7,0,3-1.3,3-3V3C54,1.3,52.6,0,51,0z M42.6,4.9c-0.6,0-1.1-0.5-1.1-1.1c0-0.6,0.5-1,1.1-1
		c0.6,0,1,0.5,1,1C43.6,4.4,43.2,4.9,42.6,4.9z M46.2,4.9c-0.6,0-1.1-0.5-1.1-1.1c0-0.6,0.5-1,1.1-1c0.6,0,1.1,0.5,1.1,1
		C47.2,4.4,46.8,4.9,46.2,4.9z M49.8,4.9c-0.6,0-1-0.5-1-1.1c0-0.6,0.5-1,1-1c0.6,0,1.1,0.5,1.1,1C50.8,4.4,50.4,4.9,49.8,4.9z"/>
	<g>
		<g>
			<g>
				<path fill="#7a029f" d="M32,22.6c-3.2,0-5.7,2.6-5.7,5.7c0,3.2,2.6,5.7,5.7,5.7c3.2,0,5.7-2.6,5.7-5.7
					C37.7,25.2,35.2,22.6,32,22.6z M32.7,31.3h-1.1V27c-0.4,0.4-0.9,0.7-1.5,0.9v-1c0.3-0.1,0.6-0.3,1-0.5c0.3-0.3,0.6-0.6,0.7-1
					h0.9V31.3z"/>
			</g>
			<path fill="#7a029f" d="M40.8,27.4c-0.4-0.4-0.5-1-0.3-1.5v0c0.1-0.2,0.1-0.3,0.1-0.5c0-0.5-0.3-1.1-0.8-1.3
				c-0.5-0.2-0.9-0.7-0.9-1.3c0-0.4-0.2-0.7-0.4-1c-0.2-0.2-0.6-0.4-1-0.4c-0.6,0-1.1-0.3-1.3-0.8l0,0c-0.3-0.7-1.1-1-1.8-0.7l0,0
				c-0.2,0.1-0.3,0.1-0.5,0.1c-0.4,0-0.7-0.1-1-0.4c-0.3-0.3-0.6-0.4-1-0.4c-0.4,0-0.7,0.1-1,0.4c-0.4,0.4-1,0.5-1.5,0.3l0,0
				c-0.7-0.3-1.5,0-1.8,0.7v0c-0.2,0.5-0.7,0.8-1.3,0.8c-0.4,0-0.7,0.2-1,0.4c-0.2,0.2-0.4,0.6-0.4,1c0,0.6-0.3,1.1-0.9,1.3
				c-0.7,0.3-1,1.1-0.7,1.8v0c0.1,0.2,0.1,0.4,0.1,0.5c0,0.4-0.1,0.7-0.4,1c-0.5,0.5-0.5,1.4,0,1.9h0c0.4,0.4,0.5,1,0.3,1.5v0
				c-0.1,0.2-0.1,0.3-0.1,0.5c0,0.5,0.3,1,0.8,1.3c0.5,0.2,0.9,0.7,0.9,1.3c0,0.4,0.2,0.7,0.4,1c0.2,0.2,0.6,0.4,1,0.4
				c0.6,0,1.1,0.3,1.3,0.8c0.3,0.7,1.1,1,1.8,0.7h0c0.2-0.1,0.4-0.1,0.5-0.1c0.4,0,0.7,0.1,1,0.4c0.3,0.3,0.6,0.4,1,0.4
				c0.3,0,0.7-0.1,1-0.4c0.4-0.4,1-0.5,1.5-0.3h0c0.2,0.1,0.3,0.1,0.5,0.1c0.5,0,1.1-0.3,1.3-0.9c0.2-0.5,0.7-0.8,1.3-0.8
				c0.4,0,0.7-0.2,1-0.4c0.2-0.2,0.4-0.6,0.4-1c0-0.6,0.3-1.1,0.9-1.3c0.7-0.3,1-1.1,0.7-1.8v0c-0.2-0.5-0.1-1.1,0.3-1.5h0
				c0.3-0.3,0.4-0.6,0.4-1C41.2,28,41.1,27.6,40.8,27.4z M32,35.1c-3.8,0-6.8-3-6.8-6.8c0-3.7,3-6.8,6.8-6.8c3.7,0,6.8,3,6.8,6.8
				C38.8,32.1,35.7,35.1,32,35.1z"/>
		</g>
		<g>
			<path fill="#7a029f" d="M29,39.3l-2.9,4.8c-0.1,0.2-0.4,0.1-0.5-0.1L24.7,41c0-0.1-0.2-0.2-0.3-0.2l-3.1,0.7
				c-0.2,0-0.4-0.2-0.3-0.4l2.8-4.5c0,0,0,0,0,0c0.6,0.5,1.2,0.9,2,1C26.5,38.7,27.7,39.3,29,39.3z"/>
			<path fill="#7a029f" d="M42.7,41.5l-3.1-0.7c-0.1,0-0.3,0.1-0.3,0.2l-0.9,3.1c-0.1,0.2-0.3,0.3-0.5,0.1L35,39.3
				c1.3,0,2.5-0.7,3.1-1.7c0.8-0.1,1.5-0.5,2-1l2.8,4.5C43.1,41.3,42.9,41.5,42.7,41.5z"/>
		</g>
	</g>
</g>
</svg>
